SplineFontDB: 3.0
FontName: Monda-Medium
FullName: Monda Medium
FamilyName: Monda
Weight: Normal
Version: 1.000;PS (version unavailable);hotconv 1.0.57;makeotf.lib2.0.21895 DEVELOPMENT
ItalicAngle: 0
UnderlinePosition: 0
UnderlineWidth: 0
Ascent: 1638
Descent: 410
UFOAscent: 1506
UFODescent: -695
LayerCount: 2
Layer: 0 0 "Back"  1
Layer: 1 0 "Fore"  0
FSType: 0
OS2Version: 0
OS2_WeightWidthSlopeOnly: 0
OS2_UseTypoMetrics: 0
CreationTime: 1353458080
ModificationTime: 1353458080
PfmFamily: 0
TTFWeight: 400
TTFWidth: 5
LineGap: 0
VLineGap: 0
Panose: 2 0 6 3 0 0 0 0 0 0
OS2TypoAscent: 1946
OS2TypoAOffset: 0
OS2TypoDescent: -695
OS2TypoDOffset: 0
OS2TypoLinegap: 0
OS2WinAscent: 1946
OS2WinAOffset: 0
OS2WinDescent: 695
OS2WinDOffset: 0
HheadAscent: 1946
HheadAOffset: 0
HheadDescent: -695
HheadDOffset: 0
OS2SubXSize: 1331
OS2SubYSize: 1433
OS2SubXOff: 0
OS2SubYOff: 286
OS2SupXSize: 1331
OS2SupYSize: 1433
OS2SupXOff: 0
OS2SupYOff: 983
OS2StrikeYSize: 102
OS2StrikeYPos: 530
OS2Vendor: 'newt'
OS2CodePages: 00000001.00000000
OS2UnicodeRanges: 000000ef.0000404f.00000002.00000000
Lookup: 258 0 0 "'kern' Horizontal Kerning in Latin lookup 0"  {"'kern' Horizontal Kerning in Latin lookup 0 subtable"  } ['kern' ('latn' <'dflt' > ) ]
DEI: 91125
LangName: 1033 "" "" "" "1.000;newt;Monda-Medium" "" "Version 1.000;PS (version unavailable);hotconv 1.0.57;makeotf.lib2.0.21895 DEVELOPMENT" "" "" "" "" "" "" "" "Copyright (c) 2012, vern (<URL|email>),+AAoA-with Reserved Font Name Monda Medium.+AAoACgAA-This Font Software is licensed under the SIL Open Font License, Version 1.1.+AAoA-This license is copied below, and is also available with a FAQ at:+AAoA-http://scripts.sil.org/OFL" "http://scripts.sil.org/OFL" 
PickledData: "(dp1
S'com.typemytype.robofont.compileSettings.autohint'
p2
I01
sS'com.typemytype.robofont.compileSettings.decompose'
p3
I01
sS'com.typemytype.robofont.foreground.layerStrokeColor'
p4
(F0.5
F0
F0.5
F0.69999999999999996
tp5
sS'com.typemytype.robofont.guides'
p6
((dp7

StartChar: .notdef
Encoding: 65536 -1 0
Width: 1024
VWidth: 0
Flags: W
PickledData: "(dp1
S'com.typemytype.robofont.layerData'
p2
(dp3
S'b'
(dp4
S'name'
p5
S'.notdef'
p6
sS'lib'
p7
(dp8
sS'unicodes'
p9
(tsS'width'
p10
I1024
sS'contours'
p11
(tsS'components'
p12
(tsS'anchors'
p13
(tsss."
LayerCount: 2
Fore
SplineSet
204 102 m 1
 204 990 l 1
 820 990 l 1
 820 102 l 1
 204 102 l 1
102 0 m 1
 922 0 l 1
 922 1092 l 1
 102 1092 l 1
 102 0 l 1
EndSplineSet
EndChar

StartChar: A
Encoding: 65 65 1
Width: 1404
VWidth: 0
Flags: W
PickledData: "(dp1
S'com.typemytype.robofont.layerData'
p2
(dp3
S'b'
(dp4
S'name'
p5
S'A'
sS'lib'
p6
(dp7
sS'unicodes'
p8
(tsS'width'
p9
I1404
sS'contours'
p10
(tsS'components'
p11
(tsS'anchors'
p12
(tsss."
LayerCount: 2
Fore
SplineSet
82 0 m 1
 291 0 l 1
 390 282 l 1
 1019 282 l 1
 1117 0 l 1
 1322 0 l 1
 790 1446 l 1
 613 1446 l 1
 82 0 l 1
438 417 m 1
 707 1191 l 1
 973 417 l 1
 438 417 l 1
EndSplineSet
EndChar

StartChar: AE
Encoding: 198 198 2
Width: 1686
VWidth: 0
Flags: W
PickledData: "(dp1
S'com.typemytype.robofont.layerData'
p2
(dp3
S'b'
(dp4
S'name'
p5
S'AE'
p6
sS'lib'
p7
(dp8
sS'unicodes'
p9
(tsS'width'
p10
I1686
sS'contours'
p11
(tsS'components'
p12
(tsS'anchors'
p13
(tsss."
LayerCount: 2
Fore
SplineSet
302 0 m 1
 375 282 l 1
 874 282 l 1
 874 0 l 1
 1559 0 l 1
 1559 150 l 1
 1065 150 l 1
 1065 664 l 1
 1489 664 l 1
 1489 814 l 1
 1065 814 l 1
 1065 1296 l 1
 1550 1296 l 1
 1550 1446 l 1
 492 1449 l 1
 98 3 l 1
 302 0 l 1
411 417 m 1
 632 1296 l 1
 874 1296 l 1
 874 417 l 1
 411 417 l 1
EndSplineSet
EndChar

StartChar: Aacute
Encoding: 193 193 3
Width: 1376
VWidth: 0
Flags: W
PickledData: "(dp1
S'com.typemytype.robofont.layerData'
p2
(dp3
S'b'
(dp4
S'name'
p5
S'Aacute'
p6
sS'lib'
p7
(dp8
sS'unicodes'
p9
(tsS'width'
p10
I1376
sS'contours'
p11
(tsS'components'
p12
(tsS'anchors'
p13
(tsss."
LayerCount: 2
Fore
SplineSet
68 0 m 1
 277 0 l 1
 376 282 l 1
 1005 282 l 1
 1103 0 l 1
 1308 0 l 1
 776 1446 l 1
 599 1446 l 1
 68 0 l 1
763.5 1605 m 1
 869.5 1605 l 1
 731.5 1946 l 1
 506.5 1946 l 1
 763.5 1605 l 1
424 417 m 1
 693 1184 l 1
 959 417 l 1
 424 417 l 1
EndSplineSet
EndChar

StartChar: Abreve
Encoding: 258 258 4
Width: 1376
VWidth: 0
Flags: W
PickledData: "(dp1
S'com.typemytype.robofont.layerData'
p2
(dp3
S'b'
(dp4
S'name'
p5
S'Abreve'
p6
sS'lib'
p7
(dp8
sS'unicodes'
p9
(tsS'width'
p10
I1376
sS'contours'
p11
(tsS'components'
p12
(tsS'anchors'
p13
(tsss."
LayerCount: 2
Fore
SplineSet
68 0 m 1
 277 0 l 1
 376 282 l 1
 1005 282 l 1
 1103 0 l 1
 1308 0 l 1
 776 1446 l 1
 599 1446 l 1
 68 0 l 1
687.5 1605 m 0
 826.5 1605 914.5 1702 914.5 1817 c 1
 808.5 1817 l 1
 808.5 1748 760.5 1701 687.5 1701 c 0
 618.5 1701 566.5 1751 566.5 1817 c 1
 461.5 1817 l 1
 461.5 1702 548.5 1605 687.5 1605 c 0
424 417 m 1
 693 1184 l 1
 959 417 l 1
 424 417 l 1
EndSplineSet
EndChar

StartChar: Acircumflex
Encoding: 194 194 5
Width: 1376
VWidth: 0
Flags: W
PickledData: "(dp1
S'com.typemytype.robofont.layerData'
p2
(dp3
S'b'
(dp4
S'name'
p5
S'Acircumflex'
p6
sS'lib'
p7
(dp8
sS'unicodes'
p9
(tsS'width'
p10
I1376
sS'contours'
p11
(tsS'components'
p12
(tsS'anchors'
p13
(tsss."
LayerCount: 2
Fore
SplineSet
68 0 m 1
 277 0 l 1
 376 282 l 1
 1005 282 l 1
 1103 0 l 1
 1308 0 l 1
 776 1446 l 1
 599 1446 l 1
 68 0 l 1
401.5 1605 m 1
 562.5 1605 l 1
 694.5 1779 l 1
 818.5 1605 l 1
 974.5 1605 l 1
 768.5 1871 l 1
 618.5 1871 l 1
 401.5 1605 l 1
424 417 m 1
 693 1184 l 1
 959 417 l 1
 424 417 l 1
EndSplineSet
EndChar

StartChar: Adieresis
Encoding: 196 196 6
Width: 1376
VWidth: 0
Flags: W
PickledData: "(dp1
S'com.typemytype.robofont.layerData'
p2
(dp3
S'b'
(dp4
S'name'
p5
S'Adieresis'
p6
sS'lib'
p7
(dp8
sS'unicodes'
p9
(tsS'width'
p10
I1376
sS'contours'
p11
(tsS'components'
p12
(tsS'anchors'
p13
(tsss."
LayerCount: 2
Fore
SplineSet
68 0 m 1
 277 0 l 1
 376 282 l 1
 1005 282 l 1
 1103 0 l 1
 1308 0 l 1
 776 1446 l 1
 599 1446 l 1
 68 0 l 1
333.5 1605 m 1
 539.5 1605 l 1
 539.5 1786 l 1
 333.5 1786 l 1
 333.5 1605 l 1
836.5 1605 m 1
 1042.5 1605 l 1
 1042.5 1786 l 1
 836.5 1786 l 1
 836.5 1605 l 1
424 417 m 1
 693 1184 l 1
 959 417 l 1
 424 417 l 1
EndSplineSet
EndChar

StartChar: Agrave
Encoding: 192 192 7
Width: 1376
VWidth: 0
Flags: W
PickledData: "(dp1
S'com.typemytype.robofont.layerData'
p2
(dp3
S'b'
(dp4
S'name'
p5
S'Agrave'
p6
sS'lib'
p7
(dp8
sS'unicodes'
p9
(tsS'width'
p10
I1376
sS'contours'
p11
(tsS'components'
p12
(tsS'anchors'
p13
(tsss."
LayerCount: 2
Fore
SplineSet
68 0 m 1
 277 0 l 1
 376 282 l 1
 1005 282 l 1
 1103 0 l 1
 1308 0 l 1
 776 1446 l 1
 599 1446 l 1
 68 0 l 1
763.5 1605 m 1
 869.5 1605 l 1
 731.5 1946 l 1
 506.5 1946 l 1
 763.5 1605 l 1
424 417 m 1
 693 1184 l 1
 959 417 l 1
 424 417 l 1
EndSplineSet
EndChar

StartChar: Amacron
Encoding: 256 256 8
Width: 1376
VWidth: 0
Flags: W
PickledData: "(dp1
S'com.typemytype.robofont.layerData'
p2
(dp3
S'b'
(dp4
S'name'
p5
S'Amacron'
p6
sS'lib'
p7
(dp8
sS'unicodes'
p9
(tsS'width'
p10
I1376
sS'contours'
p11
(tsS'components'
p12
(tsS'anchors'
p13
(tsss."
LayerCount: 2
Fore
SplineSet
68 0 m 1
 277 0 l 1
 376 282 l 1
 1005 282 l 1
 1103 0 l 1
 1308 0 l 1
 776 1446 l 1
 599 1446 l 1
 68 0 l 1
487.5 1605 m 1
 888.5 1605 l 1
 888.5 1757 l 1
 487.5 1757 l 1
 487.5 1605 l 1
424 417 m 1
 693 1184 l 1
 959 417 l 1
 424 417 l 1
EndSplineSet
EndChar

StartChar: Aring
Encoding: 197 197 10
Width: 1376
VWidth: 0
Flags: W
PickledData: "(dp1
S'com.typemytype.robofont.layerData'
p2
(dp3
S'b'
(dp4
S'name'
p5
S'Aring'
p6
sS'lib'
p7
(dp8
sS'unicodes'
p9
(tsS'width'
p10
I1376
sS'contours'
p11
(tsS'components'
p12
(tsS'anchors'
p13
(tsss."
LayerCount: 2
Fore
SplineSet
68 0 m 1
 277 0 l 1
 376 282 l 1
 1005 282 l 1
 1103 0 l 1
 1308 0 l 1
 776 1446 l 1
 599 1446 l 1
 68 0 l 1
688.5 1536.1328125 m 0
 631.5 1536.1328125 579.5 1562.1328125 579.5 1650.1328125 c 0
 579.5 1737.1328125 632.5 1762.1328125 688.5 1762.1328125 c 0
 746.5 1762.1328125 796.5 1735.1328125 796.5 1648.1328125 c 0
 796.5 1561.1328125 745.5 1536.1328125 688.5 1536.1328125 c 0
688.5 1471.1328125 m 0
 788.5 1471.1328125 882.5 1526.1328125 882.5 1649.1328125 c 0
 882.5 1772.1328125 788.5 1827.1328125 688.5 1827.1328125 c 0
 588.5 1827.1328125 493.5 1772.1328125 493.5 1649.1328125 c 0
 493.5 1526.1328125 588.5 1471.1328125 688.5 1471.1328125 c 0
424 417 m 1
 693 1184 l 1
 959 417 l 1
 424 417 l 1
EndSplineSet
EndChar

StartChar: B
Encoding: 66 66 12
Width: 1412
VWidth: 0
Flags: W
PickledData: "(dp1
S'com.typemytype.robofont.layerData'
p2
(dp3
S'b'
(dp4
S'name'
p5
S'B'
sS'lib'
p6
(dp7
sS'unicodes'
p8
(tsS'width'
p9
I1412
sS'contours'
p10
(tsS'components'
p11
(tsS'anchors'
p12
(tsss."
LayerCount: 2
Fore
SplineSet
218 0 m 1
 763 0 l 2
 1115 0 1292 124 1292 411 c 0
 1292 595 1209 735 1040 773 c 1
 1174 819 1219 922 1222 1049 c 1
 1222 1301 1127 1446 726 1446 c 2
 218 1446 l 1
 218 0 l 1
420 149 m 1
 420 696 l 1
 820 696 l 2
 1041 696 1094 565 1094 433 c 0
 1094 197 995 149 771 149 c 2
 420 149 l 1
420 833 m 1
 420 1295 l 1
 711 1295 l 2
 955 1295 1021 1256 1021 1047 c 0
 1021 917 973 833 791 833 c 2
 420 833 l 1
EndSplineSet
EndChar

StartChar: C
Encoding: 67 67 13
Width: 1460
VWidth: 0
Flags: W
PickledData: "(dp1
S'com.typemytype.robofont.layerData'
p2
(dp3
S'b'
(dp4
S'name'
p5
S'C'
sS'lib'
p6
(dp7
sS'unicodes'
p8
(tsS'width'
p9
I1460
sS'contours'
p10
(tsS'components'
p11
(tsS'anchors'
p12
(tsss."
LayerCount: 2
Fore
SplineSet
765 -22 m 0
 1230 -22 1304 203 1304 500 c 2
 1304 558 l 1
 1113 558 l 1
 1113 485 l 2
 1113 204 1023 134 765 134 c 0
 509 134 388 199 388 455 c 2
 388 977 l 2
 388 1234 509 1312 763 1312 c 0
 1019 1312 1113 1214 1113 957 c 2
 1113 900 l 1
 1304 900 l 1
 1304 936 l 2
 1304 1242 1207 1468 763 1468 c 0
 278 1468 186 1246 186 940 c 2
 186 486 l 2
 186 185 282 -22 765 -22 c 0
EndSplineSet
EndChar

StartChar: Cacute
Encoding: 262 262 14
Width: 1460
VWidth: 0
Flags: W
PickledData: "(dp1
S'com.typemytype.robofont.layerData'
p2
(dp3
S'b'
(dp4
S'name'
p5
S'Cacute'
p6
sS'lib'
p7
(dp8
sS'unicodes'
p9
(tsS'width'
p10
I1460
sS'contours'
p11
(tsS'components'
p12
(tsS'anchors'
p13
(tsss."
LayerCount: 2
Fore
SplineSet
762 -24 m 0
 1227 -24 1302 203 1302 500 c 2
 1302 558 l 1
 1107 558 l 1
 1107 455 l 2
 1107 199 1020 126 762 126 c 0
 506 126 385 199 385 455 c 2
 385 992 l 2
 385 1249 506 1332 760 1332 c 0
 1016 1332 1107 1249 1107 992 c 2
 1107 900 l 1
 1302 900 l 1
 1302 942 l 2
 1302 1248 1227 1483 760 1483 c 0
 275 1483 183 1261 183 955 c 2
 183 486 l 2
 183 185 279 -24 762 -24 c 0
818 1605 m 1
 924 1605 l 1
 786 1946 l 1
 561 1946 l 1
 818 1605 l 1
EndSplineSet
EndChar

StartChar: Ccaron
Encoding: 268 268 15
Width: 1460
VWidth: 0
Flags: W
PickledData: "(dp1
S'com.typemytype.robofont.layerData'
p2
(dp3
S'b'
(dp4
S'name'
p5
S'Ccaron'
p6
sS'lib'
p7
(dp8
sS'unicodes'
p9
(tsS'width'
p10
I1460
sS'contours'
p11
(tsS'components'
p12
(tsS'anchors'
p13
(tsss."
LayerCount: 2
Fore
SplineSet
762 -24 m 0
 1227 -24 1302 203 1302 500 c 2
 1302 558 l 1
 1107 558 l 1
 1107 455 l 2
 1107 199 1020 126 762 126 c 0
 506 126 385 199 385 455 c 2
 385 992 l 2
 385 1249 506 1332 760 1332 c 0
 1016 1332 1107 1249 1107 992 c 2
 1107 900 l 1
 1302 900 l 1
 1302 942 l 2
 1302 1248 1227 1483 760 1483 c 0
 275 1483 183 1261 183 955 c 2
 183 486 l 2
 183 185 279 -24 762 -24 c 0
662 1605 m 1
 812 1605 l 1
 1029 1871 l 1
 868 1871 l 1
 736 1697 l 1
 612 1871 l 1
 456 1871 l 1
 662 1605 l 1
EndSplineSet
EndChar

StartChar: Ccedilla
Encoding: 199 199 16
Width: 1460
VWidth: 0
Flags: W
PickledData: "(dp1
S'com.typemytype.robofont.layerData'
p2
(dp3
S'b'
(dp4
S'name'
p5
S'Ccedilla'
p6
sS'lib'
p7
(dp8
sS'unicodes'
p9
(tsS'width'
p10
I1460
sS'contours'
p11
(tsS'components'
p12
(tsS'anchors'
p13
(tsss."
LayerCount: 2
Fore
SplineSet
762 -24 m 0
 1227 -24 1302 203 1302 500 c 2
 1302 558 l 1
 1107 558 l 1
 1107 455 l 2
 1107 199 1020 126 762 126 c 0
 506 126 385 199 385 455 c 2
 385 992 l 2
 385 1249 506 1332 760 1332 c 0
 1016 1332 1107 1249 1107 992 c 2
 1107 900 l 1
 1302 900 l 1
 1302 942 l 2
 1302 1248 1227 1483 760 1483 c 0
 275 1483 183 1261 183 955 c 2
 183 486 l 2
 183 185 279 -24 762 -24 c 0
725 -493.799804688 m 0
 890 -493.799804688 972 -404.799804688 972 -310.799804688 c 0
 972 -221.799804688 898 -127.799804688 751 -101.799804688 c 1
 745 -7.7998046875 l 1
 683 -7.7998046875 l 1
 683 -165.799804688 l 1
 783 -168.799804688 843 -236.799804688 843 -297.799804688 c 0
 843 -349.799804688 801 -396.799804688 703 -396.799804688 c 0
 682 -396.799804688 658 -394.799804688 632 -389.799804688 c 1
 632 -485.799804688 l 1
 666 -491.799804688 697 -493.799804688 725 -493.799804688 c 0
EndSplineSet
EndChar

StartChar: Ccircumflex
Encoding: 264 264 17
Width: 1460
VWidth: 0
Flags: W
PickledData: "(dp1
S'com.typemytype.robofont.layerData'
p2
(dp3
S'b'
(dp4
S'name'
p5
S'Ccircumflex'
p6
sS'lib'
p7
(dp8
sS'unicodes'
p9
(tsS'width'
p10
I1460
sS'contours'
p11
(tsS'components'
p12
(tsS'anchors'
p13
(tsss."
LayerCount: 2
Fore
SplineSet
762 -24 m 0
 1227 -24 1302 203 1302 500 c 2
 1302 558 l 1
 1107 558 l 1
 1107 455 l 2
 1107 199 1020 126 762 126 c 0
 506 126 385 199 385 455 c 2
 385 992 l 2
 385 1249 506 1332 760 1332 c 0
 1016 1332 1107 1249 1107 992 c 2
 1107 900 l 1
 1302 900 l 1
 1302 942 l 2
 1302 1248 1227 1483 760 1483 c 0
 275 1483 183 1261 183 955 c 2
 183 486 l 2
 183 185 279 -24 762 -24 c 0
456 1605 m 1
 617 1605 l 1
 749 1779 l 1
 873 1605 l 1
 1029 1605 l 1
 823 1871 l 1
 673 1871 l 1
 456 1605 l 1
EndSplineSet
EndChar

StartChar: Cdotaccent
Encoding: 266 266 18
Width: 1460
VWidth: 0
Flags: W
PickledData: "(dp1
S'com.typemytype.robofont.layerData'
p2
(dp3
S'b'
(dp4
S'name'
p5
S'Cdotaccent'
p6
sS'lib'
p7
(dp8
sS'unicodes'
p9
(tsS'width'
p10
I1460
sS'contours'
p11
(tsS'components'
p12
(tsS'anchors'
p13
(tsss."
LayerCount: 2
Fore
SplineSet
762 -24 m 0
 1227 -24 1302 203 1302 500 c 2
 1302 558 l 1
 1107 558 l 1
 1107 455 l 2
 1107 199 1020 126 762 126 c 0
 506 126 385 199 385 455 c 2
 385 992 l 2
 385 1249 506 1332 760 1332 c 0
 1016 1332 1107 1249 1107 992 c 2
 1107 900 l 1
 1302 900 l 1
 1302 942 l 2
 1302 1248 1227 1483 760 1483 c 0
 275 1483 183 1261 183 955 c 2
 183 486 l 2
 183 185 279 -24 762 -24 c 0
615.5 1605 m 1
 869.5 1605 l 1
 869.5 1846 l 1
 615.5 1846 l 1
 615.5 1605 l 1
EndSplineSet
EndChar

StartChar: D
Encoding: 68 68 19
Width: 1524
VWidth: 0
Flags: W
PickledData: "(dp1
S'com.typemytype.robofont.layerData'
p2
(dp3
S'b'
(dp4
S'name'
p5
S'D'
sS'lib'
p6
(dp7
sS'unicodes'
p8
(tsS'width'
p9
I1524
sS'contours'
p10
(tsS'components'
p11
(tsS'anchors'
p12
(tsss."
LayerCount: 2
Fore
SplineSet
420 150 m 1
 420 1295 l 1
 772 1295 l 2
 978 1295 1137 1238 1137 971 c 2
 1137 462 l 2
 1137 196 980 150 772 150 c 2
 420 150 l 1
218 0 m 1
 792 0 l 2
 1159 0 1338 169 1338 482 c 2
 1338 959 l 2
 1338 1235 1191 1446 790 1446 c 2
 218 1446 l 1
 218 0 l 1
EndSplineSet
EndChar

StartChar: Dcaron
Encoding: 270 270 20
Width: 1530
VWidth: 0
Flags: W
PickledData: "(dp1
S'com.typemytype.robofont.layerData'
p2
(dp3
S'b'
(dp4
S'name'
p5
S'Dcaron'
p6
sS'lib'
p7
(dp8
sS'unicodes'
p9
(tsS'width'
p10
I1530
sS'contours'
p11
(tsS'components'
p12
(tsS'anchors'
p13
(tsss."
LayerCount: 2
Fore
SplineSet
708.5 1605 m 1
 858.5 1605 l 1
 1075.5 1871 l 1
 914.5 1871 l 1
 782.5 1697 l 1
 658.5 1871 l 1
 502.5 1871 l 1
 708.5 1605 l 1
433 150 m 1
 433 1295 l 1
 781 1295 l 2
 987 1295 1146 1238 1146 971 c 2
 1146 462 l 2
 1146 196 989 150 781 150 c 2
 433 150 l 1
231 0 m 1
 801 0 l 2
 1168 0 1347 169 1347 482 c 2
 1347 959 l 2
 1347 1235 1200 1446 799 1446 c 2
 231 1446 l 1
 231 0 l 1
EndSplineSet
EndChar

StartChar: E
Encoding: 69 69 22
Width: 1260
VWidth: 0
Flags: W
PickledData: "(dp1
S'com.typemytype.robofont.layerData'
p2
(dp3
S'b'
(dp4
S'name'
p5
S'E'
sS'lib'
p6
(dp7
sS'unicodes'
p8
(tsS'width'
p9
I1260
sS'contours'
p10
(tsS'components'
p11
(tsS'anchors'
p12
(tsss."
LayerCount: 2
Fore
SplineSet
218 0 m 1
 1114 0 l 1
 1114 150 l 1
 419 150 l 1
 419 664 l 1
 1044 664 l 1
 1044 814 l 1
 419 814 l 1
 419 1296 l 1
 1101 1296 l 1
 1101 1446 l 1
 218 1446 l 1
 218 0 l 1
EndSplineSet
EndChar

StartChar: Eacute
Encoding: 201 201 23
Width: 1241
VWidth: 0
Flags: W
PickledData: "(dp1
S'com.typemytype.robofont.layerData'
p2
(dp3
S'b'
(dp4
S'name'
p5
S'Eacute'
p6
sS'lib'
p7
(dp8
sS'unicodes'
p9
(tsS'width'
p10
I1241
sS'contours'
p11
(tsS'components'
p12
(tsS'anchors'
p13
(tsss."
LayerCount: 2
Fore
SplineSet
231 0 m 1
 1083 0 l 1
 1083 150 l 1
 432 150 l 1
 432 664 l 1
 1013 664 l 1
 1013 814 l 1
 432 814 l 1
 432 1296 l 1
 1074 1296 l 1
 1074 1446 l 1
 231 1446 l 1
 231 0 l 1
732.5 1605 m 1
 838.5 1605 l 1
 700.5 1946 l 1
 475.5 1946 l 1
 732.5 1605 l 1
EndSplineSet
EndChar

StartChar: Ebreve
Encoding: 276 276 24
Width: 1241
VWidth: 0
Flags: W
PickledData: "(dp1
S'com.typemytype.robofont.layerData'
p2
(dp3
S'b'
(dp4
S'name'
p5
S'Ebreve'
p6
sS'lib'
p7
(dp8
sS'unicodes'
p9
(tsS'width'
p10
I1241
sS'contours'
p11
(tsS'components'
p12
(tsS'anchors'
p13
(tsss."
LayerCount: 2
Fore
SplineSet
231 0 m 1
 1083 0 l 1
 1083 150 l 1
 432 150 l 1
 432 664 l 1
 1013 664 l 1
 1013 814 l 1
 432 814 l 1
 432 1296 l 1
 1074 1296 l 1
 1074 1446 l 1
 231 1446 l 1
 231 0 l 1
656.5 1605 m 0
 795.5 1605 883.5 1702 883.5 1817 c 1
 777.5 1817 l 1
 777.5 1748 729.5 1701 656.5 1701 c 0
 587.5 1701 535.5 1751 535.5 1817 c 1
 430.5 1817 l 1
 430.5 1702 517.5 1605 656.5 1605 c 0
EndSplineSet
EndChar

StartChar: Ecaron
Encoding: 282 282 25
Width: 1241
VWidth: 0
Flags: W
PickledData: "(dp1
S'com.typemytype.robofont.layerData'
p2
(dp3
S'b'
(dp4
S'name'
p5
S'Ecaron'
p6
sS'lib'
p7
(dp8
sS'unicodes'
p9
(tsS'width'
p10
I1241
sS'contours'
p11
(tsS'components'
p12
(tsS'anchors'
p13
(tsss."
LayerCount: 2
Fore
SplineSet
231 0 m 1
 1083 0 l 1
 1083 150 l 1
 432 150 l 1
 432 664 l 1
 1013 664 l 1
 1013 814 l 1
 432 814 l 1
 432 1296 l 1
 1074 1296 l 1
 1074 1446 l 1
 231 1446 l 1
 231 0 l 1
576.5 1605 m 1
 726.5 1605 l 1
 943.5 1871 l 1
 782.5 1871 l 1
 650.5 1697 l 1
 526.5 1871 l 1
 370.5 1871 l 1
 576.5 1605 l 1
EndSplineSet
EndChar

StartChar: Ecircumflex
Encoding: 202 202 26
Width: 1241
VWidth: 0
Flags: W
PickledData: "(dp1
S'com.typemytype.robofont.layerData'
p2
(dp3
S'b'
(dp4
S'name'
p5
S'Ecircumflex'
p6
sS'lib'
p7
(dp8
sS'unicodes'
p9
(tsS'width'
p10
I1241
sS'contours'
p11
(tsS'components'
p12
(tsS'anchors'
p13
(tsss."
LayerCount: 2
Fore
SplineSet
231 0 m 1
 1083 0 l 1
 1083 150 l 1
 432 150 l 1
 432 664 l 1
 1013 664 l 1
 1013 814 l 1
 432 814 l 1
 432 1296 l 1
 1074 1296 l 1
 1074 1446 l 1
 231 1446 l 1
 231 0 l 1
370.5 1605 m 1
 531.5 1605 l 1
 663.5 1779 l 1
 787.5 1605 l 1
 943.5 1605 l 1
 737.5 1871 l 1
 587.5 1871 l 1
 370.5 1605 l 1
EndSplineSet
EndChar

StartChar: Edieresis
Encoding: 203 203 27
Width: 1241
VWidth: 0
Flags: W
PickledData: "(dp1
S'com.typemytype.robofont.layerData'
p2
(dp3
S'b'
(dp4
S'name'
p5
S'Edieresis'
p6
sS'lib'
p7
(dp8
sS'unicodes'
p9
(tsS'width'
p10
I1241
sS'contours'
p11
(tsS'components'
p12
(tsS'anchors'
p13
(tsss."
LayerCount: 2
Fore
SplineSet
231 0 m 1
 1083 0 l 1
 1083 150 l 1
 432 150 l 1
 432 664 l 1
 1013 664 l 1
 1013 814 l 1
 432 814 l 1
 432 1296 l 1
 1074 1296 l 1
 1074 1446 l 1
 231 1446 l 1
 231 0 l 1
302.5 1605 m 1
 508.5 1605 l 1
 508.5 1786 l 1
 302.5 1786 l 1
 302.5 1605 l 1
805.5 1605 m 1
 1011.5 1605 l 1
 1011.5 1786 l 1
 805.5 1786 l 1
 805.5 1605 l 1
EndSplineSet
EndChar

StartChar: Edotaccent
Encoding: 278 278 28
Width: 1241
VWidth: 0
Flags: W
PickledData: "(dp1
S'com.typemytype.robofont.layerData'
p2
(dp3
S'b'
(dp4
S'name'
p5
S'Edotaccent'
p6
sS'lib'
p7
(dp8
sS'unicodes'
p9
(tsS'width'
p10
I1241
sS'contours'
p11
(tsS'components'
p12
(tsS'anchors'
p13
(tsss."
LayerCount: 2
Fore
SplineSet
231 0 m 1
 1083 0 l 1
 1083 150 l 1
 432 150 l 1
 432 664 l 1
 1013 664 l 1
 1013 814 l 1
 432 814 l 1
 432 1296 l 1
 1074 1296 l 1
 1074 1446 l 1
 231 1446 l 1
 231 0 l 1
530 1605 m 1
 784 1605 l 1
 784 1846 l 1
 530 1846 l 1
 530 1605 l 1
EndSplineSet
EndChar

StartChar: Egrave
Encoding: 200 200 29
Width: 1241
VWidth: 0
Flags: W
PickledData: "(dp1
S'com.typemytype.robofont.layerData'
p2
(dp3
S'b'
(dp4
S'name'
p5
S'Egrave'
p6
sS'lib'
p7
(dp8
sS'unicodes'
p9
(tsS'width'
p10
I1241
sS'contours'
p11
(tsS'components'
p12
(tsS'anchors'
p13
(tsss."
LayerCount: 2
Fore
SplineSet
231 0 m 1
 1083 0 l 1
 1083 150 l 1
 432 150 l 1
 432 664 l 1
 1013 664 l 1
 1013 814 l 1
 432 814 l 1
 432 1296 l 1
 1074 1296 l 1
 1074 1446 l 1
 231 1446 l 1
 231 0 l 1
732.5 1605 m 1
 838.5 1605 l 1
 700.5 1946 l 1
 475.5 1946 l 1
 732.5 1605 l 1
EndSplineSet
EndChar

StartChar: Emacron
Encoding: 274 274 30
Width: 1241
VWidth: 0
Flags: W
PickledData: "(dp1
S'com.typemytype.robofont.layerData'
p2
(dp3
S'b'
(dp4
S'name'
p5
S'Emacron'
p6
sS'lib'
p7
(dp8
sS'unicodes'
p9
(tsS'width'
p10
I1241
sS'contours'
p11
(tsS'components'
p12
(tsS'anchors'
p13
(tsss."
LayerCount: 2
Fore
SplineSet
231 0 m 1
 1083 0 l 1
 1083 150 l 1
 432 150 l 1
 432 664 l 1
 1013 664 l 1
 1013 814 l 1
 432 814 l 1
 432 1296 l 1
 1074 1296 l 1
 1074 1446 l 1
 231 1446 l 1
 231 0 l 1
456.5 1605 m 1
 857.5 1605 l 1
 857.5 1757 l 1
 456.5 1757 l 1
 456.5 1605 l 1
EndSplineSet
EndChar

StartChar: Eth
Encoding: 208 208 33
Width: 1530
VWidth: 0
Flags: W
PickledData: "(dp1
S'com.typemytype.robofont.layerData'
p2
(dp3
S'b'
(dp4
S'name'
p5
S'Eth'
p6
sS'lib'
p7
(dp8
sS'unicodes'
p9
(tsS'width'
p10
I1530
sS'contours'
p11
(tsS'components'
p12
(tsS'anchors'
p13
(tsss."
LayerCount: 2
Fore
SplineSet
433 150 m 1
 433 1295 l 1
 781 1295 l 2
 987 1295 1146 1238 1146 971 c 2
 1146 462 l 2
 1146 196 989 150 781 150 c 2
 433 150 l 1
231 0 m 1
 801 0 l 2
 1168 0 1347 169 1347 482 c 2
 1347 959 l 2
 1347 1235 1200 1446 799 1446 c 2
 231 1446 l 1
 231 0 l 1
53 668 m 1
 680 668 l 1
 680 809 l 1
 53 809 l 1
 53 668 l 1
EndSplineSet
EndChar

StartChar: Euro
Encoding: 8364 8364 34
Width: 1460
VWidth: 0
Flags: W
PickledData: "(dp1
S'com.typemytype.robofont.layerData'
p2
(dp3
S'b'
(dp4
S'name'
p5
S'currency'
p6
sS'lib'
p7
(dp8
sS'unicodes'
p9
(tsS'width'
p10
I1460
sS'contours'
p11
(tsS'components'
p12
(tsS'anchors'
p13
(tsss."
LayerCount: 2
Fore
SplineSet
1 505 m 1
 743 505 l 1
 743 639 l 1
 1 639 l 1
 1 505 l 1
1 819 m 1
 743 819 l 1
 743 953 l 1
 1 953 l 1
 1 819 l 1
EndSplineSet
Refer: 13 67 N 1 0 0 1 0 0 2
EndChar

StartChar: F
Encoding: 70 70 35
Width: 1159
VWidth: 0
Flags: W
PickledData: "(dp1
S'com.typemytype.robofont.layerData'
p2
(dp3
S'b'
(dp4
S'name'
p5
S'F'
sS'lib'
p6
(dp7
sS'unicodes'
p8
(tsS'width'
p9
I1159
sS'contours'
p10
(tsS'components'
p11
(tsS'anchors'
p12
(tsss."
LayerCount: 2
Fore
SplineSet
218 0 m 1
 419 0 l 1
 419 664 l 1
 1003 664 l 1
 1003 814 l 1
 419 814 l 1
 419 1296 l 1
 1039 1296 l 1
 1039 1446 l 1
 218 1446 l 1
 218 0 l 1
EndSplineSet
EndChar

StartChar: G
Encoding: 71 71 36
Width: 1538
VWidth: 0
Flags: W
PickledData: "(dp1
S'com.typemytype.robofont.layerData'
p2
(dp3
S'b'
(dp4
S'name'
p5
S'G'
sS'lib'
p6
(dp7
sS'unicodes'
p8
(tsS'width'
p9
I1538
sS'contours'
p10
(tsS'components'
p11
(tsS'anchors'
p12
(tsss."
LayerCount: 2
Fore
SplineSet
776 -22 m 0
 1062 -22 1169 96 1203 216 c 1
 1247 0 l 1
 1338 0 l 1
 1338 735 l 1
 898 735 l 1
 898 588 l 1
 1122 588 l 1
 1122 455 l 2
 1122 199 1034 134 776 134 c 0
 520 134 388 199 388 455 c 2
 388 977 l 2
 388 1234 526 1312 780 1312 c 0
 1036 1312 1122 1234 1122 977 c 2
 1122 900 l 1
 1317 900 l 1
 1317 927 l 2
 1317 1233 1247 1468 780 1468 c 0
 295 1468 186 1246 186 940 c 2
 186 486 l 2
 186 185 293 -22 776 -22 c 0
EndSplineSet
EndChar

StartChar: Gbreve
Encoding: 286 286 37
Width: 1516
VWidth: 0
Flags: W
PickledData: "(dp1
S'com.typemytype.robofont.layerData'
p2
(dp3
S'b'
(dp4
S'name'
p5
S'Gbreve'
p6
sS'lib'
p7
(dp8
sS'unicodes'
p9
(tsS'width'
p10
I1516
sS'contours'
p11
(tsS'components'
p12
(tsS'anchors'
p13
(tsss."
LayerCount: 2
Fore
SplineSet
762 -24 m 0
 1048 -24 1154 96 1188 216 c 1
 1232 0 l 1
 1323 0 l 1
 1323 735 l 1
 883 735 l 1
 883 588 l 1
 1107 588 l 1
 1107 455 l 2
 1107 199 1020 126 762 126 c 0
 506 126 385 199 385 455 c 2
 385 992 l 2
 385 1249 512 1332 766 1332 c 0
 1022 1332 1107 1249 1107 992 c 2
 1107 900 l 1
 1302 900 l 1
 1302 942 l 2
 1302 1248 1233 1483 766 1483 c 0
 281 1483 183 1261 183 955 c 2
 183 486 l 2
 183 185 279 -24 762 -24 c 0
752.5 1605 m 0
 891.5 1605 979.5 1702 979.5 1817 c 1
 873.5 1817 l 1
 873.5 1748 825.5 1701 752.5 1701 c 0
 683.5 1701 631.5 1751 631.5 1817 c 1
 526.5 1817 l 1
 526.5 1702 613.5 1605 752.5 1605 c 0
EndSplineSet
EndChar

StartChar: Gcircumflex
Encoding: 284 284 38
Width: 1516
VWidth: 0
Flags: W
PickledData: "(dp1
S'com.typemytype.robofont.layerData'
p2
(dp3
S'b'
(dp4
S'name'
p5
S'Gcircumflex'
p6
sS'lib'
p7
(dp8
sS'unicodes'
p9
(tsS'width'
p10
I1516
sS'contours'
p11
(tsS'components'
p12
(tsS'anchors'
p13
(tsss."
LayerCount: 2
Fore
SplineSet
762 -24 m 0
 1048 -24 1154 96 1188 216 c 1
 1232 0 l 1
 1323 0 l 1
 1323 735 l 1
 883 735 l 1
 883 588 l 1
 1107 588 l 1
 1107 455 l 2
 1107 199 1020 126 762 126 c 0
 506 126 385 199 385 455 c 2
 385 992 l 2
 385 1249 512 1332 766 1332 c 0
 1022 1332 1107 1249 1107 992 c 2
 1107 900 l 1
 1302 900 l 1
 1302 942 l 2
 1302 1248 1233 1483 766 1483 c 0
 281 1483 183 1261 183 955 c 2
 183 486 l 2
 183 185 279 -24 762 -24 c 0
466.5 1605 m 1
 627.5 1605 l 1
 759.5 1779 l 1
 883.5 1605 l 1
 1039.5 1605 l 1
 833.5 1871 l 1
 683.5 1871 l 1
 466.5 1605 l 1
EndSplineSet
EndChar

StartChar: Gcommaaccent
Encoding: 290 290 39
Width: 1516
VWidth: 0
Flags: W
PickledData: "(dp1
S'com.typemytype.robofont.layerData'
p2
(dp3
S'b'
(dp4
S'name'
p5
S'Gcommaaccent'
p6
sS'lib'
p7
(dp8
sS'unicodes'
p9
(tsS'width'
p10
I1516
sS'contours'
p11
(tsS'components'
p12
(tsS'anchors'
p13
(tsss."
LayerCount: 2
Fore
SplineSet
762 -24 m 0
 1048 -24 1154 96 1188 216 c 1
 1232 0 l 1
 1323 0 l 1
 1323 735 l 1
 883 735 l 1
 883 588 l 1
 1107 588 l 1
 1107 455 l 2
 1107 199 1020 126 762 126 c 0
 506 126 385 199 385 455 c 2
 385 992 l 2
 385 1249 512 1332 766 1332 c 0
 1022 1332 1107 1249 1107 992 c 2
 1107 900 l 1
 1302 900 l 1
 1302 942 l 2
 1302 1248 1233 1483 766 1483 c 0
 281 1483 183 1261 183 955 c 2
 183 486 l 2
 183 185 279 -24 762 -24 c 0
721 -695 m 1
 779 -641 870 -498 870 -307 c 2
 870 -146 l 1
 636 -146 l 1
 636 -357 l 1
 754 -357 l 1
 754 -489 687 -596 640 -651 c 1
 721 -695 l 1
EndSplineSet
EndChar

StartChar: Gdotaccent
Encoding: 288 288 40
Width: 1516
VWidth: 0
Flags: W
PickledData: "(dp1
S'com.typemytype.robofont.layerData'
p2
(dp3
S'b'
(dp4
S'name'
p5
S'Gdotaccent'
p6
sS'lib'
p7
(dp8
sS'unicodes'
p9
(tsS'width'
p10
I1516
sS'contours'
p11
(tsS'components'
p12
(tsS'anchors'
p13
(tsss."
LayerCount: 2
Fore
SplineSet
762 -24 m 0
 1048 -24 1154 96 1188 216 c 1
 1232 0 l 1
 1323 0 l 1
 1323 735 l 1
 883 735 l 1
 883 588 l 1
 1107 588 l 1
 1107 455 l 2
 1107 199 1020 126 762 126 c 0
 506 126 385 199 385 455 c 2
 385 992 l 2
 385 1249 512 1332 766 1332 c 0
 1022 1332 1107 1249 1107 992 c 2
 1107 900 l 1
 1302 900 l 1
 1302 942 l 2
 1302 1248 1233 1483 766 1483 c 0
 281 1483 183 1261 183 955 c 2
 183 486 l 2
 183 185 279 -24 762 -24 c 0
626 1605 m 1
 880 1605 l 1
 880 1846 l 1
 626 1846 l 1
 626 1605 l 1
EndSplineSet
EndChar

StartChar: H
Encoding: 72 72 41
Width: 1536
VWidth: 0
Flags: W
PickledData: "(dp1
S'com.typemytype.robofont.layerData'
p2
(dp3
S'b'
(dp4
S'name'
p5
S'H'
sS'lib'
p6
(dp7
sS'unicodes'
p8
(tsS'width'
p9
I1536
sS'contours'
p10
(tsS'components'
p11
(tsS'anchors'
p12
(tsss."
LayerCount: 2
Fore
SplineSet
218 0 m 1
 419 0 l 1
 419 659 l 1
 1117 659 l 1
 1117 0 l 1
 1318 0 l 1
 1318 1446 l 1
 1117 1446 l 1
 1117 807 l 1
 419 807 l 1
 419 1446 l 1
 218 1446 l 1
 218 0 l 1
EndSplineSet
EndChar

StartChar: Hcircumflex
Encoding: 292 292 43
Width: 1543
VWidth: 0
Flags: W
PickledData: "(dp1
S'com.typemytype.robofont.layerData'
p2
(dp3
S'b'
(dp4
S'name'
p5
S'Hcircumflex'
p6
sS'lib'
p7
(dp8
sS'unicodes'
p9
(tsS'width'
p10
I1543
sS'contours'
p11
(tsS'components'
p12
(tsS'anchors'
p13
(tsss."
LayerCount: 2
Fore
SplineSet
231 0 m 1
 432 0 l 1
 432 659 l 1
 1111 659 l 1
 1111 0 l 1
 1312 0 l 1
 1312 1446 l 1
 1111 1446 l 1
 1111 807 l 1
 432 807 l 1
 432 1446 l 1
 231 1446 l 1
 231 0 l 1
485 1605 m 1
 646 1605 l 1
 778 1779 l 1
 902 1605 l 1
 1058 1605 l 1
 852 1871 l 1
 702 1871 l 1
 485 1605 l 1
EndSplineSet
EndChar

StartChar: I
Encoding: 73 73 44
Width: 1132
VWidth: 0
Flags: W
PickledData: "(dp1
S'com.typemytype.robofont.layerData'
p2
(dp3
S'b'
(dp4
S'name'
p5
S'I'
sS'lib'
p6
(dp7
sS'unicodes'
p8
(tsS'width'
p9
I1132
sS'contours'
p10
(tsS'components'
p11
(tsS'anchors'
p12
(tsss."
LayerCount: 2
Fore
SplineSet
190 0 m 1
 942 0 l 1
 942 150 l 1
 667 150 l 1
 667 1297 l 1
 942 1297 l 1
 942 1446 l 1
 190 1446 l 1
 190 1297 l 1
 466 1297 l 1
 466 150 l 1
 190 150 l 1
 190 0 l 1
EndSplineSet
EndChar

StartChar: Iacute
Encoding: 205 205 46
Width: 1133
VWidth: 0
Flags: W
PickledData: "(dp1
S'com.typemytype.robofont.layerData'
p2
(dp3
S'b'
(dp4
S'name'
p5
S'Iacute'
p6
sS'lib'
p7
(dp8
sS'unicodes'
p9
(tsS'width'
p10
I1133
sS'contours'
p11
(tsS'components'
p12
(tsS'anchors'
p13
(tsss."
LayerCount: 2
Fore
SplineSet
191 0 m 1
 942 0 l 1
 942 150 l 1
 667 150 l 1
 667 1297 l 1
 942 1297 l 1
 942 1446 l 1
 191 1446 l 1
 191 1297 l 1
 466 1297 l 1
 466 150 l 1
 191 150 l 1
 191 0 l 1
642 1605 m 1
 748 1605 l 1
 610 1946 l 1
 385 1946 l 1
 642 1605 l 1
EndSplineSet
EndChar

StartChar: Icircumflex
Encoding: 206 206 48
Width: 1133
VWidth: 0
Flags: W
PickledData: "(dp1
S'com.typemytype.robofont.layerData'
p2
(dp3
S'b'
(dp4
S'name'
p5
S'Icircumflex'
p6
sS'lib'
p7
(dp8
sS'unicodes'
p9
(tsS'width'
p10
I1133
sS'contours'
p11
(tsS'components'
p12
(tsS'anchors'
p13
(tsss."
LayerCount: 2
Fore
SplineSet
191 0 m 1
 942 0 l 1
 942 150 l 1
 667 150 l 1
 667 1297 l 1
 942 1297 l 1
 942 1446 l 1
 191 1446 l 1
 191 1297 l 1
 466 1297 l 1
 466 150 l 1
 191 150 l 1
 191 0 l 1
280 1605 m 1
 441 1605 l 1
 573 1779 l 1
 697 1605 l 1
 853 1605 l 1
 647 1871 l 1
 497 1871 l 1
 280 1605 l 1
EndSplineSet
EndChar

StartChar: Idieresis
Encoding: 207 207 49
Width: 1133
VWidth: 0
Flags: W
PickledData: "(dp1
S'com.typemytype.robofont.layerData'
p2
(dp3
S'b'
(dp4
S'name'
p5
S'Idieresis'
p6
sS'lib'
p7
(dp8
sS'unicodes'
p9
(tsS'width'
p10
I1133
sS'contours'
p11
(tsS'components'
p12
(tsS'anchors'
p13
(tsss."
LayerCount: 2
Fore
SplineSet
191 0 m 1
 942 0 l 1
 942 150 l 1
 667 150 l 1
 667 1297 l 1
 942 1297 l 1
 942 1446 l 1
 191 1446 l 1
 191 1297 l 1
 466 1297 l 1
 466 150 l 1
 191 150 l 1
 191 0 l 1
212 1605 m 1
 418 1605 l 1
 418 1786 l 1
 212 1786 l 1
 212 1605 l 1
715 1605 m 1
 921 1605 l 1
 921 1786 l 1
 715 1786 l 1
 715 1605 l 1
EndSplineSet
EndChar

StartChar: Igrave
Encoding: 204 204 51
Width: 1133
VWidth: 0
Flags: W
PickledData: "(dp1
S'com.typemytype.robofont.layerData'
p2
(dp3
S'b'
(dp4
S'name'
p5
S'Igrave'
p6
sS'lib'
p7
(dp8
sS'unicodes'
p9
(tsS'width'
p10
I1133
sS'contours'
p11
(tsS'components'
p12
(tsS'anchors'
p13
(tsss."
LayerCount: 2
Fore
SplineSet
191 0 m 1
 942 0 l 1
 942 150 l 1
 667 150 l 1
 667 1297 l 1
 942 1297 l 1
 942 1446 l 1
 191 1446 l 1
 191 1297 l 1
 466 1297 l 1
 466 150 l 1
 191 150 l 1
 191 0 l 1
642 1605 m 1
 748 1605 l 1
 610 1946 l 1
 385 1946 l 1
 642 1605 l 1
EndSplineSet
EndChar

StartChar: J
Encoding: 74 74 55
Width: 1206
VWidth: 0
Flags: W
PickledData: "(dp1
S'com.typemytype.robofont.layerData'
p2
(dp3
S'b'
(dp4
S'name'
p5
S'J'
sS'lib'
p6
(dp7
sS'unicodes'
p8
(tsS'width'
p9
I1206
sS'contours'
p10
(tsS'components'
p11
(tsS'anchors'
p12
(tsss."
LayerCount: 2
Fore
SplineSet
506 -17 m 0
 831 -17 988 157 988 431 c 2
 988 1446 l 1
 234 1446 l 1
 234 1281 l 1
 787 1281 l 1
 787 435 l 2
 787 248 691 148 500 148 c 0
 354 148 188 203 141 225 c 1
 86 70 l 1
 151 36 338 -17 506 -17 c 0
EndSplineSet
EndChar

StartChar: K
Encoding: 75 75 57
Width: 1418
VWidth: 0
Flags: W
PickledData: "(dp1
S'com.typemytype.robofont.layerData'
p2
(dp3
S'b'
(dp4
S'name'
p5
S'K'
sS'lib'
p6
(dp7
sS'unicodes'
p8
(tsS'width'
p9
I1418
sS'contours'
p10
(tsS'components'
p11
(tsS'anchors'
p12
(tsss."
LayerCount: 2
Fore
SplineSet
218 0 m 1
 419 0 l 1
 419 468 l 1
 637 690 l 1
 1127 0 l 1
 1350 0 l 1
 778 798 l 1
 1321 1446 l 1
 1103 1446 l 1
 875 1183 641 927 419 657 c 1
 419 1446 l 1
 218 1446 l 1
 218 0 l 1
EndSplineSet
EndChar

StartChar: L
Encoding: 76 76 59
Width: 1145
VWidth: 0
Flags: W
PickledData: "(dp1
S'com.typemytype.robofont.layerData'
p2
(dp3
S'b'
(dp4
S'name'
p5
S'L'
sS'lib'
p6
(dp7
sS'unicodes'
p8
(tsS'width'
p9
I1145
sS'contours'
p10
(tsS'components'
p11
(tsS'anchors'
p12
(tsss."
LayerCount: 2
Fore
SplineSet
218 0 m 1
 1068 0 l 1
 1068 155 l 1
 419 155 l 1
 419 1446 l 1
 218 1446 l 1
 218 0 l 1
EndSplineSet
EndChar

StartChar: M
Encoding: 77 77 65
Width: 1762
VWidth: 0
Flags: W
PickledData: "(dp1
S'com.typemytype.robofont.layerData'
p2
(dp3
S'b'
(dp4
S'name'
p5
S'M'
sS'lib'
p6
(dp7
sS'unicodes'
p8
(tsS'width'
p9
I1762
sS'contours'
p10
(tsS'components'
p11
(tsS'anchors'
p12
(tsss."
LayerCount: 2
Fore
SplineSet
218 0 m 1
 410 0 l 1
 410 1117 l 1
 808 458 l 1
 957 458 l 1
 1354 1121 l 1
 1354 0 l 1
 1544 0 l 1
 1544 1446 l 1
 1366 1446 l 1
 882 638 l 1
 403 1446 l 1
 218 1446 l 1
 218 0 l 1
EndSplineSet
EndChar

StartChar: N
Encoding: 78 78 66
Width: 1590
VWidth: 0
Flags: W
PickledData: "(dp1
S'com.typemytype.robofont.layerData'
p2
(dp3
S'b'
(dp4
S'name'
p5
S'N'
sS'lib'
p6
(dp7
sS'unicodes'
p8
(tsS'width'
p9
I1590
sS'contours'
p10
(tsS'components'
p11
(tsS'anchors'
p12
(tsss."
LayerCount: 2
Fore
SplineSet
218 0 m 1
 393 0 l 1
 393 1115 l 1
 1193 0 l 1
 1372 0 l 1
 1372 1446 l 1
 1197 1446 l 1
 1197 281 l 1
 371 1446 l 1
 218 1446 l 1
 218 0 l 1
EndSplineSet
EndChar

StartChar: O
Encoding: 79 79 71
Width: 1536
VWidth: 0
Flags: W
PickledData: "(dp1
S'com.typemytype.robofont.guides'
p2
(tsS'com.typemytype.robofont.layerData'
p3
(dp4
S'b'
(dp5
S'name'
p6
S'O'
sS'lib'
p7
(dp8
sS'unicodes'
p9
(tsS'width'
p10
I1536
sS'contours'
p11
(tsS'components'
p12
(tsS'anchors'
p13
(tsss."
LayerCount: 2
Fore
SplineSet
777 134 m 0
 521 134 388 199 388 455 c 2
 388 978 l 2
 388 1235 523 1312 777 1312 c 0
 1033 1312 1149 1235 1149 978 c 2
 1149 455 l 2
 1149 199 1035 134 777 134 c 0
777 -22 m 0
 1242 -22 1350 203 1350 500 c 2
 1350 928 l 2
 1350 1234 1244 1468 777 1468 c 0
 292 1468 186 1247 186 941 c 2
 186 486 l 2
 186 185 294 -22 777 -22 c 0
EndSplineSet
EndChar

StartChar: OE
Encoding: 338 338 72
Width: 1557
VWidth: 0
Flags: W
PickledData: "(dp1
S'com.typemytype.robofont.layerData'
p2
(dp3
S'b'
(dp4
S'name'
p5
S'OE'
p6
sS'lib'
p7
(dp8
sS'unicodes'
p9
(tsS'width'
p10
I1557
sS'contours'
p11
(tsS'components'
p12
(tsS'anchors'
p13
(tsss."
LayerCount: 2
Fore
SplineSet
775 0 m 2
 1399 0 l 1
 1399 150 l 1
 976 150 l 1
 976 664 l 1
 1329 664 l 1
 1329 814 l 1
 976 814 l 1
 976 1296 l 1
 1390 1296 l 1
 1390 1446 l 1
 775 1446 l 2
 290 1446 183 1224 183 918 c 2
 183 510 l 2
 183 209 292 0 775 0 c 2
775 150 m 1
 519 150 385 223 385 479 c 2
 385 955 l 2
 385 1212 521 1295 775 1295 c 1
 775 150 l 1
EndSplineSet
EndChar

StartChar: Oacute
Encoding: 211 211 73
Width: 1532
VWidth: 0
Flags: W
PickledData: "(dp1
S'com.typemytype.robofont.layerData'
p2
(dp3
S'b'
(dp4
S'name'
p5
S'Oacute'
p6
sS'lib'
p7
(dp8
sS'unicodes'
p9
(tsS'width'
p10
I1532
sS'contours'
p11
(tsS'components'
p12
(tsS'anchors'
p13
(tsss."
LayerCount: 2
Fore
SplineSet
775 126 m 0
 519 126 385 199 385 455 c 2
 385 992 l 2
 385 1249 521 1332 775 1332 c 0
 1031 1332 1148 1249 1148 992 c 2
 1148 455 l 2
 1148 199 1033 126 775 126 c 0
775 -24 m 0
 1240 -24 1349 203 1349 500 c 2
 1349 942 l 2
 1349 1248 1242 1483 775 1483 c 0
 290 1483 183 1261 183 955 c 2
 183 486 l 2
 183 185 292 -24 775 -24 c 0
841.5 1605 m 1
 947.5 1605 l 1
 809.5 1946 l 1
 584.5 1946 l 1
 841.5 1605 l 1
EndSplineSet
EndChar

StartChar: Ocircumflex
Encoding: 212 212 75
Width: 1532
VWidth: 0
Flags: W
PickledData: "(dp1
S'com.typemytype.robofont.layerData'
p2
(dp3
S'b'
(dp4
S'name'
p5
S'Ocircumflex'
p6
sS'lib'
p7
(dp8
sS'unicodes'
p9
(tsS'width'
p10
I1532
sS'contours'
p11
(tsS'components'
p12
(tsS'anchors'
p13
(tsss."
LayerCount: 2
Fore
SplineSet
479.5 1605 m 1
 640.5 1605 l 1
 772.5 1779 l 1
 896.5 1605 l 1
 1052.5 1605 l 1
 846.5 1871 l 1
 696.5 1871 l 1
 479.5 1605 l 1
775 126 m 0
 519 126 385 199 385 455 c 2
 385 992 l 2
 385 1249 521 1332 775 1332 c 0
 1031 1332 1148 1249 1148 992 c 2
 1148 455 l 2
 1148 199 1033 126 775 126 c 0
775 -24 m 0
 1240 -24 1349 203 1349 500 c 2
 1349 942 l 2
 1349 1248 1242 1483 775 1483 c 0
 290 1483 183 1261 183 955 c 2
 183 486 l 2
 183 185 292 -24 775 -24 c 0
EndSplineSet
EndChar

StartChar: Odieresis
Encoding: 214 214 76
Width: 1532
VWidth: 0
Flags: W
PickledData: "(dp1
S'com.typemytype.robofont.layerData'
p2
(dp3
S'b'
(dp4
S'name'
p5
S'Odieresis'
p6
sS'lib'
p7
(dp8
sS'unicodes'
p9
(tsS'width'
p10
I1532
sS'contours'
p11
(tsS'components'
p12
(tsS'anchors'
p13
(tsss."
LayerCount: 2
Fore
SplineSet
775 126 m 0
 519 126 385 199 385 455 c 2
 385 992 l 2
 385 1249 521 1332 775 1332 c 0
 1031 1332 1148 1249 1148 992 c 2
 1148 455 l 2
 1148 199 1033 126 775 126 c 0
775 -24 m 0
 1240 -24 1349 203 1349 500 c 2
 1349 942 l 2
 1349 1248 1242 1483 775 1483 c 0
 290 1483 183 1261 183 955 c 2
 183 486 l 2
 183 185 292 -24 775 -24 c 0
411.5 1605 m 1
 617.5 1605 l 1
 617.5 1786 l 1
 411.5 1786 l 1
 411.5 1605 l 1
914.5 1605 m 1
 1120.5 1605 l 1
 1120.5 1786 l 1
 914.5 1786 l 1
 914.5 1605 l 1
EndSplineSet
EndChar

StartChar: Ograve
Encoding: 210 210 77
Width: 1532
VWidth: 0
Flags: W
PickledData: "(dp1
S'com.typemytype.robofont.layerData'
p2
(dp3
S'b'
(dp4
S'name'
p5
S'Ograve'
p6
sS'lib'
p7
(dp8
sS'unicodes'
p9
(tsS'width'
p10
I1532
sS'contours'
p11
(tsS'components'
p12
(tsS'anchors'
p13
(tsss."
LayerCount: 2
Fore
SplineSet
775 126 m 0
 519 126 385 199 385 455 c 2
 385 992 l 2
 385 1249 521 1332 775 1332 c 0
 1031 1332 1148 1249 1148 992 c 2
 1148 455 l 2
 1148 199 1033 126 775 126 c 0
775 -24 m 0
 1240 -24 1349 203 1349 500 c 2
 1349 942 l 2
 1349 1248 1242 1483 775 1483 c 0
 290 1483 183 1261 183 955 c 2
 183 486 l 2
 183 185 292 -24 775 -24 c 0
841.5 1605 m 1
 947.5 1605 l 1
 809.5 1946 l 1
 584.5 1946 l 1
 841.5 1605 l 1
EndSplineSet
EndChar

StartChar: Oslash
Encoding: 216 216 80
Width: 1506
VWidth: 0
Flags: W
PickledData: "(dp1
S'com.typemytype.robofont.layerData'
p2
(dp3
S'b'
(dp4
S'name'
p5
S'Oslash'
p6
sS'lib'
p7
(dp8
sS'unicodes'
p9
(tsS'width'
p10
I1506
sS'contours'
p11
(tsS'components'
p12
(tsS'anchors'
p13
(tsss."
LayerCount: 2
Fore
SplineSet
775 126 m 0
 519 126 385 199 385 455 c 2
 385 992 l 2
 385 1249 521 1332 775 1332 c 0
 1031 1332 1148 1249 1148 992 c 2
 1148 455 l 2
 1148 199 1033 126 775 126 c 0
775 126 m 0
 519 126 385 199 385 455 c 2
 385 992 l 2
 385 1249 521 1332 775 1332 c 0
 1031 1332 1148 1249 1148 992 c 2
 1148 455 l 2
 1148 199 1033 126 775 126 c 0
775 126 m 0
 519 126 385 199 385 455 c 2
 385 992 l 2
 385 1249 521 1332 775 1332 c 0
 1031 1332 1148 1249 1148 992 c 2
 1148 455 l 2
 1148 199 1033 126 775 126 c 0
775 126 m 0
 519 126 385 199 385 455 c 2
 385 992 l 2
 385 1249 521 1332 775 1332 c 0
 1031 1332 1148 1249 1148 992 c 2
 1148 455 l 2
 1148 199 1033 126 775 126 c 0
775 126 m 0
 519 126 385 199 385 455 c 2
 385 992 l 2
 385 1249 521 1332 775 1332 c 0
 1031 1332 1148 1249 1148 992 c 2
 1148 455 l 2
 1148 199 1033 126 775 126 c 0
775 126 m 0
 519 126 385 199 385 455 c 2
 385 992 l 2
 385 1249 521 1332 775 1332 c 0
 1031 1332 1148 1249 1148 992 c 2
 1148 455 l 2
 1148 199 1033 126 775 126 c 0
775 126 m 0
 519 126 385 199 385 455 c 2
 385 992 l 2
 385 1249 521 1332 775 1332 c 0
 1031 1332 1148 1249 1148 992 c 2
 1148 455 l 2
 1148 199 1033 126 775 126 c 0
775 -24 m 0
 1240 -24 1349 203 1349 500 c 2
 1349 942 l 2
 1349 1248 1242 1483 775 1483 c 0
 290 1483 183 1261 183 955 c 2
 183 486 l 2
 183 185 292 -24 775 -24 c 0
775 -24 m 0
 1240 -24 1349 203 1349 500 c 2
 1349 942 l 2
 1349 1248 1242 1483 775 1483 c 0
 290 1483 183 1261 183 955 c 2
 183 486 l 2
 183 185 292 -24 775 -24 c 0
775 -24 m 0
 1240 -24 1349 203 1349 500 c 2
 1349 942 l 2
 1349 1248 1242 1483 775 1483 c 0
 290 1483 183 1261 183 955 c 2
 183 486 l 2
 183 185 292 -24 775 -24 c 0
775 -24 m 0
 1240 -24 1349 203 1349 500 c 2
 1349 942 l 2
 1349 1248 1242 1483 775 1483 c 0
 290 1483 183 1261 183 955 c 2
 183 486 l 2
 183 185 292 -24 775 -24 c 0
775 -24 m 0
 1240 -24 1349 203 1349 500 c 2
 1349 942 l 2
 1349 1248 1242 1483 775 1483 c 0
 290 1483 183 1261 183 955 c 2
 183 486 l 2
 183 185 292 -24 775 -24 c 0
775 -24 m 0
 1240 -24 1349 203 1349 500 c 2
 1349 942 l 2
 1349 1248 1242 1483 775 1483 c 0
 290 1483 183 1261 183 955 c 2
 183 486 l 2
 183 185 292 -24 775 -24 c 0
775 -24 m 0
 1240 -24 1349 203 1349 500 c 2
 1349 942 l 2
 1349 1248 1242 1483 775 1483 c 0
 290 1483 183 1261 183 955 c 2
 183 486 l 2
 183 185 292 -24 775 -24 c 0
479 -195 m 1
 1158 1638 l 1
 1054 1676 l 1
 376 -157 l 1
 479 -195 l 1
EndSplineSet
EndChar

StartChar: P
Encoding: 80 80 82
Width: 1326
VWidth: 0
Flags: W
PickledData: "(dp1
S'com.typemytype.robofont.layerData'
p2
(dp3
S'b'
(dp4
S'name'
p5
S'P'
sS'lib'
p6
(dp7
sS'unicodes'
p8
(tsS'width'
p9
I1326
sS'contours'
p10
((dp11
S'points'
p12
((dp13
S'segmentType'
p14
S'line'
p15
sS'x'
F433
sS'smooth'
p16
I00
sS'y'
F682
s(dp17
g14
S'line'
p18
sS'x'
F433
sg16
I00
sS'y'
F1293
s(dp19
g14
S'line'
p20
sS'x'
F814
sg16
I01
sS'y'
F1293
s(dp21
S'y'
F1293
sS'x'
F995
sg16
I00
s(dp22
S'y'
F1118
sS'x'
F1010
sg16
I00
s(dp23
g14
S'curve'
p24
sS'x'
F1010
sg16
I01
sS'y'
F1018
s(dp25
g14
S'line'
p26
sS'x'
F1010
sg16
I00
sS'y'
F976.5
s(dp27
g14
S'line'
p28
sS'x'
F1010
sg16
I00
sS'y'
F935
s(dp29
S'y'
F828
sS'x'
F1009
sg16
I00
s(dp30
S'y'
F682
sS'x'
F986
sg16
I00
s(dp31
g14
S'curve'
p32
sS'x'
F811
sg16
I01
sS'y'
F682
stp33
s(dp34
g12
((dp35
g14
S'line'
p36
sS'x'
F231
sg16
I00
sS'y'
F0
s(dp37
g14
S'line'
p38
sS'x'
F433
sg16
I00
sS'y'
F0
s(dp39
g14
S'line'
p40
sS'x'
F433
sg16
I00
sS'y'
F529
s(dp41
g14
S'line'
p42
sS'x'
F807
sg16
I01
sS'y'
F529
s(dp43
S'y'
F529
sS'x'
F1053
sg16
I00
s(dp44
S'y'
F645
sS'x'
F1212
sg16
I00
s(dp45
g14
S'curve'
p46
sS'x'
F1212
sg16
I01
sS'y'
F957
s(dp47
g14
S'line'
p48
sS'x'
F1212
sg16
I00
sS'y'
F990.5
s(dp49
g14
S'line'
p50
sS'x'
F1212
sg16
I01
sS'y'
F1024
s(dp51
S'y'
F1320
sS'x'
F1206
sg16
I00
s(dp52
S'y'
F1446
sS'x'
F1051
sg16
I00
s(dp53
g14
S'curve'
p54
sS'x'
F808
sg16
I01
sS'y'
F1446
s(dp55
g14
S'line'
p56
sS'x'
F231
sg16
I00
sS'y'
F1446
stp57
stp58
sS'components'
p59
(tsS'anchors'
p60
(tsss."
LayerCount: 2
Fore
SplineSet
218 0 m 1
 420 0 l 1
 420 529 l 1
 793 529 l 2
 1039 529 1198 645 1198 991 c 0
 1198 1320 1039 1446 796 1446 c 2
 218 1446 l 1
 218 0 l 1
420 682 m 1
 420 1293 l 1
 802 1293 l 2
 983 1293 996 1118 996 977 c 0
 996 828 972 682 797 682 c 2
 420 682 l 1
EndSplineSet
EndChar

StartChar: Q
Encoding: 81 81 83
Width: 1536
VWidth: 0
Flags: W
PickledData: "(dp1
S'com.typemytype.robofont.layerData'
p2
(dp3
S'b'
(dp4
S'name'
p5
S'Q'
sS'lib'
p6
(dp7
sS'unicodes'
p8
(tsS'width'
p9
I1536
sS'contours'
p10
(tsS'components'
p11
(tsS'anchors'
p12
(tsss."
LayerCount: 2
Fore
SplineSet
703 -3 m 1
 944 -384 l 1
 1085 -308 l 1
 883 2 l 1
 703 -3 l 1
EndSplineSet
Refer: 71 79 N 1 0 0 1 0 0 2
EndChar

StartChar: R
Encoding: 82 82 84
Width: 1474
VWidth: 0
Flags: W
PickledData: "(dp1
S'com.typemytype.robofont.layerData'
p2
(dp3
S'b'
(dp4
S'name'
p5
S'R'
sS'lib'
p6
(dp7
sS'unicodes'
p8
(tsS'width'
p9
I1474
sS'contours'
p10
((dp11
S'points'
p12
((dp13
S'segmentType'
p14
S'line'
p15
sS'x'
F433
sS'smooth'
p16
I00
sS'y'
F719
s(dp17
g14
S'line'
p18
sS'x'
F433
sg16
I00
sS'y'
F1293
s(dp19
g14
S'line'
p20
sS'x'
F881
sg16
I01
sS'y'
F1293
s(dp21
S'y'
F1293
sS'x'
F1062
sg16
I00
s(dp22
S'y'
F1118
sS'x'
F1077
sg16
I00
s(dp23
g14
S'curve'
p24
sS'x'
F1077
sg16
I01
sS'y'
F1018
s(dp25
g14
S'line'
p26
sS'x'
F1077
sg16
I00
sS'y'
F979.19364827899994
s(dp27
g14
S'line'
p28
sS'x'
F1077
sg16
I00
sS'y'
F947
s(dp29
S'y'
F840
sS'x'
F1076
sg16
I00
s(dp30
S'y'
F719
sS'x'
F1042
sg16
I00
s(dp31
g14
S'curve'
p32
sS'x'
F867
sg16
I01
sS'y'
F719
stp33
s(dp34
g12
((dp35
g14
S'line'
p36
sS'x'
F231
sg16
I00
sS'y'
F0
s(dp37
g14
S'line'
p38
sS'x'
F433
sg16
I00
sS'y'
F0
s(dp39
g14
S'line'
p40
sS'x'
F433
sg16
I00
sS'y'
F566
s(dp41
S'y'
F566
sS'x'
F433
sg16
I00
s(dp42
S'y'
F567
sS'x'
F886
sg16
I00
s(dp43
g14
S'curve'
p44
sS'x'
F897
sg16
I00
sS'y'
F567
s(dp45
g14
S'line'
p46
sS'x'
F1129
sg16
I00
sS'y'
F0
s(dp47
g14
S'line'
p48
sS'x'
F1341
sg16
I00
sS'y'
F0
s(dp49
g14
S'line'
p50
sS'x'
F1084
sg16
I00
sS'y'
F603
s(dp51
S'y'
F654
sS'x'
F1205
sg16
I00
s(dp52
S'y'
F763
sS'x'
F1279
sg16
I00
s(dp53
g14
S'curve'
p54
sS'x'
F1279
sg16
I01
sS'y'
F969
s(dp55
g14
S'line'
p56
sS'x'
F1279
sg16
I00
sS'y'
F996.5
s(dp57
g14
S'line'
p58
sS'x'
F1279
sg16
I01
sS'y'
F1024
s(dp59
S'y'
F1320
sS'x'
F1273
sg16
I00
s(dp60
S'y'
F1446
sS'x'
F1118
sg16
I00
s(dp61
g14
S'curve'
p62
sS'x'
F875
sg16
I01
sS'y'
F1446
s(dp63
g14
S'line'
p64
sS'x'
F231
sg16
I00
sS'y'
F1446
stp65
stp66
sS'components'
p67
(tsS'anchors'
p68
(tsss."
LayerCount: 2
Fore
SplineSet
218 0 m 1
 420 0 l 1
 420 566 l 1
 420 566 873 567 884 567 c 1
 1116 0 l 1
 1328 0 l 1
 1071 603 l 1
 1192 654 1266 763 1266 997 c 0
 1266 1320 1105 1446 862 1446 c 2
 218 1446 l 1
 218 0 l 1
420 719 m 1
 420 1293 l 1
 868 1293 l 2
 1049 1293 1064 1118 1064 979 c 0
 1064 840 1029 719 854 719 c 2
 420 719 l 1
EndSplineSet
EndChar

StartChar: S
Encoding: 83 83 88
Width: 1292
VWidth: 0
Flags: W
PickledData: "(dp1
S'com.typemytype.robofont.layerData'
p2
(dp3
S'b'
(dp4
S'name'
p5
S'S'
sS'lib'
p6
(dp7
sS'unicodes'
p8
(tsS'width'
p9
F1292.21257775
sS'contours'
p10
((dp11
S'points'
p12
((dp13
S'segmentType'
p14
S'line'
p15
sS'x'
F148
sS'smooth'
p16
I00
sS'y'
F159
s(dp17
S'y'
F65
sS'x'
F280
sg16
I00
s(dp18
S'y'
F-18
sS'x'
F480
sg16
I00
s(dp19
g14
S'curve'
p20
sS'x'
F665
sg16
I01
sS'y'
F-23
s(dp21
S'y'
F-27
sS'x'
F956
sg16
I00
s(dp22
S'y'
F132
sS'x'
F1162
sg16
I00
s(dp23
g14
S'curve'
p24
sS'x'
F1169
sg16
I01
sS'y'
F380
s(dp25
S'y'
F618
sS'x'
F1176
sg16
I00
s(dp26
S'y'
F687
sS'x'
F1008
sg16
I00
s(dp27
g14
S'curve'
p28
sS'x'
F833
sg16
I01
sS'y'
F776
s(dp29
g14
S'line'
p30
sS'x'
F559
sg16
I01
sS'y'
F915
s(dp31
S'y'
F999
sS'x'
F394
sg16
I00
s(dp32
S'y'
F1045
sS'x'
F363
sg16
I00
s(dp33
g14
S'curve'
p34
sS'x'
F372
sg16
I01
sS'y'
F1137
s(dp35
S'y'
F1239
sS'x'
F383
sg16
I00
s(dp36
S'y'
F1326
sS'x'
F476
sg16
I00
s(dp37
g14
S'curve'
p38
sS'x'
F675
sg16
I01
sS'y'
F1326
s(dp39
S'y'
F1326
sS'x'
F863
sg16
I00
s(dp40
S'y'
F1241
sS'x'
F984
sg16
I00
s(dp41
g14
S'curve'
p42
sS'x'
F1073
sg16
I00
sS'y'
F1180
s(dp43
g14
S'line'
p44
sS'x'
F1149
sg16
I00
sS'y'
F1324
s(dp45
S'y'
F1384
sS'x'
F1059
sg16
I00
s(dp46
S'y'
F1481
sS'x'
F907
sg16
I00
s(dp47
g14
S'curve'
p48
sS'x'
F660
sg16
I01
sS'y'
F1481
s(dp49
S'y'
F1481
sS'x'
F416
sg16
I00
s(dp50
S'y'
F1372
sS'x'
F185
sg16
I00
s(dp51
g14
S'curve'
p52
sS'x'
F176
sg16
I01
sS'y'
F1118
s(dp53
S'y'
F900
sS'x'
F168
sg16
I00
s(dp54
S'y'
F834
sS'x'
F321
sg16
I00
s(dp55
g14
S'curve'
p56
sS'x'
F497
sg16
I01
sS'y'
F744
s(dp57
g14
S'line'
p58
sS'x'
F756
sg16
I01
sS'y'
F612
s(dp59
S'y'
F523
sS'x'
F930
sg16
I00
s(dp60
S'y'
F483
sS'x'
F990
sg16
I00
s(dp61
g14
S'curve'
p62
sS'x'
F977
sg16
I01
sS'y'
F352
s(dp63
S'y'
F198
sS'x'
F961
sg16
I00
s(dp64
S'y'
F138
sS'x'
F841
sg16
I00
s(dp65
g14
S'curve'
p66
sS'x'
F671
sg16
I01
sS'y'
F138
s(dp67
S'y'
F138
sS'x'
F485
sg16
I00
s(dp68
S'y'
F241
sS'x'
F321
sg16
I00
s(dp69
g14
S'curve'
p70
sS'x'
F219
sg16
I00
sS'y'
F306
stp71
stp72
sS'components'
p73
(tsS'anchors'
p74
(tsss."
LayerCount: 2
Fore
SplineSet
665 -22 m 1
 956 -26 1161 132 1168 380 c 0
 1175 618 1008 687 833 776 c 2
 559 915 l 2
 394 999 364 1045 372 1137 c 0
 383 1260 496 1312 695 1312 c 0
 883 1312 995 1242 1089 1187 c 1
 1145 1340 l 1
 1052 1398 907 1468 660 1468 c 0
 416 1468 185 1372 176 1118 c 0
 168 900 321 834 497 744 c 2
 756 612 l 2
 930 523 989 483 976 352 c 0
 960 198 841 134 671 134 c 0
 485 134 321 225 219 290 c 1
 148 139 l 1
 280 45 480 -17 665 -22 c 1
EndSplineSet
EndChar

StartChar: T
Encoding: 84 84 94
Width: 1204
VWidth: 0
Flags: W
PickledData: "(dp1
S'com.typemytype.robofont.layerData'
p2
(dp3
S'b'
(dp4
S'name'
p5
S'T'
sS'lib'
p6
(dp7
sS'unicodes'
p8
(tsS'width'
p9
I1204
sS'contours'
p10
(tsS'components'
p11
(tsS'anchors'
p12
(tsss."
LayerCount: 2
Fore
SplineSet
501 0 m 1
 702 0 l 1
 702 1281 l 1
 1120 1281 l 1
 1120 1446 l 1
 84 1446 l 1
 84 1281 l 1
 501 1281 l 1
 501 0 l 1
EndSplineSet
EndChar

StartChar: Thorn
Encoding: 222 222 97
Width: 1351
VWidth: 0
Flags: W
PickledData: "(dp1
S'com.typemytype.robofont.layerData'
p2
(dp3
S'b'
(dp4
S'name'
p5
S'Thorn'
p6
sS'lib'
p7
(dp8
sS'unicodes'
p9
(tsS'width'
p10
I1351
sS'contours'
p11
(tsS'components'
p12
(tsS'anchors'
p13
(tsss."
LayerCount: 2
Fore
SplineSet
433 0 m 1
 433 331 l 1
 807 331 l 2
 1053 331 1212 427 1212 773 c 0
 1212 1102 1051 1208 808 1208 c 2
 433 1208 l 1
 433 1446 l 1
 231 1446 l 1
 231 0 l 1
 433 0 l 1
433 484 m 1
 433 1055 l 1
 814 1055 l 2
 995 1055 1010 900 1010 759 c 0
 1010 610 986 484 811 484 c 2
 433 484 l 1
EndSplineSet
EndChar

StartChar: U
Encoding: 85 85 98
Width: 1518
VWidth: 0
Flags: W
PickledData: "(dp1
S'com.typemytype.robofont.layerData'
p2
(dp3
S'b'
(dp4
S'name'
p5
S'U'
sS'lib'
p6
(dp7
sS'unicodes'
p8
(tsS'width'
p9
I1518
sS'contours'
p10
(tsS'components'
p11
(tsS'anchors'
p12
(tsss."
LayerCount: 2
Fore
SplineSet
769 -22 m 0
 1222 -22 1320 205 1320 473 c 2
 1320 1446 l 1
 1118 1446 l 1
 1118 452 l 2
 1118 186 972 134 769 134 c 0
 568 134 400 186 400 452 c 2
 400 1446 l 1
 198 1446 l 1
 198 473 l 2
 198 202 296 -22 769 -22 c 0
EndSplineSet
EndChar

StartChar: Uacute
Encoding: 218 218 99
Width: 1526
VWidth: 0
Flags: W
PickledData: "(dp1
S'com.typemytype.robofont.layerData'
p2
(dp3
S'b'
(dp4
S'name'
p5
S'Uacute'
p6
sS'lib'
p7
(dp8
sS'unicodes'
p9
(tsS'width'
p10
I1526
sS'contours'
p11
(tsS'components'
p12
(tsS'anchors'
p13
(tsss."
LayerCount: 2
Fore
SplineSet
773 -24 m 0
 1226 -24 1324 205 1324 473 c 2
 1324 1446 l 1
 1122 1446 l 1
 1122 452 l 2
 1122 186 976 132 773 132 c 0
 572 132 404 186 404 452 c 2
 404 1446 l 1
 202 1446 l 1
 202 473 l 2
 202 202 300 -24 773 -24 c 0
838.5 1605 m 1
 944.5 1605 l 1
 806.5 1946 l 1
 581.5 1946 l 1
 838.5 1605 l 1
EndSplineSet
EndChar

StartChar: Ucircumflex
Encoding: 219 219 101
Width: 1526
VWidth: 0
Flags: W
PickledData: "(dp1
S'com.typemytype.robofont.layerData'
p2
(dp3
S'b'
(dp4
S'name'
p5
S'Ucircumflex'
p6
sS'lib'
p7
(dp8
sS'unicodes'
p9
(tsS'width'
p10
I1526
sS'contours'
p11
(tsS'components'
p12
(tsS'anchors'
p13
(tsss."
LayerCount: 2
Fore
SplineSet
773 -24 m 0
 1226 -24 1324 205 1324 473 c 2
 1324 1446 l 1
 1122 1446 l 1
 1122 452 l 2
 1122 186 976 132 773 132 c 0
 572 132 404 186 404 452 c 2
 404 1446 l 1
 202 1446 l 1
 202 473 l 2
 202 202 300 -24 773 -24 c 0
476.5 1605 m 1
 637.5 1605 l 1
 769.5 1779 l 1
 893.5 1605 l 1
 1049.5 1605 l 1
 843.5 1871 l 1
 693.5 1871 l 1
 476.5 1605 l 1
EndSplineSet
EndChar

StartChar: Udieresis
Encoding: 220 220 102
Width: 1526
VWidth: 0
Flags: W
PickledData: "(dp1
S'com.typemytype.robofont.layerData'
p2
(dp3
S'b'
(dp4
S'name'
p5
S'Udieresis'
p6
sS'lib'
p7
(dp8
sS'unicodes'
p9
(tsS'width'
p10
I1526
sS'contours'
p11
(tsS'components'
p12
(tsS'anchors'
p13
(tsss."
LayerCount: 2
Fore
SplineSet
773 -24 m 0
 1226 -24 1324 205 1324 473 c 2
 1324 1446 l 1
 1122 1446 l 1
 1122 452 l 2
 1122 186 976 132 773 132 c 0
 572 132 404 186 404 452 c 2
 404 1446 l 1
 202 1446 l 1
 202 473 l 2
 202 202 300 -24 773 -24 c 0
408.5 1605 m 1
 614.5 1605 l 1
 614.5 1786 l 1
 408.5 1786 l 1
 408.5 1605 l 1
911.5 1605 m 1
 1117.5 1605 l 1
 1117.5 1786 l 1
 911.5 1786 l 1
 911.5 1605 l 1
EndSplineSet
EndChar

StartChar: Ugrave
Encoding: 217 217 103
Width: 1526
VWidth: 0
Flags: W
PickledData: "(dp1
S'com.typemytype.robofont.layerData'
p2
(dp3
S'b'
(dp4
S'name'
p5
S'Ugrave'
p6
sS'lib'
p7
(dp8
sS'unicodes'
p9
(tsS'width'
p10
I1526
sS'contours'
p11
(tsS'components'
p12
(tsS'anchors'
p13
(tsss."
LayerCount: 2
Fore
SplineSet
773 -24 m 0
 1226 -24 1324 205 1324 473 c 2
 1324 1446 l 1
 1122 1446 l 1
 1122 452 l 2
 1122 186 976 132 773 132 c 0
 572 132 404 186 404 452 c 2
 404 1446 l 1
 202 1446 l 1
 202 473 l 2
 202 202 300 -24 773 -24 c 0
838.5 1605 m 1
 944.5 1605 l 1
 806.5 1946 l 1
 581.5 1946 l 1
 838.5 1605 l 1
EndSplineSet
EndChar

StartChar: V
Encoding: 86 86 109
Width: 1386
VWidth: 0
Flags: W
PickledData: "(dp1
S'com.typemytype.robofont.layerData'
p2
(dp3
S'b'
(dp4
S'name'
p5
S'V'
sS'lib'
p6
(dp7
sS'unicodes'
p8
(tsS'width'
p9
I1386
sS'contours'
p10
(tsS'components'
p11
(tsS'anchors'
p12
(tsss."
LayerCount: 2
Fore
SplineSet
602 0 m 1
 779 0 l 1
 1300 1446 l 1
 1091 1446 l 1
 692 294 l 1
 293 1446 l 1
 86 1446 l 1
 602 0 l 1
EndSplineSet
EndChar

StartChar: W
Encoding: 87 87 110
Width: 2048
VWidth: 0
Flags: W
PickledData: "(dp1
S'com.typemytype.robofont.layerData'
p2
(dp3
S'b'
(dp4
S'name'
p5
S'W'
sS'lib'
p6
(dp7
sS'unicodes'
p8
(tsS'width'
p9
I2048
sS'contours'
p10
(tsS'components'
p11
(tsS'anchors'
p12
(tsss."
LayerCount: 2
Fore
SplineSet
522 0 m 1
 674 0 l 1
 1037 1232 l 1
 1390 0 l 1
 1542 0 l 1
 1936 1446 l 1
 1753 1446 l 1
 1462 346 l 1
 1133 1446 l 1
 918 1446 l 1
 603 346 l 1
 296 1446 l 1
 112 1446 l 1
 522 0 l 1
EndSplineSet
EndChar

StartChar: X
Encoding: 88 88 115
Width: 1336
VWidth: 0
Flags: W
PickledData: "(dp1
S'com.typemytype.robofont.layerData'
p2
(dp3
S'b'
(dp4
S'name'
p5
S'X'
sS'lib'
p6
(dp7
sS'unicodes'
p8
(tsS'width'
p9
I1336
sS'contours'
p10
(tsS'components'
p11
(tsS'anchors'
p12
(tsss."
LayerCount: 2
Fore
SplineSet
94 0 m 1
 306 0 l 1
 667 568 l 1
 1024 0 l 1
 1242 0 l 1
 773 734 l 1
 1227 1446 l 1
 1010 1446 l 1
 669 898 l 1
 319 1446 l 1
 116 1446 l 1
 565 731 l 1
 94 0 l 1
EndSplineSet
EndChar

StartChar: Y
Encoding: 89 89 116
Width: 1318
VWidth: 0
Flags: W
PickledData: "(dp1
S'com.typemytype.robofont.layerData'
p2
(dp3
S'b'
(dp4
S'name'
p5
S'Y'
sS'lib'
p6
(dp7
sS'unicodes'
p8
(tsS'width'
p9
I1318
sS'contours'
p10
(tsS'components'
p11
(tsS'anchors'
p12
(tsss."
LayerCount: 2
Fore
SplineSet
560 0 m 1
 761 0 l 1
 761 568 l 1
 1258 1446 l 1
 1054 1446 l 1
 661 744 l 1
 270 1446 l 1
 60 1446 l 1
 560 568 l 1
 560 0 l 1
EndSplineSet
EndChar

StartChar: Yacute
Encoding: 221 221 117
Width: 1318
VWidth: 0
Flags: W
PickledData: "(dp1
S'com.typemytype.robofont.layerData'
p2
(dp3
S'b'
(dp4
S'name'
p5
S'Yacute'
p6
sS'lib'
p7
(dp8
sS'unicodes'
p9
(tsS'width'
p10
I1318
sS'contours'
p11
(tsS'components'
p12
(tsS'anchors'
p13
(tsss."
LayerCount: 2
Fore
SplineSet
572 0 m 1
 773 0 l 1
 773 568 l 1
 1261 1446 l 1
 1066 1446 l 1
 673 744 l 1
 266 1446 l 1
 65 1446 l 1
 572 568 l 1
 572 0 l 1
738.5 1605 m 1
 844.5 1605 l 1
 706.5 1946 l 1
 481.5 1946 l 1
 738.5 1605 l 1
EndSplineSet
EndChar

StartChar: Ydieresis
Encoding: 376 376 119
Width: 1093
VWidth: 0
Flags: W
PickledData: "(dp1
S'com.typemytype.robofont.layerData'
p2
(dp3
S'b'
(dp4
S'name'
p5
S'Ydieresis'
p6
sS'lib'
p7
(dp8
sS'unicodes'
p9
(tsS'width'
p10
I1093
sS'contours'
p11
(tsS'components'
p12
(tsS'anchors'
p13
(tsss."
LayerCount: 2
Fore
SplineSet
313 0 m 1
 624 0 l 1
 624 504 l 1
 1093 1459 l 1
 781 1459 l 1
 706 1289 620 1003 545 833 c 1
 327 1459 l 1
 0 1459 l 1
 313 504 l 1
 313 0 l 1
184 1596 m 1
 450 1596 l 1
 450 1826 l 1
 184 1826 l 1
 184 1596 l 1
643 1596 m 1
 910 1596 l 1
 910 1826 l 1
 643 1826 l 1
 643 1596 l 1
EndSplineSet
EndChar

StartChar: Z
Encoding: 90 90 121
Width: 1242
VWidth: 0
Flags: W
PickledData: "(dp1
S'com.typemytype.robofont.layerData'
p2
(dp3
S'b'
(dp4
S'name'
p5
S'Z'
sS'lib'
p6
(dp7
sS'unicodes'
p8
(tsS'width'
p9
I1242
sS'contours'
p10
(tsS'components'
p11
(tsS'anchors'
p12
(tsss."
LayerCount: 2
Fore
SplineSet
180 0 m 1
 1096 0 l 1
 1096 165 l 1
 402 165 l 1
 1083 1295 l 1
 1083 1446 l 1
 211 1446 l 1
 211 1281 l 1
 862 1281 l 1
 180 150 l 1
 180 0 l 1
EndSplineSet
EndChar

StartChar: a
Encoding: 97 97 125
Width: 1172
VWidth: 0
Flags: W
PickledData: "(dp1
S'com.typemytype.robofont.layerData'
p2
(dp3
S'b'
(dp4
S'name'
p5
S'a'
sS'lib'
p6
(dp7
sS'unicodes'
p8
(tsS'width'
p9
I1172
sS'contours'
p10
(tsS'components'
p11
(tsS'anchors'
p12
(tsss."
LayerCount: 2
Fore
SplineSet
467 -20 m 0
 662 -20 751 70 798 142 c 1
 830 42 875 -8 1016 -8 c 2
 1054 -8 l 1
 1076 136 l 1
 985 136 965 156 965 268 c 2
 965 720 l 2
 965 938 868 1080 588 1080 c 0
 310 1080 170 988 170 779 c 2
 170 731 l 1
 351 731 l 1
 351 778 l 2
 351 863 369 940 582 940 c 0
 774 940 777 844 777 753 c 0
 777 647 655 626 535 597 c 0
 189 514 128 423 128 283 c 0
 128 120 242 -20 467 -20 c 0
496 113 m 0
 393 113 316 160 310 266 c 0
 304 368 334 421 550 477 c 0
 686 512 748 547 777 576 c 1
 777 273 l 1
 747 175 609 113 496 113 c 0
EndSplineSet
EndChar

StartChar: abreve
Encoding: 259 259 127
Width: 1169
VWidth: 0
Flags: W
PickledData: "(dp1
S'com.typemytype.robofont.layerData'
p2
(dp3
S'b'
(dp4
S'name'
p5
S'abreve'
p6
sS'lib'
p7
(dp8
sS'unicodes'
p9
(tsS'width'
p10
I1169
sS'contours'
p11
(tsS'components'
p12
(tsS'anchors'
p13
(tsss."
LayerCount: 2
Fore
SplineSet
480 -20 m 0
 675 -20 764 70 811 142 c 1
 843 42 888 -12 1029 -12 c 0
 1046 -12 1095 -10 1109 -8 c 1
 1109 128 l 1
 998 128 978 165 978 268 c 2
 978 699 l 2
 978 917 881 1080 601 1080 c 0
 323 1080 183 955 183 746 c 2
 183 718 l 1
 364 718 l 1
 364 745 l 2
 364 830 382 940 595 940 c 0
 787 940 790 830 790 753 c 0
 790 647 668 626 548 597 c 0
 202 514 142 423 142 283 c 0
 142 120 255 -20 480 -20 c 0
625 1202 m 0
 764 1202 852 1299 852 1414 c 1
 746 1414 l 1
 746 1345 698 1298 625 1298 c 0
 556 1298 504 1348 504 1414 c 1
 399 1414 l 1
 399 1299 486 1202 625 1202 c 0
509 113 m 0
 406 113 330 160 324 266 c 0
 318 368 347 421 563 477 c 0
 699 512 761 547 790 576 c 1
 790 273 l 1
 760 175 622 113 509 113 c 0
EndSplineSet
EndChar

StartChar: acute
Encoding: 180 180 129
Width: 616
VWidth: 0
Flags: W
PickledData: "(dp1
S'com.typemytype.robofont.layerData'
p2
(dp3
S'b'
(dp4
S'name'
p5
S'grave'
p6
sS'lib'
p7
(dp8
sS'unicodes'
p9
(tsS'width'
p10
I616
sS'contours'
p11
((dp12
S'points'
p13
((dp14
S'segmentType'
p15
S'line'
p16
sS'x'
F372
sS'smooth'
p17
I00
sS'y'
F1165
s(dp18
g15
S'line'
p19
sS'x'
F478
sg17
I00
sS'y'
F1165
s(dp20
g15
S'line'
p21
sS'x'
F340
sg17
I00
sS'y'
F1506
s(dp22
g15
S'line'
p23
sS'x'
F115
sg17
I00
sS'y'
F1506
stp24
stp25
sS'components'
p26
(tsS'anchors'
p27
(tsss."
LayerCount: 2
Fore
SplineSet
133 1165 m 1
 239 1165 l 1
 478 1506 l 1
 253 1506 l 1
 133 1165 l 1
EndSplineSet
EndChar

StartChar: ae
Encoding: 230 230 131
Width: 1741
VWidth: 0
Flags: W
PickledData: "(dp1
S'com.typemytype.robofont.layerData'
p2
(dp3
S'b'
(dp4
S'name'
p5
S'ae'
p6
sS'lib'
p7
(dp8
sS'unicodes'
p9
(tsS'width'
p10
I1741
sS'contours'
p11
(tsS'components'
p12
(tsS'anchors'
p13
(tsss."
LayerCount: 2
Fore
SplineSet
469 -20 m 0
 656 -20 787 48 878 158 c 1
 920 55 996 -20 1189 -20 c 0
 1479 -20 1582 60 1603 318 c 1
 1433 318 l 1
 1420 135 1355 121 1189 121 c 0
 1042 121 973 186 973 328 c 2
 973 511 l 1
 1609 511 l 1
 1609 758 l 2
 1609 959 1473 1080 1197 1080 c 0
 1052 1080 949 1037 887 939 c 1
 850 1035 728 1080 590 1080 c 0
 312 1080 172 955 172 746 c 2
 172 718 l 1
 353 718 l 1
 353 745 l 2
 353 830 371 940 584 940 c 0
 776 940 785 830 785 753 c 2
 785 635 l 1
 184 597 131 453.347616784 131 283 c 0
 131 120 244 -20 469 -20 c 0
498 113 m 0
 395 113 319 160 313 266 c 0
 307 368 347 455 569 487 c 1
 785 517 l 1
 785 273 l 1
 755 175 611 113 498 113 c 0
973 633 m 1
 973 760 l 2
 973 891 1046 938 1196 938 c 0
 1341 938 1437 906 1437 778 c 2
 1437 633 l 1
 973 633 l 1
EndSplineSet
EndChar

StartChar: amacron
Encoding: 257 257 133
Width: 1169
VWidth: 0
Flags: W
PickledData: "(dp1
S'com.typemytype.robofont.layerData'
p2
(dp3
S'b'
(dp4
S'name'
p5
S'amacron'
p6
sS'lib'
p7
(dp8
sS'unicodes'
p9
(tsS'width'
p10
I1169
sS'contours'
p11
(tsS'components'
p12
(tsS'anchors'
p13
(tsss."
LayerCount: 2
Fore
SplineSet
480 -20 m 0
 675 -20 764 70 811 142 c 1
 843 42 888 -12 1029 -12 c 0
 1046 -12 1095 -10 1109 -8 c 1
 1109 128 l 1
 998 128 978 165 978 268 c 2
 978 699 l 2
 978 917 881 1080 601 1080 c 0
 323 1080 183 955 183 746 c 2
 183 718 l 1
 364 718 l 1
 364 745 l 2
 364 830 382 940 595 940 c 0
 787 940 790 830 790 753 c 0
 790 647 668 626 548 597 c 0
 202 514 142 423 142 283 c 0
 142 120 255 -20 480 -20 c 0
509 113 m 0
 406 113 330 160 324 266 c 0
 318 368 347 421 563 477 c 0
 699 512 761 547 790 576 c 1
 790 273 l 1
 760 175 622 113 509 113 c 0
425 1202 m 1
 826 1202 l 1
 826 1354 l 1
 425 1354 l 1
 425 1202 l 1
EndSplineSet
EndChar

StartChar: ampersand
Encoding: 38 38 134
Width: 1500
VWidth: 0
Flags: W
PickledData: "(dp1
S'com.typemytype.robofont.layerData'
p2
(dp3
S'b'
(dp4
S'name'
p5
S'S'
sS'lib'
p6
(dp7
sS'unicodes'
p8
(tsS'width'
p9
I1500
sS'contours'
p10
((dp11
S'points'
p12
((dp13
S'segmentType'
p14
S'line'
p15
sS'x'
F1339
sS'smooth'
p16
I00
sS'y'
F112
s(dp17
g14
S'line'
p18
sS'x'
F578
sg16
I01
sS'y'
F787
s(dp19
S'y'
F897
sS'x'
F454
sg16
I00
s(dp20
S'y'
F1010
sS'x'
F401
sg16
I00
s(dp21
g14
S'curve'
p22
sS'x'
F421
sg16
I01
sS'y'
F1137
s(dp23
S'y'
F1259
sS'x'
F440
sg16
I00
s(dp24
S'y'
F1331
sS'x'
F505
sg16
I00
s(dp25
g14
S'curve'
p26
sS'x'
F704
sg16
I01
sS'y'
F1331
s(dp27
S'y'
F1331
sS'x'
F892
sg16
I00
s(dp28
S'y'
F1281
sS'x'
F994
sg16
I00
s(dp29
g14
S'curve'
p30
sS'x'
F1058
sg16
I00
sS'y'
F1246
s(dp31
g14
S'line'
p32
sS'x'
F1114
sg16
I00
sS'y'
F1375
s(dp33
S'y'
F1422
sS'x'
F1035
sg16
I00
s(dp34
S'y'
F1483
sS'x'
F916
sg16
I00
s(dp35
g14
S'curve'
p36
sS'x'
F669
sg16
I01
sS'y'
F1483
s(dp37
S'y'
F1483
sS'x'
F425
sg16
I00
s(dp38
S'y'
F1372
sS'x'
F242
sg16
I00
s(dp39
g14
S'curve'
p40
sS'x'
F225
sg16
I01
sS'y'
F1118
s(dp41
S'y'
F900
sS'x'
F210
sg16
I00
s(dp42
S'y'
F766
sS'x'
F357
sg16
I00
s(dp43
g14
S'curve'
p44
sS'x'
F516
sg16
I01
sS'y'
F624
s(dp45
g14
S'line'
p46
sS'x'
F1236
sg16
I00
sS'y'
F-19
stp47
stp48
sS'components'
p49
(tsS'anchors'
p50
(tsss."
LayerCount: 2
Fore
SplineSet
1432 94 m 1
 578 907 l 1
 487 1002 454 1048 454 1126 c 0
 454 1242 494 1331 704 1331 c 0
 892 1331 958 1302 958 1164 c 2
 958 1104 l 1
 1124 1104 l 1
 1124 1205 l 2
 1124 1441 976 1483 689 1483 c 0
 355 1483 264 1323 264 1142 c 0
 264 953 370 882 516 744 c 2
 1328 -19 l 1
 1432 94 l 1
720 -24 m 0
 1249 -24 1276 203 1276 500 c 2
 1276 778 l 1
 1101 778 l 1
 1101 455 l 2
 1101 148 1003 126 720 126 c 0
 464 126 378 239 378 445 c 0
 378 580 391 704 590 734 c 1
 515 834 l 1
 262 786 176 664 176 439 c 0
 176 198 277 -24 720 -24 c 0
EndSplineSet
EndChar

StartChar: asciicircum
Encoding: 94 94 138
Width: 1257
VWidth: 0
Flags: W
PickledData: "(dp1
S'com.typemytype.robofont.layerData'
p2
(dp3
S'b'
(dp4
S'name'
p5
S'asciicircum'
p6
sS'lib'
p7
(dp8
sS'unicodes'
p9
(tsS'width'
p10
I1257
sS'contours'
p11
(tsS'components'
p12
(tsS'anchors'
p13
(tsss."
LayerCount: 2
Fore
SplineSet
154 626 m 1
 348 626 l 1
 628 1161 l 1
 910 626 l 1
 1103 626 l 1
 735 1283 l 1
 513 1283 l 1
 154 626 l 1
EndSplineSet
EndChar

StartChar: asterisk
Encoding: 42 42 139
Width: 1024
VWidth: 0
Flags: W
PickledData: "(dp1
S'com.typemytype.robofont.layerData'
p2
(dp3
S'b'
(dp4
S'name'
p5
S'asterisk'
p6
sS'lib'
p7
(dp8
sS'unicodes'
p9
(tsS'width'
p10
I1024
sS'contours'
p11
(tsS'components'
p12
(tsS'anchors'
p13
(tsss."
LayerCount: 2
Fore
SplineSet
423 599 m 1
 601 599 l 1
 572 912 l 1
 819 722 l 1
 914 875 l 1
 634 1017 l 1
 925 1134 l 1
 844 1295 l 1
 571 1121 l 1
 601 1446 l 1
 423 1446 l 1
 451 1133 l 1
 204 1323 l 1
 109 1170 l 1
 389 1028 l 1
 99 911 l 1
 179 750 l 1
 452 924 l 1
 423 599 l 1
EndSplineSet
EndChar

StartChar: at
Encoding: 64 64 140
Width: 1721
VWidth: 0
Flags: W
PickledData: "(dp1
S'com.typemytype.robofont.layerData'
p2
(dp3
S'b'
(dp4
S'name'
p5
S'at'
p6
sS'lib'
p7
(dp8
sS'unicodes'
p9
(tsS'width'
p10
F1721
sS'contours'
p11
(tsS'components'
p12
(tsS'anchors'
p13
(tsss."
LayerCount: 2
Fore
SplineSet
925 -258 m 0
 1148 -258 1377 -207 1492 -158 c 1
 1442 -17 l 1
 1341 -61 1140 -111 925 -111 c 0
 590 -111 373 13 373 298 c 2
 373 936 l 2
 373 1222 550 1331 883 1331 c 0
 1282 1331 1318 1180 1318 955 c 1
 1317 955 1151 915 1018 883 c 0
 632 790 565 689 565 533 c 0
 565 351 691 195 942 195 c 0
 1159 195 1289 296 1342 376 c 1
 1367 294 1396 212 1553 212 c 2
 1593 212 l 1
 1613 360 l 1
 1489 360 1497 401 1497 516 c 2
 1497 963 l 2
 1497 1153 1502 1483 883 1483 c 0
 342 1483 183 1236 183 895 c 2
 183 332 l 2
 183 -3 387 -258 925 -258 c 0
974 343 m 0
 859 343 775 396 768 514 c 0
 761 627 794 687 1034 749 c 0
 1186 788 1300 816 1318 825 c 1
 1318 522 l 1
 1285 412 1100 343 974 343 c 0
EndSplineSet
EndChar

StartChar: b
Encoding: 98 98 142
Width: 1200
VWidth: 0
Flags: W
PickledData: "(dp1
S'com.typemytype.robofont.layerData'
p2
(dp3
S'b'
(dp4
S'name'
p5
S'b'
sS'lib'
p6
(dp7
sS'unicodes'
p8
(tsS'width'
p9
I1200
sS'contours'
p10
(tsS'components'
p11
(tsS'anchors'
p12
(tsss."
LayerCount: 2
Fore
SplineSet
624 -16 m 0
 900 -16 1052 139 1052 352 c 2
 1052 736 l 2
 1052 940 919 1084 648 1084 c 0
 549 1084 442 1053 374 1014 c 1
 374 1506 l 1
 186 1506 l 1
 186 0 l 1
 325 0 l 1
 349 71 l 1
 405 36 498 -16 624 -16 c 0
596 125 m 0
 507 125 429 157 374 188 c 1
 374 874 l 1
 444 906 551 942 639 942 c 0
 777 942 864 877 864 750 c 2
 864 332 l 2
 864 202 744 125 596 125 c 0
EndSplineSet
EndChar

StartChar: backslash
Encoding: 92 92 143
Width: 979
VWidth: 0
Flags: W
PickledData: "(dp1
S'com.typemytype.robofont.layerData'
p2
(dp3
S'b'
(dp4
S'name'
p5
S'backslash'
p6
sS'lib'
p7
(dp8
sS'unicodes'
p9
(tsS'width'
p10
I979
sS'contours'
p11
(tsS'components'
p12
(tsS'anchors'
p13
(tsss."
LayerCount: 2
Fore
SplineSet
125 0 m 1
 320 0 l 1
 858 1446 l 1
 665 1446 l 1
 125 0 l 1
EndSplineSet
EndChar

StartChar: bar
Encoding: 124 124 144
Width: 666
VWidth: 0
Flags: W
PickledData: "(dp1
S'com.typemytype.robofont.layerData'
p2
(dp3
S'b'
(dp4
S'name'
p5
S'bar'
p6
sS'lib'
p7
(dp8
sS'unicodes'
p9
(tsS'width'
p10
I666
sS'contours'
p11
(tsS'components'
p12
(tsS'anchors'
p13
(tsss."
LayerCount: 2
Fore
SplineSet
254 -167 m 1
 432 -167 l 1
 432 1555 l 1
 254 1555 l 1
 254 -167 l 1
EndSplineSet
EndChar

StartChar: braceleft
Encoding: 123 123 145
Width: 1024
VWidth: 0
Flags: W
PickledData: "(dp1
S'com.typemytype.robofont.layerData'
p2
(dp3
S'b'
(dp4
S'name'
p5
S'parenleft'
p6
sS'lib'
p7
(dp8
sS'unicodes'
p9
(tsS'width'
p10
I1024
sS'contours'
p11
(tsS'components'
p12
(tsS'anchors'
p13
(tsss."
LayerCount: 2
Fore
SplineSet
663 963 m 2
 663 1096 l 2
 663 1353 657 1416 951 1416 c 1
 951 1567 l 1
 466 1567 471 1395 471 1089 c 2
 471 966 l 2
 471 669 471 606 243 606 c 1
 243 455 l 1
 664 455 663 657 663 963 c 2
EndSplineSet
EndChar

StartChar: bracketleft
Encoding: 91 91 147
Width: 768
VWidth: 0
Flags: W
PickledData: "(dp1
S'com.typemytype.robofont.layerData'
p2
(dp3
S'b'
(dp4
S'name'
p5
S'bracketleft'
p6
sS'lib'
p7
(dp8
sS'unicodes'
p9
(tsS'width'
p10
I768
sS'contours'
p11
(tsS'components'
p12
(tsS'anchors'
p13
(tsss."
LayerCount: 2
Fore
SplineSet
195 -76 m 1
 573 -76 l 1
 573 58 l 1
 383 58 l 1
 383 1396 l 1
 573 1396 l 1
 573 1529 l 1
 195 1529 l 1
 195 -76 l 1
EndSplineSet
EndChar

StartChar: bracketright
Encoding: 93 93 148
Width: 768
VWidth: 0
Flags: W
PickledData: "(dp1
S'com.typemytype.robofont.layerData'
p2
(dp3
S'b'
(dp4
S'name'
p5
S'bracketright'
p6
sS'lib'
p7
(dp8
sS'unicodes'
p9
(tsS'width'
p10
I768
sS'contours'
p11
(tsS'components'
p12
(tsS'anchors'
p13
(tsss."
LayerCount: 2
Fore
SplineSet
573 1529 m 1
 195 1529 l 1
 195 1395 l 1
 385 1395 l 1
 385 57 l 1
 195 57 l 1
 195 -76 l 1
 573 -76 l 1
 573 1529 l 1
EndSplineSet
EndChar

StartChar: breve
Encoding: 728 728 149
Width: 512
VWidth: 0
Flags: W
PickledData: "(dp1
S'com.typemytype.robofont.layerData'
p2
(dp3
S'b'
(dp4
S'name'
p5
S'breve'
p6
sS'lib'
p7
(dp8
sS'unicodes'
p9
(tsS'width'
p10
I512
sS'contours'
p11
(tsS'components'
p12
(tsS'anchors'
p13
(tsss."
LayerCount: 2
Fore
SplineSet
256 1294 m 0
 395 1294 482 1391 482 1506 c 1
 377 1506 l 1
 377 1437 329 1390 256 1390 c 0
 187 1390 135 1440 135 1506 c 1
 30 1506 l 1
 30 1391 117 1294 256 1294 c 0
EndSplineSet
EndChar

StartChar: brokenbar
Encoding: 166 166 150
Width: 674
VWidth: 0
Flags: W
PickledData: "(dp1
S'com.typemytype.robofont.layerData'
p2
(dp3
S'b'
(dp4
S'name'
p5
S'brokenbar'
p6
sS'lib'
p7
(dp8
sS'unicodes'
p9
(tsS'width'
p10
I674
sS'contours'
p11
(tsS'components'
p12
(tsS'anchors'
p13
(tsss."
LayerCount: 2
Fore
SplineSet
254 -167 m 1
 432 -167 l 1
 432 513 l 1
 254 513 l 1
 254 -167 l 1
254 848 m 1
 432 848 l 1
 432 1555 l 1
 254 1555 l 1
 254 848 l 1
EndSplineSet
EndChar

StartChar: bullet
Encoding: 8226 8226 151
Width: 975
VWidth: 0
Flags: W
PickledData: "(dp1
S'com.typemytype.robofont.layerData'
p2
(dp3
S'b'
(dp4
S'name'
p5
S'bullet'
p6
sS'lib'
p7
(dp8
sS'unicodes'
p9
(tsS'width'
p10
I975
sS'contours'
p11
(tsS'components'
p12
(tsS'anchors'
p13
(tsss."
LayerCount: 2
Fore
SplineSet
486 298 m 0
 713 298 795 405 795 599 c 0
 795 795 714 901 487 901 c 0
 262 901 180 795 180 599 c 0
 180 404 260 298 486 298 c 0
EndSplineSet
EndChar

StartChar: c
Encoding: 99 99 152
Width: 1108
VWidth: 0
Flags: W
PickledData: "(dp1
S'com.typemytype.robofont.layerData'
p2
(dp3
S'b'
(dp4
S'name'
p5
S'c'
sS'lib'
p6
(dp7
sS'unicodes'
p8
(tsS'width'
p9
I1108
sS'contours'
p10
((dp11
S'points'
p12
((dp13
S'segmentType'
p14
S'curve'
p15
sS'x'
F579
sS'smooth'
p16
I01
sS'y'
F-20
s(dp17
S'y'
F-20
sS'x'
F869
sg16
I00
s(dp18
S'y'
F99
sS'x'
F968
sg16
I00
s(dp19
g14
S'curve'
p20
sS'x'
F994
sg16
I00
sS'y'
F369
s(dp21
g14
S'line'
p22
sS'x'
F824
sg16
I00
sS'y'
F369
s(dp23
S'y'
F188
sS'x'
F808
sg16
I00
s(dp24
S'y'
F121
sS'x'
F755
sg16
I00
s(dp25
g14
S'curve'
p26
sS'x'
F579
sg16
I01
sS'y'
F121
s(dp27
S'y'
F121
sS'x'
F432
sg16
I00
s(dp28
S'y'
F186
sS'x'
F338
sg16
I00
s(dp29
g14
S'curve'
p30
sS'x'
F338
sg16
I01
sS'y'
F328
s(dp31
g14
S'line'
p32
sS'x'
F338
sg16
I01
sS'y'
F746
s(dp33
S'y'
F877
sS'x'
F338
sg16
I00
s(dp34
S'y'
F938
sS'x'
F433
sg16
I00
s(dp35
g14
S'curve'
p36
sS'x'
F579
sg16
I01
sS'y'
F938
s(dp37
S'y'
F938
sS'x'
F724
sg16
I00
s(dp38
S'y'
F899
sS'x'
F809
sg16
I00
s(dp39
g14
S'curve'
p40
sS'x'
F809
sg16
I01
sS'y'
F774
s(dp41
g14
S'line'
p42
sS'x'
F809
sg16
I00
sS'y'
F679
s(dp43
g14
S'line'
p44
sS'x'
F991
sg16
I00
sS'y'
F679
s(dp45
g14
S'line'
p46
sS'x'
F991
sg16
I01
sS'y'
F768
s(dp47
S'y'
F981
sS'x'
F991
sg16
I00
s(dp48
S'y'
F1080
sS'x'
F842
sg16
I00
s(dp49
g14
S'curve'
p50
sS'x'
F579
sg16
I01
sS'y'
F1080
s(dp51
S'y'
F1080
sS'x'
F316
sg16
I00
s(dp52
S'y'
F951
sS'x'
F150
sg16
I00
s(dp53
g14
S'curve'
p54
sS'x'
F150
sg16
I01
sS'y'
F751
s(dp55
g14
S'line'
p56
sS'x'
F150
sg16
I01
sS'y'
F344
s(dp57
S'y'
F148
sS'x'
F150
sg16
I00
s(dp58
S'y'
F-20
sS'x'
F263
sg16
I00
stp59
stp60
sS'components'
p61
(tsS'anchors'
p62
(tsss."
LayerCount: 2
Fore
SplineSet
577 -20 m 0
 867 -20 966 99 992 369 c 1
 822 369 l 1
 806 188 753 121 577 121 c 0
 430 121 336 186 336 328 c 2
 336 746 l 2
 336 877 431 938 577 938 c 0
 740 938 810 885 815 679 c 1
 989 679 l 1
 991 980 826 1080 572 1080 c 0
 309 1080 148 951 148 751 c 2
 148 344 l 2
 148 148 261 -20 577 -20 c 0
EndSplineSet
EndChar

StartChar: cacute
Encoding: 263 263 153
Width: 1130
VWidth: 0
Flags: W
PickledData: "(dp1
S'com.typemytype.robofont.layerData'
p2
(dp3
S'b'
(dp4
S'name'
p5
S'cacute'
p6
sS'lib'
p7
(dp8
sS'unicodes'
p9
(tsS'width'
p10
I1130
sS'contours'
p11
(tsS'components'
p12
(tsS'anchors'
p13
(tsss."
LayerCount: 2
Fore
SplineSet
587 -20 m 0
 916 -20 1010 94 1010 289 c 2
 1010 356 l 1
 828 356 l 1
 828 283 l 2
 828 153 726 121 587 121 c 0
 440 121 337 166 337 308 c 2
 337 757 l 2
 337 888 441 938 587 938 c 0
 732 938 828 899 828 774 c 2
 828 679 l 1
 1010 679 l 1
 1010 768 l 2
 1010 981 850 1080 587 1080 c 0
 324 1080 150 951 150 751 c 2
 150 314 l 2
 150 118 271 -20 587 -20 c 0
655.5 1202 m 1
 761.5 1202 l 1
 623.5 1543 l 1
 398.5 1543 l 1
 655.5 1202 l 1
EndSplineSet
EndChar

StartChar: caron
Encoding: 711 711 154
Width: 512
VWidth: 0
Flags: W
PickledData: "(dp1
S'com.typemytype.robofont.layerData'
p2
(dp3
S'b'
(dp4
S'name'
p5
S'caron'
p6
sS'lib'
p7
(dp8
sS'unicodes'
p9
(tsS'width'
p10
I512
sS'contours'
p11
(tsS'components'
p12
(tsS'anchors'
p13
(tsss."
LayerCount: 2
Fore
SplineSet
175 1240 m 1
 325 1240 l 1
 542 1506 l 1
 381 1506 l 1
 249 1332 l 1
 125 1506 l 1
 -30 1506 l 1
 175 1240 l 1
EndSplineSet
EndChar

StartChar: ccaron
Encoding: 269 269 155
Width: 1130
VWidth: 0
Flags: W
PickledData: "(dp1
S'com.typemytype.robofont.layerData'
p2
(dp3
S'b'
(dp4
S'name'
p5
S'ccaron'
p6
sS'lib'
p7
(dp8
sS'unicodes'
p9
(tsS'width'
p10
I1130
sS'contours'
p11
(tsS'components'
p12
(tsS'anchors'
p13
(tsss."
LayerCount: 2
Fore
SplineSet
587 -20 m 0
 916 -20 1010 94 1010 289 c 2
 1010 356 l 1
 828 356 l 1
 828 283 l 2
 828 153 726 121 587 121 c 0
 440 121 337 166 337 308 c 2
 337 757 l 2
 337 888 441 938 587 938 c 0
 732 938 828 899 828 774 c 2
 828 679 l 1
 1010 679 l 1
 1010 768 l 2
 1010 981 850 1080 587 1080 c 0
 324 1080 150 951 150 751 c 2
 150 314 l 2
 150 118 271 -20 587 -20 c 0
499.5 1202 m 1
 649.5 1202 l 1
 866.5 1468 l 1
 705.5 1468 l 1
 573.5 1294 l 1
 449.5 1468 l 1
 293.5 1468 l 1
 499.5 1202 l 1
EndSplineSet
EndChar

StartChar: ccedilla
Encoding: 231 231 156
Width: 1130
VWidth: 0
Flags: W
PickledData: "(dp1
S'com.typemytype.robofont.layerData'
p2
(dp3
S'b'
(dp4
S'name'
p5
S'ccedilla'
p6
sS'lib'
p7
(dp8
sS'unicodes'
p9
(tsS'width'
p10
I1130
sS'contours'
p11
(tsS'components'
p12
(tsS'anchors'
p13
(tsss."
LayerCount: 2
Fore
SplineSet
587 -20 m 0
 916 -20 1010 94 1010 289 c 2
 1010 356 l 1
 828 356 l 1
 828 283 l 2
 828 153 726 121 587 121 c 0
 440 121 337 166 337 308 c 2
 337 757 l 2
 337 888 441 938 587 938 c 0
 732 938 828 899 828 774 c 2
 828 679 l 1
 1010 679 l 1
 1010 768 l 2
 1010 981 850 1080 587 1080 c 0
 324 1080 150 951 150 751 c 2
 150 314 l 2
 150 118 271 -20 587 -20 c 0
562.5 -489.799804688 m 0
 727.5 -489.799804688 809.5 -400.799804688 809.5 -306.799804688 c 0
 809.5 -217.799804688 735.5 -123.799804688 588.5 -97.7998046875 c 1
 582.5 -3.7998046875 l 1
 520.5 -3.7998046875 l 1
 520.5 -161.799804688 l 1
 620.5 -164.799804688 680.5 -232.799804688 680.5 -293.799804688 c 0
 680.5 -345.799804688 638.5 -392.799804688 540.5 -392.799804688 c 0
 519.5 -392.799804688 495.5 -390.799804688 469.5 -385.799804688 c 1
 469.5 -481.799804688 l 1
 503.5 -487.799804688 534.5 -489.799804688 562.5 -489.799804688 c 0
EndSplineSet
EndChar

StartChar: ccircumflex
Encoding: 265 265 157
Width: 1130
VWidth: 0
Flags: W
PickledData: "(dp1
S'com.typemytype.robofont.layerData'
p2
(dp3
S'b'
(dp4
S'name'
p5
S'ccircumflex'
p6
sS'lib'
p7
(dp8
sS'unicodes'
p9
(tsS'width'
p10
I1130
sS'contours'
p11
(tsS'components'
p12
(tsS'anchors'
p13
(tsss."
LayerCount: 2
Fore
SplineSet
587 -20 m 0
 916 -20 1010 94 1010 289 c 2
 1010 356 l 1
 828 356 l 1
 828 283 l 2
 828 153 726 121 587 121 c 0
 440 121 337 166 337 308 c 2
 337 757 l 2
 337 888 441 938 587 938 c 0
 732 938 828 899 828 774 c 2
 828 679 l 1
 1010 679 l 1
 1010 768 l 2
 1010 981 850 1080 587 1080 c 0
 324 1080 150 951 150 751 c 2
 150 314 l 2
 150 118 271 -20 587 -20 c 0
293.5 1202 m 1
 454.5 1202 l 1
 586.5 1376 l 1
 710.5 1202 l 1
 866.5 1202 l 1
 660.5 1468 l 1
 510.5 1468 l 1
 293.5 1202 l 1
EndSplineSet
EndChar

StartChar: cdotaccent
Encoding: 267 267 158
Width: 1130
VWidth: 0
Flags: W
PickledData: "(dp1
S'com.typemytype.robofont.layerData'
p2
(dp3
S'b'
(dp4
S'name'
p5
S'cdotaccent'
p6
sS'lib'
p7
(dp8
sS'unicodes'
p9
(tsS'width'
p10
I1130
sS'contours'
p11
(tsS'components'
p12
(tsS'anchors'
p13
(tsss."
LayerCount: 2
Fore
SplineSet
587 -20 m 0
 916 -20 1010 94 1010 289 c 2
 1010 356 l 1
 828 356 l 1
 828 283 l 2
 828 153 726 121 587 121 c 0
 440 121 337 166 337 308 c 2
 337 757 l 2
 337 888 441 938 587 938 c 0
 732 938 828 899 828 774 c 2
 828 679 l 1
 1010 679 l 1
 1010 768 l 2
 1010 981 850 1080 587 1080 c 0
 324 1080 150 951 150 751 c 2
 150 314 l 2
 150 118 271 -20 587 -20 c 0
453 1202 m 1
 707 1202 l 1
 707 1443 l 1
 453 1443 l 1
 453 1202 l 1
EndSplineSet
EndChar

StartChar: cedilla
Encoding: 184 184 159
Width: 512
VWidth: 0
Flags: W
PickledData: "(dp1
S'com.typemytype.robofont.layerData'
p2
(dp3
S'b'
(dp4
S'name'
p5
S'cedilla'
p6
sS'lib'
p7
(dp8
sS'unicodes'
p9
(tsS'width'
p10
I512
sS'contours'
p11
(tsS'components'
p12
(tsS'anchors'
p13
(tsss."
LayerCount: 2
Fore
SplineSet
213 -486 m 0
 378 -486 460 -397 460 -303 c 0
 460 -214 386 -120 239 -94 c 1
 233 0 l 1
 171 0 l 1
 171 -158 l 1
 271 -161 331 -229 331 -290 c 0
 331 -342 289 -389 191 -389 c 0
 170 -389 146 -387 120 -382 c 1
 120 -478 l 1
 154 -484 185 -486 213 -486 c 0
EndSplineSet
EndChar

StartChar: cent
Encoding: 162 162 160
Width: 1133
VWidth: 0
Flags: W
PickledData: "(dp1
S'com.typemytype.robofont.layerData'
p2
(dp3
S'b'
(dp4
S'name'
p5
S'cent'
p6
sS'lib'
p7
(dp8
sS'unicodes'
p9
(tsS'width'
p10
I1133
sS'contours'
p11
(tsS'components'
p12
(tsS'anchors'
p13
(tsss."
LayerCount: 2
Fore
SplineSet
522 -205 m 1
 659 -205 l 1
 659 -18 l 1
 930 0 1013 125 1013 309 c 2
 1013 364 l 1
 831 364 l 1
 831 289 l 2
 831 156 726 124 587 124 c 0
 440 124 337 170 337 315 c 2
 337 774 l 2
 337 908 441 959 587 959 c 0
 732 959 831 920 831 792 c 2
 831 694 l 1
 1013 694 l 1
 1013 771 l 2
 1013 968 879 1081 659 1101 c 1
 659 1275 l 1
 522 1275 l 1
 522 1101 l 1
 296 1081 150 956 150 768 c 2
 150 321 l 2
 150 135 254 0 522 -18 c 1
 522 -205 l 1
EndSplineSet
EndChar

StartChar: circumflex
Encoding: 710 710 161
Width: 512
VWidth: 0
Flags: W
PickledData: "(dp1
S'com.typemytype.robofont.layerData'
p2
(dp3
S'b'
(dp4
S'name'
p5
S'circumflex'
p6
sS'lib'
p7
(dp8
sS'unicodes'
p9
(tsS'width'
p10
I512
sS'contours'
p11
(tsS'components'
p12
(tsS'anchors'
p13
(tsss."
LayerCount: 2
Fore
SplineSet
-30 1240 m 1
 130 1240 l 1
 262 1414 l 1
 386 1240 l 1
 542 1240 l 1
 336 1506 l 1
 186 1506 l 1
 -30 1240 l 1
EndSplineSet
EndChar

StartChar: colon
Encoding: 58 58 162
Width: 896
VWidth: 0
Flags: W
PickledData: "(dp1
S'com.typemytype.robofont.layerData'
p2
(dp3
S'b'
(dp4
S'name'
p5
S'colon'
p6
sS'lib'
p7
(dp8
sS'unicodes'
p9
(tsS'width'
p10
I896
sS'contours'
p11
(tsS'components'
p12
(tsS'anchors'
p13
(tsss."
LayerCount: 2
Fore
SplineSet
324 99 m 1
 572 99 l 1
 572 353 l 1
 324 353 l 1
 324 99 l 1
324 805 m 1
 572 805 l 1
 572 1060 l 1
 324 1060 l 1
 324 805 l 1
EndSplineSet
EndChar

StartChar: comma
Encoding: 44 44 163
Width: 512
VWidth: 0
Flags: W
PickledData: "(dp1
S'com.typemytype.robofont.layerData'
p2
(dp3
S'b'
(dp4
S'name'
p5
S'comma'
p6
sS'lib'
p7
(dp8
sS'unicodes'
p9
(tsS'width'
p10
I512
sS'contours'
p11
(tsS'components'
p12
(tsS'anchors'
p13
(tsss."
LayerCount: 2
Fore
SplineSet
239 -338 m 1
 297 -284 411 -141 411 50 c 2
 411 233 l 1
 154 233 l 1
 154 0 l 1
 295 0 l 1
 295 -132 205 -239 158 -294 c 1
 239 -338 l 1
EndSplineSet
EndChar

StartChar: copyright
Encoding: 169 169 164
Width: 1499
VWidth: 0
Flags: W
PickledData: "(dp1
S'com.typemytype.robofont.layerData'
p2
(dp3
S'b'
(dp4
S'name'
p5
S'copyright'
p6
sS'lib'
p7
(dp8
sS'unicodes'
p9
(tsS'width'
p10
I1499
sS'contours'
p11
(tsS'components'
p12
(tsS'anchors'
p13
(tsss."
LayerCount: 2
Fore
SplineSet
760 287 m 0
 1036 287 1085 422 1085 598 c 2
 1085 632 l 1
 969 632 l 1
 969 571 l 2
 969 419 913 376 760 376 c 0
 608 376 528 419 528 571 c 2
 528 890 l 2
 528 1042 608 1091 759 1091 c 0
 911 1091 969 1042 969 890 c 2
 969 836 l 1
 1085 836 l 1
 1085 861 l 2
 1085 1043 1036 1182 759 1182 c 0
 471 1182 408 1050 408 868 c 2
 408 590 l 2
 408 411 473 287 760 287 c 0
751 82 m 0
 387 82 123 357 123 722 c 0
 123 1086 387 1361 751 1361 c 0
 1117 1361 1379 1086 1379 722 c 0
 1379 357 1117 82 751 82 c 0
749 -14 m 0
 1165 -14 1485 303 1485 722 c 0
 1485 1139 1165 1456 749 1456 c 0
 336 1456 14 1139 14 722 c 0
 14 303 336 -14 749 -14 c 0
EndSplineSet
EndChar

StartChar: currency
Encoding: 164 164 165
Width: 1460
VWidth: 0
Flags: W
PickledData: "(dp1
S'com.typemytype.robofont.layerData'
p2
(dp3
S'b'
(dp4
S'name'
p5
S'currency'
p6
sS'lib'
p7
(dp8
sS'unicodes'
p9
(tsS'width'
p10
I1460
sS'contours'
p11
(tsS'components'
p12
(tsS'anchors'
p13
(tsss."
LayerCount: 2
Fore
SplineSet
1 505 m 1
 743 505 l 1
 743 639 l 1
 1 639 l 1
 1 505 l 1
1 819 m 1
 743 819 l 1
 743 953 l 1
 1 953 l 1
 1 819 l 1
EndSplineSet
Refer: 13 67 N 1 0 0 1 0 0 2
EndChar

StartChar: d
Encoding: 100 100 166
Width: 1200
VWidth: 0
Flags: W
PickledData: "(dp1
S'com.typemytype.robofont.layerData'
p2
(dp3
S'b'
(dp4
S'name'
p5
S'd'
sS'lib'
p6
(dp7
sS'unicodes'
p8
(tsS'width'
p9
I1200
sS'contours'
p10
(tsS'components'
p11
(tsS'anchors'
p12
(tsss."
LayerCount: 2
Fore
SplineSet
568 -16 m 0
 677 -16 793 17 855 61 c 1
 886 0 l 1
 1014 0 l 1
 1014 1506 l 1
 826 1506 l 1
 826 1044 l 1
 760 1068 668 1084 601 1084 c 0
 293 1084 148 948 148 735 c 2
 148 328 l 2
 148 124 263 -16 568 -16 c 0
580 126 m 0
 442 126 336 187 336 314 c 2
 336 756 l 2
 336 886 455 943 603 943 c 0
 691 943 770 923 826 896 c 1
 826 189 l 1
 783 163 687 126 580 126 c 0
EndSplineSet
EndChar

StartChar: dagger
Encoding: 8224 8224 167
Width: 890
VWidth: 0
Flags: W
PickledData: "(dp1
S'com.typemytype.robofont.layerData'
p2
(dp3
S'b'
(dp4
S'name'
p5
S'dagger'
p6
sS'lib'
p7
(dp8
sS'unicodes'
p9
(tsS'width'
p10
I890
sS'contours'
p11
(tsS'components'
p12
(tsS'anchors'
p13
(tsss."
LayerCount: 2
Fore
SplineSet
348 0 m 1
 536 0 l 1
 536 931 l 1
 802 931 l 1
 802 1060 l 1
 536 1060 l 1
 536 1446 l 1
 348 1446 l 1
 348 1060 l 1
 88 1060 l 1
 88 931 l 1
 348 931 l 1
 348 0 l 1
EndSplineSet
EndChar

StartChar: daggerdbl
Encoding: 8225 8225 168
Width: 938
VWidth: 0
Flags: W
PickledData: "(dp1
S'com.typemytype.robofont.layerData'
p2
(dp3
S'b'
(dp4
S'name'
p5
S'daggerdbl'
p6
sS'lib'
p7
(dp8
sS'unicodes'
p9
(tsS'width'
p10
I938
sS'contours'
p11
(tsS'components'
p12
(tsS'anchors'
p13
(tsss."
LayerCount: 2
Fore
SplineSet
372 0 m 1
 560 0 l 1
 560 409 l 1
 826 409 l 1
 826 538 l 1
 560 538 l 1
 560 931 l 1
 826 931 l 1
 826 1060 l 1
 560 1060 l 1
 560 1446 l 1
 372 1446 l 1
 372 1060 l 1
 112 1060 l 1
 112 931 l 1
 372 931 l 1
 372 538 l 1
 112 538 l 1
 112 409 l 1
 372 409 l 1
 372 0 l 1
EndSplineSet
EndChar

StartChar: dcaron
Encoding: 271 271 169
Width: 1192
VWidth: 0
Flags: W
PickledData: "(dp1
S'com.typemytype.robofont.layerData'
p2
(dp3
S'b'
(dp4
S'name'
p5
S'dcaron'
p6
sS'lib'
p7
(dp8
sS'unicodes'
p9
(tsS'width'
p10
I1192
sS'contours'
p11
(tsS'components'
p12
(tsS'anchors'
p13
(tsss."
LayerCount: 2
Fore
SplineSet
570 -16 m 0
 679 -16 794 17 856 61 c 1
 887 0 l 1
 1015 0 l 1
 1015 1446 l 1
 827 1446 l 1
 827 1044 l 1
 761 1068 670 1084 603 1084 c 0
 295 1084 150 948 150 735 c 2
 150 328 l 2
 150 124 265 -16 570 -16 c 0
1283 897 m 1
 1341 951 1432 1094 1432 1285 c 2
 1432 1446 l 1
 1198 1446 l 1
 1198 1235 l 1
 1316 1235 l 1
 1316 1103 1249 996 1202 941 c 1
 1283 897 l 1
582 126 m 0
 444 126 338 187 338 314 c 2
 338 756 l 2
 338 886 457 943 605 943 c 0
 693 943 771 923 827 896 c 1
 827 189 l 1
 784 163 689 126 582 126 c 0
EndSplineSet
EndChar

StartChar: degree
Encoding: 176 176 171
Width: 1036
VWidth: 0
Flags: W
PickledData: "(dp1
S'com.typemytype.robofont.layerData'
p2
(dp3
S'b'
(dp4
S'name'
p5
S'degree'
p6
sS'lib'
p7
(dp8
sS'unicodes'
p9
(tsS'width'
p10
I1036
sS'contours'
p11
((dp12
S'points'
p13
((dp14
S'segmentType'
p15
S'curve'
p16
sS'x'
F525
sS'smooth'
p17
I01
sS'y'
F885
s(dp18
S'y'
F885
sS'x'
F352
sg17
I00
s(dp19
S'y'
F1024
sS'x'
F300
sg17
I00
s(dp20
g15
S'curve'
p21
sS'x'
F300
sg17
I01
sS'y'
F1123
s(dp22
S'y'
F1222
sS'x'
F300
sg17
I00
s(dp23
S'y'
F1360
sS'x'
F353
sg17
I00
s(dp24
g15
S'curve'
p25
sS'x'
F525
sg17
I01
sS'y'
F1360
s(dp26
S'y'
F1360
sS'x'
F701
sg17
I00
s(dp27
S'y'
F1221
sS'x'
F752
sg17
I00
s(dp28
g15
S'curve'
p29
sS'x'
F752
sg17
I01
sS'y'
F1122
s(dp30
S'y'
F1024
sS'x'
F752
sg17
I00
s(dp31
S'y'
F885
sS'x'
F700
sg17
I00
stp32
s(dp33
g13
((dp34
g15
S'curve'
p35
sS'x'
F524
sg17
I01
sS'y'
F799
s(dp36
S'y'
F799
sS'x'
F808
sg17
I00
s(dp37
S'y'
F916
sS'x'
F901
sg17
I00
s(dp38
g15
S'curve'
p39
sS'x'
F901
sg17
I01
sS'y'
F1123
s(dp40
S'y'
F1330
sS'x'
F901
sg17
I00
s(dp41
S'y'
F1445
sS'x'
F805
sg17
I00
s(dp42
g15
S'curve'
p43
sS'x'
F525
sg17
I01
sS'y'
F1445
s(dp44
S'y'
F1445
sS'x'
F305
sg17
I00
s(dp45
S'y'
F1295
sS'x'
F195
sg17
I00
s(dp46
g15
S'curve'
p47
sS'x'
F195
sg17
I01
sS'y'
F1122
s(dp48
S'y'
F950
sS'x'
F195
sg17
I00
s(dp49
S'y'
F799
sS'x'
F305
sg17
I00
stp50
stp51
sS'components'
p52
(tsS'anchors'
p53
(tsss."
LayerCount: 2
Fore
SplineSet
518 1446 m 0
 340 1446 194 1300 194 1122 c 0
 194 943 340 798 518 798 c 0
 696 798 842 943 842 1122 c 0
 842 1300 696 1446 518 1446 c 0
519 1361 m 0
 650 1361 747 1254 747 1123 c 0
 747 992 650 885 519 885 c 0
 388 885 291 992 291 1123 c 0
 291 1254 388 1361 519 1361 c 0
EndSplineSet
EndChar

StartChar: dieresis
Encoding: 168 168 172
Width: 1025
VWidth: 0
Flags: W
PickledData: "(dp1
S'com.typemytype.robofont.layerData'
p2
(dp3
S'b'
(dp4
S'name'
p5
S'dieresis'
p6
sS'lib'
p7
(dp8
sS'unicodes'
p9
(tsS'width'
p10
I1025
sS'contours'
p11
(tsS'components'
p12
(tsS'anchors'
p13
(tsss."
LayerCount: 2
Fore
SplineSet
158 1265 m 1
 364 1265 l 1
 364 1446 l 1
 158 1446 l 1
 158 1265 l 1
661 1265 m 1
 867 1265 l 1
 867 1446 l 1
 661 1446 l 1
 661 1265 l 1
EndSplineSet
EndChar

StartChar: divide
Encoding: 247 247 173
Width: 1025
VWidth: 0
Flags: W
PickledData: "(dp1
S'com.typemytype.robofont.layerData'
p2
(dp3
S'b'
(dp4
S'name'
p5
S'divide'
p6
sS'lib'
p7
(dp8
sS'unicodes'
p9
(tsS'width'
p10
I1025
sS'contours'
p11
(tsS'components'
p12
(tsS'anchors'
p13
(tsss."
LayerCount: 2
Fore
SplineSet
413 90 m 1
 618 90 l 1
 618 299 l 1
 413 299 l 1
 413 90 l 1
100 472 m 1
 925 472 l 1
 925 609 l 1
 100 609 l 1
 100 472 l 1
413 787 m 1
 618 787 l 1
 618 996 l 1
 413 996 l 1
 413 787 l 1
EndSplineSet
EndChar

StartChar: dollar
Encoding: 36 36 174
Width: 1303
VWidth: 0
Flags: W
PickledData: "(dp1
S'com.typemytype.robofont.layerData'
p2
(dp3
S'b'
(dp4
S'name'
p5
S'dollar'
p6
sS'lib'
p7
(dp8
sS'unicodes'
p9
(tsS'width'
p10
I1303
sS'contours'
p11
(tsS'components'
p12
(tsS'anchors'
p13
(tsss."
LayerCount: 2
Fore
SplineSet
620 -242 m 1
 730 -242 l 1
 730 1638 l 1
 620 1638 l 1
 620 -242 l 1
EndSplineSet
Refer: 88 83 N 1 0 0 1 0 0 2
EndChar

StartChar: dotaccent
Encoding: 729 729 175
Width: 512
VWidth: 0
Flags: W
PickledData: "(dp1
S'com.typemytype.robofont.layerData'
p2
(dp3
S'b'
(dp4
S'name'
p5
S'dotaccent'
p6
sS'lib'
p7
(dp8
sS'unicodes'
p9
(tsS'width'
p10
I512
sS'contours'
p11
(tsS'components'
p12
(tsS'anchors'
p13
(tsss."
LayerCount: 2
Fore
SplineSet
136 1275 m 1
 376 1275 l 1
 376 1506 l 1
 136 1506 l 1
 136 1275 l 1
EndSplineSet
EndChar

StartChar: e
Encoding: 101 101 177
Width: 1132
VWidth: 0
Flags: W
PickledData: "(dp1
S'com.typemytype.robofont.layerData'
p2
(dp3
S'b'
(dp4
S'name'
p5
S'e'
sS'lib'
p6
(dp7
sS'unicodes'
p8
(tsS'width'
p9
I1132
sS'contours'
p10
((dp11
S'points'
p12
((dp13
S'segmentType'
p14
S'line'
p15
sS'x'
F809
sS'smooth'
p16
I00
sS'y'
F679
s(dp17
g14
S'line'
p18
sS'x'
F991
sg16
I00
sS'y'
F679
s(dp19
g14
S'line'
p20
sS'x'
F991
sg16
I01
sS'y'
F768
s(dp21
S'y'
F981
sS'x'
F991
sg16
I00
s(dp22
S'y'
F1080
sS'x'
F842
sg16
I00
s(dp23
g14
S'curve'
p24
sS'x'
F579
sg16
I01
sS'y'
F1080
s(dp25
S'y'
F1080
sS'x'
F316
sg16
I00
s(dp26
S'y'
F951
sS'x'
F150
sg16
I00
s(dp27
g14
S'curve'
p28
sS'x'
F150
sg16
I01
sS'y'
F751
s(dp29
g14
S'line'
p30
sS'x'
F150
sg16
I01
sS'y'
F314
s(dp31
S'y'
F118
sS'x'
F150
sg16
I00
s(dp32
S'y'
F-20
sS'x'
F263
sg16
I00
s(dp33
g14
S'curve'
p34
sS'x'
F579
sg16
I01
sS'y'
F-20
s(dp35
S'y'
F-20
sS'x'
F848
sg16
I00
s(dp36
S'y'
F72
sS'x'
F966
sg16
I00
s(dp37
g14
S'curve'
p38
sS'x'
F994
sg16
I00
sS'y'
F332
s(dp39
g14
S'line'
p40
sS'x'
F831
sg16
I00
sS'y'
F349
s(dp41
S'y'
F159
sS'x'
F805
sg16
I00
s(dp42
S'y'
F121
sS'x'
F745
sg16
I00
s(dp43
g14
S'curve'
p44
sS'x'
F579
sg16
I01
sS'y'
F121
s(dp45
S'y'
F121
sS'x'
F432
sg16
I00
s(dp46
S'y'
F176
sS'x'
F337
sg16
I00
s(dp47
g14
S'curve'
p48
sS'x'
F337
sg16
I01
sS'y'
F318
s(dp49
g14
S'line'
p50
sS'x'
F337
sg16
I01
sS'y'
F746
s(dp51
S'y'
F877
sS'x'
F337
sg16
I00
s(dp52
S'y'
F938
sS'x'
F433
sg16
I00
s(dp53
g14
S'curve'
p54
sS'x'
F579
sg16
I01
sS'y'
F938
s(dp55
S'y'
F938
sS'x'
F724
sg16
I00
s(dp56
S'y'
F899
sS'x'
F809
sg16
I00
s(dp57
g14
S'curve'
p58
sS'x'
F809
sg16
I01
sS'y'
F774
stp59
stp60
sS'components'
p61
(tsS'anchors'
p62
(tsss."
LayerCount: 2
Fore
SplineSet
579 -20 m 0
 869 -20 978 73 999 331 c 1
 829 331 l 1
 816 148 745 121 579 121 c 0
 432 121 336 186 336 328 c 2
 336 506 l 1
 1000 506 l 1
 1000 758 l 2
 1000 959 855 1080 579 1080 c 0
 300 1080 148 943 148 743 c 2
 148 344 l 2
 148 148 263 -20 579 -20 c 0
336 633 m 1
 336 760 l 2
 336 891 429 938 579 938 c 0
 724 938 818 906 818 778 c 2
 818 633 l 1
 336 633 l 1
EndSplineSet
EndChar

StartChar: eacute
Encoding: 233 233 178
Width: 1138
VWidth: 0
Flags: W
PickledData: "(dp1
S'com.typemytype.robofont.layerData'
p2
(dp3
S'b'
(dp4
S'name'
p5
S'eacute'
p6
sS'lib'
p7
(dp8
sS'unicodes'
p9
(tsS'width'
p10
I1138
sS'contours'
p11
(tsS'components'
p12
(tsS'anchors'
p13
(tsss."
LayerCount: 2
Fore
SplineSet
582 -20 m 0
 911 -20 993 102 993 297 c 2
 993 336 l 1
 811 336 l 1
 811 282 l 2
 811 152 721 121 582 121 c 0
 418 121 338 179 338 310 c 2
 338 506 l 1
 993 506 l 1
 993 758 l 2
 993 959 858 1080 582 1080 c 0
 303 1080 150 943 150 743 c 2
 150 326 l 2
 150 122 266 -20 582 -20 c 0
338 633 m 1
 338 760 l 2
 338 891 432 938 582 938 c 0
 727 938 811 906 811 778 c 2
 811 633 l 1
 338 633 l 1
647 1202 m 1
 753 1202 l 1
 615 1543 l 1
 390 1543 l 1
 647 1202 l 1
EndSplineSet
EndChar

StartChar: ebreve
Encoding: 277 277 179
Width: 1138
VWidth: 0
Flags: W
PickledData: "(dp1
S'com.typemytype.robofont.layerData'
p2
(dp3
S'b'
(dp4
S'name'
p5
S'ebreve'
p6
sS'lib'
p7
(dp8
sS'unicodes'
p9
(tsS'width'
p10
I1138
sS'contours'
p11
(tsS'components'
p12
(tsS'anchors'
p13
(tsss."
LayerCount: 2
Fore
SplineSet
582 -20 m 0
 911 -20 993 102 993 297 c 2
 993 336 l 1
 811 336 l 1
 811 282 l 2
 811 152 721 121 582 121 c 0
 418 121 338 179 338 310 c 2
 338 506 l 1
 993 506 l 1
 993 758 l 2
 993 959 858 1080 582 1080 c 0
 303 1080 150 943 150 743 c 2
 150 326 l 2
 150 122 266 -20 582 -20 c 0
571 1202 m 0
 710 1202 798 1299 798 1414 c 1
 692 1414 l 1
 692 1345 644 1298 571 1298 c 0
 502 1298 450 1348 450 1414 c 1
 345 1414 l 1
 345 1299 432 1202 571 1202 c 0
338 633 m 1
 338 760 l 2
 338 891 432 938 582 938 c 0
 727 938 811 906 811 778 c 2
 811 633 l 1
 338 633 l 1
EndSplineSet
EndChar

StartChar: ecaron
Encoding: 283 283 180
Width: 1138
VWidth: 0
Flags: W
PickledData: "(dp1
S'com.typemytype.robofont.layerData'
p2
(dp3
S'b'
(dp4
S'name'
p5
S'ecaron'
p6
sS'lib'
p7
(dp8
sS'unicodes'
p9
(tsS'width'
p10
I1138
sS'contours'
p11
(tsS'components'
p12
(tsS'anchors'
p13
(tsss."
LayerCount: 2
Fore
SplineSet
582 -20 m 0
 911 -20 993 102 993 297 c 2
 993 336 l 1
 811 336 l 1
 811 282 l 2
 811 152 721 121 582 121 c 0
 418 121 338 179 338 310 c 2
 338 506 l 1
 993 506 l 1
 993 758 l 2
 993 959 858 1080 582 1080 c 0
 303 1080 150 943 150 743 c 2
 150 326 l 2
 150 122 266 -20 582 -20 c 0
491 1202 m 1
 641 1202 l 1
 858 1468 l 1
 697 1468 l 1
 565 1294 l 1
 441 1468 l 1
 285 1468 l 1
 491 1202 l 1
338 633 m 1
 338 760 l 2
 338 891 432 938 582 938 c 0
 727 938 811 906 811 778 c 2
 811 633 l 1
 338 633 l 1
EndSplineSet
EndChar

StartChar: ecircumflex
Encoding: 234 234 181
Width: 1138
VWidth: 0
Flags: W
PickledData: "(dp1
S'com.typemytype.robofont.layerData'
p2
(dp3
S'b'
(dp4
S'name'
p5
S'ecircumflex'
p6
sS'lib'
p7
(dp8
sS'unicodes'
p9
(tsS'width'
p10
I1138
sS'contours'
p11
(tsS'components'
p12
(tsS'anchors'
p13
(tsss."
LayerCount: 2
Fore
SplineSet
582 -20 m 0
 911 -20 993 102 993 297 c 2
 993 336 l 1
 811 336 l 1
 811 282 l 2
 811 152 721 121 582 121 c 0
 418 121 338 179 338 310 c 2
 338 506 l 1
 993 506 l 1
 993 758 l 2
 993 959 858 1080 582 1080 c 0
 303 1080 150 943 150 743 c 2
 150 326 l 2
 150 122 266 -20 582 -20 c 0
285 1202 m 1
 446 1202 l 1
 578 1376 l 1
 702 1202 l 1
 858 1202 l 1
 652 1468 l 1
 502 1468 l 1
 285 1202 l 1
338 633 m 1
 338 760 l 2
 338 891 432 938 582 938 c 0
 727 938 811 906 811 778 c 2
 811 633 l 1
 338 633 l 1
EndSplineSet
EndChar

StartChar: edieresis
Encoding: 235 235 182
Width: 1138
VWidth: 0
Flags: W
PickledData: "(dp1
S'com.typemytype.robofont.layerData'
p2
(dp3
S'b'
(dp4
S'name'
p5
S'edieresis'
p6
sS'lib'
p7
(dp8
sS'unicodes'
p9
(tsS'width'
p10
I1138
sS'contours'
p11
(tsS'components'
p12
(tsS'anchors'
p13
(tsss."
LayerCount: 2
Fore
SplineSet
582 -20 m 0
 911 -20 993 102 993 297 c 2
 993 336 l 1
 811 336 l 1
 811 282 l 2
 811 152 721 121 582 121 c 0
 418 121 338 179 338 310 c 2
 338 506 l 1
 993 506 l 1
 993 758 l 2
 993 959 858 1080 582 1080 c 0
 303 1080 150 943 150 743 c 2
 150 326 l 2
 150 122 266 -20 582 -20 c 0
338 633 m 1
 338 760 l 2
 338 891 432 938 582 938 c 0
 727 938 811 906 811 778 c 2
 811 633 l 1
 338 633 l 1
217 1202 m 1
 423 1202 l 1
 423 1383 l 1
 217 1383 l 1
 217 1202 l 1
720 1202 m 1
 926 1202 l 1
 926 1383 l 1
 720 1383 l 1
 720 1202 l 1
EndSplineSet
EndChar

StartChar: edotaccent
Encoding: 279 279 183
Width: 1138
VWidth: 0
Flags: W
PickledData: "(dp1
S'com.typemytype.robofont.layerData'
p2
(dp3
S'b'
(dp4
S'name'
p5
S'edotaccent'
p6
sS'lib'
p7
(dp8
sS'unicodes'
p9
(tsS'width'
p10
I1138
sS'contours'
p11
(tsS'components'
p12
(tsS'anchors'
p13
(tsss."
LayerCount: 2
Fore
SplineSet
582 -20 m 0
 911 -20 993 102 993 297 c 2
 993 336 l 1
 811 336 l 1
 811 282 l 2
 811 152 721 121 582 121 c 0
 418 121 338 179 338 310 c 2
 338 506 l 1
 993 506 l 1
 993 758 l 2
 993 959 858 1080 582 1080 c 0
 303 1080 150 943 150 743 c 2
 150 326 l 2
 150 122 266 -20 582 -20 c 0
338 633 m 1
 338 760 l 2
 338 891 432 938 582 938 c 0
 727 938 811 906 811 778 c 2
 811 633 l 1
 338 633 l 1
444.5 1202 m 1
 698.5 1202 l 1
 698.5 1443 l 1
 444.5 1443 l 1
 444.5 1202 l 1
EndSplineSet
EndChar

StartChar: egrave
Encoding: 232 232 184
Width: 1138
VWidth: 0
Flags: W
PickledData: "(dp1
S'com.typemytype.robofont.layerData'
p2
(dp3
S'b'
(dp4
S'name'
p5
S'egrave'
p6
sS'lib'
p7
(dp8
sS'unicodes'
p9
(tsS'width'
p10
I1138
sS'contours'
p11
(tsS'components'
p12
(tsS'anchors'
p13
(tsss."
LayerCount: 2
Fore
SplineSet
582 -20 m 0
 911 -20 993 102 993 297 c 2
 993 336 l 1
 811 336 l 1
 811 282 l 2
 811 152 721 121 582 121 c 0
 418 121 338 179 338 310 c 2
 338 506 l 1
 993 506 l 1
 993 758 l 2
 993 959 858 1080 582 1080 c 0
 303 1080 150 943 150 743 c 2
 150 326 l 2
 150 122 266 -20 582 -20 c 0
338 633 m 1
 338 760 l 2
 338 891 432 938 582 938 c 0
 727 938 811 906 811 778 c 2
 811 633 l 1
 338 633 l 1
647 1202 m 1
 753 1202 l 1
 615 1543 l 1
 390 1543 l 1
 647 1202 l 1
EndSplineSet
EndChar

StartChar: eight
Encoding: 56 56 185
Width: 1250
VWidth: 0
Flags: W
PickledData: "(dp1
S'com.typemytype.robofont.layerData'
p2
(dp3
S'b'
(dp4
S'name'
p5
S'eight'
p6
sS'lib'
p7
(dp8
sS'unicodes'
p9
(tsS'width'
p10
I1250
sS'contours'
p11
(tsS'components'
p12
(tsS'anchors'
p13
(tsss."
LayerCount: 2
Fore
SplineSet
621 -23 m 0
 921 -23 1118 103 1118 367 c 0
 1118 580 969 703 811 773 c 1
 962 842 1090 937 1090 1123 c 0
 1090 1390 878 1483 626 1483 c 0
 371 1483 160 1390 160 1123 c 0
 160 937 287 842 438 773 c 1
 280 703 132 580 132 367 c 0
 132 103 327 -23 621 -23 c 0
626 138 m 0
 435 138 323 199 323 372 c 0
 323 529 462 601 625 680 c 1
 787 601 927 529 927 372 c 0
 927 199 814 138 626 138 c 0
625 846 m 1
 479 916 355 992 355 1122 c 0
 355 1245 425 1331 626 1331 c 0
 825 1331 895 1245 895 1122 c 0
 895 992 771 917 625 846 c 1
EndSplineSet
EndChar

StartChar: ellipsis
Encoding: 8230 8230 186
Width: 1427
VWidth: 0
Flags: W
PickledData: "(dp1
S'com.typemytype.robofont.layerData'
p2
(dp3
S'b'
(dp4
S'name'
p5
S'ellipsis'
p6
sS'lib'
p7
(dp8
sS'unicodes'
p9
(tsS'width'
p10
I1427
sS'contours'
p11
(tsS'components'
p12
(tsS'anchors'
p13
(tsss."
LayerCount: 2
Fore
SplineSet
112 0 m 1
 365 0 l 1
 365 255 l 1
 112 255 l 1
 112 0 l 1
944 0 m 1
 1197 0 l 1
 1197 255 l 1
 944 255 l 1
 944 0 l 1
1776 0 m 1
 2029 0 l 1
 2029 255 l 1
 1776 255 l 1
 1776 0 l 1
EndSplineSet
EndChar

StartChar: emacron
Encoding: 275 275 187
Width: 1138
VWidth: 0
Flags: W
PickledData: "(dp1
S'com.typemytype.robofont.layerData'
p2
(dp3
S'b'
(dp4
S'name'
p5
S'emacron'
p6
sS'lib'
p7
(dp8
sS'unicodes'
p9
(tsS'width'
p10
I1138
sS'contours'
p11
(tsS'components'
p12
(tsS'anchors'
p13
(tsss."
LayerCount: 2
Fore
SplineSet
582 -20 m 0
 911 -20 993 102 993 297 c 2
 993 336 l 1
 811 336 l 1
 811 282 l 2
 811 152 721 121 582 121 c 0
 418 121 338 179 338 310 c 2
 338 506 l 1
 993 506 l 1
 993 758 l 2
 993 959 858 1080 582 1080 c 0
 303 1080 150 943 150 743 c 2
 150 326 l 2
 150 122 266 -20 582 -20 c 0
338 633 m 1
 338 760 l 2
 338 891 432 938 582 938 c 0
 727 938 811 906 811 778 c 2
 811 633 l 1
 338 633 l 1
371 1202 m 1
 772 1202 l 1
 772 1354 l 1
 371 1354 l 1
 371 1202 l 1
EndSplineSet
EndChar

StartChar: emdash
Encoding: 8212 8212 188
Width: 1101
VWidth: 0
Flags: W
PickledData: "(dp1
S'com.typemytype.robofont.layerData'
p2
(dp3
S'b'
(dp4
S'name'
p5
S'emdash'
p6
sS'lib'
p7
(dp8
sS'unicodes'
p9
(tsS'width'
p10
I1101
sS'contours'
p11
(tsS'components'
p12
(tsS'anchors'
p13
(tsss."
LayerCount: 2
Fore
SplineSet
2 402 m 1
 1098 402 l 1
 1098 548 l 1
 2 548 l 1
 2 402 l 1
EndSplineSet
EndChar

StartChar: endash
Encoding: 8211 8211 189
Width: 539
VWidth: 0
Flags: W
PickledData: "(dp1
S'com.typemytype.robofont.layerData'
p2
(dp3
S'b'
(dp4
S'name'
p5
S'endash'
p6
sS'lib'
p7
(dp8
sS'unicodes'
p9
(tsS'width'
p10
I539
sS'contours'
p11
(tsS'components'
p12
(tsS'anchors'
p13
(tsss."
LayerCount: 2
Fore
SplineSet
2 606 m 1
 535 606 l 1
 535 732 l 1
 2 732 l 1
 2 606 l 1
EndSplineSet
EndChar

StartChar: eng
Encoding: 331 331 190
Width: 1194
VWidth: 0
Flags: W
PickledData: "(dp1
S'com.typemytype.robofont.layerData'
p2
(dp3
S'b'
(dp4
S'name'
p5
S'b'
sS'lib'
p6
(dp7
sS'unicodes'
p8
(tsS'width'
p9
I1194
sS'contours'
p10
(tsS'components'
p11
(tsS'anchors'
p12
(tsss."
LayerCount: 2
Fore
SplineSet
495 -316 m 1
 826 -316 1044 -202 1044 179 c 2
 1044 736 l 2
 1044 940 910 1084 639 1084 c 0
 540 1084 433 1053 365 1014 c 1
 365 1506 l 1
 177 1506 l 1
 177 0 l 1
 365 0 l 1
 365 874 l 1
 435 906 542 942 630 942 c 0
 768 942 856 877 856 750 c 2
 856 172 l 2
 856 -140 711 -153 467 -175 c 1
 495 -316 l 1
EndSplineSet
EndChar

StartChar: equal
Encoding: 61 61 192
Width: 1250
VWidth: 0
Flags: W
PickledData: "(dp1
S'com.typemytype.robofont.layerData'
p2
(dp3
S'b'
(dp4
S'name'
p5
S'equal'
p6
sS'lib'
p7
(dp8
sS'unicodes'
p9
(tsS'width'
p10
I1250
sS'contours'
p11
(tsS'components'
p12
(tsS'anchors'
p13
(tsss."
LayerCount: 2
Fore
SplineSet
224 467 m 1
 1026 467 l 1
 1026 615 l 1
 224 615 l 1
 224 467 l 1
224 805 m 1
 1026 805 l 1
 1026 953 l 1
 224 953 l 1
 224 805 l 1
EndSplineSet
EndChar

StartChar: eth
Encoding: 240 240 193
Width: 1158
VWidth: 0
Flags: W
PickledData: "(dp1
S'com.typemytype.robofont.layerData'
p2
(dp3
S'b'
(dp4
S'name'
p5
S'eth'
p6
sS'lib'
p7
(dp8
sS'unicodes'
p9
(tsS'width'
p10
I1158
sS'contours'
p11
(tsS'components'
p12
(tsS'anchors'
p13
(tsss."
LayerCount: 2
Fore
SplineSet
587 -20 m 0
 970 -20 1010 170 1010 365 c 2
 1010 536 l 2
 1010 928 882 1162 733 1303 c 1
 863 1389 l 1
 794 1473 l 1
 646 1375 l 1
 512 1470 378 1502 317 1515 c 1
 243 1407 l 1
 307 1387 413 1353 514 1288 c 1
 323 1162 l 1
 391 1078 l 1
 606 1220 l 1
 687 1148 754 1052 782 921 c 1
 755 944 653 975 587 975 c 0
 324 975 150 846 150 646 c 2
 150 314 l 2
 150 118 271 -20 587 -20 c 0
587 121 m 0
 440 121 337 166 337 308 c 2
 337 652 l 2
 337 783 441 833 587 833 c 0
 647 833 762 813 805 783 c 1
 820 701 828 624 828 593 c 2
 828 359 l 2
 828 229 820 121 587 121 c 0
EndSplineSet
EndChar

StartChar: exclam
Encoding: 33 33 194
Width: 768
VWidth: 0
Flags: W
PickledData: "(dp1
S'com.typemytype.robofont.layerData'
p2
(dp3
S'b'
(dp4
S'name'
p5
S'exclam'
p6
sS'lib'
p7
(dp8
sS'unicodes'
p9
(tsS'width'
p10
I768
sS'contours'
p11
(tsS'components'
p12
(tsS'anchors'
p13
(tsss."
LayerCount: 2
Fore
SplineSet
280 0 m 1
 484 0 l 1
 484 206 l 1
 280 206 l 1
 280 0 l 1
353 371 m 1
 409 371 l 1
 409 371 488 1060 488 1446 c 1
 286 1446 l 1
 286 1060 353 371 353 371 c 1
EndSplineSet
EndChar

StartChar: exclamdown
Encoding: 161 161 195
Width: 468
VWidth: 0
Flags: W
PickledData: "(dp1
S'com.typemytype.robofont.layerData'
p2
(dp3
S'b'
(dp4
S'name'
p5
S'exclamdown'
p6
sS'lib'
p7
(dp8
sS'unicodes'
p9
(tsS'width'
p10
I468
sS'contours'
p11
(tsS'components'
p12
(tsS'anchors'
p13
(tsss."
LayerCount: 2
Fore
SplineSet
145 -362 m 1
 347 -362 l 1
 290 713 l 1
 214 713 l 1
 145 -362 l 1
144 878 m 1
 349 878 l 1
 349 1084 l 1
 144 1084 l 1
 144 878 l 1
EndSplineSet
EndChar

StartChar: f
Encoding: 102 102 196
Width: 790
VWidth: 0
Flags: W
PickledData: "(dp1
S'com.typemytype.robofont.layerData'
p2
(dp3
S'b'
(dp4
S'name'
p5
S'f'
sS'lib'
p6
(dp7
sS'unicodes'
p8
(tsS'width'
p9
I790
sS'contours'
p10
(tsS'components'
p11
(tsS'anchors'
p12
(tsss."
LayerCount: 2
Fore
SplineSet
287 0 m 1
 475 0 l 1
 475 944 l 1
 732 944 l 1
 732 1060 l 1
 475 1060 l 1
 475 1240 l 2
 475 1316 513 1373 628 1373 c 2
 744 1373 l 1
 727 1506 l 1
 613 1506 l 2
 395 1506 287 1420 287 1222 c 2
 287 1060 l 1
 110 1060 l 1
 110 944 l 1
 287 944 l 1
 287 0 l 1
EndSplineSet
EndChar

StartChar: fi
Encoding: 64257 64257 197
Width: 1248
VWidth: 0
Flags: W
PickledData: "(dp1
S'com.typemytype.robofont.layerData'
p2
(dp3
S'b'
(dp4
S'name'
p5
S'fi'
p6
sS'lib'
p7
(dp8
sS'unicodes'
p9
(tsS'width'
p10
I1248
sS'contours'
p11
(tsS'components'
p12
(tsS'anchors'
p13
(tsss."
LayerCount: 2
Fore
SplineSet
263 0 m 1
 451 0 l 1
 451 943 l 1
 935 943 l 1
 935 1060 l 1
 451 1060 l 1
 451 1180 l 2
 451 1256 457 1313 592 1313 c 2
 663 1313 l 1
 663 1446 l 1
 557 1446 l 2
 339 1446 263 1347 263 1149 c 2
 263 1060 l 1
 101 1060 l 1
 101 943 l 1
 263 943 l 1
 263 0 l 1
864 0 m 1
 1051 0 l 1
 1051 1060 l 1
 864 1060 l 1
 864 0 l 1
864 0 m 1
 1051 0 l 1
 1051 1060 l 1
 864 1060 l 1
 864 0 l 1
864 0 m 1
 1051 0 l 1
 1051 1060 l 1
 864 1060 l 1
 864 0 l 1
864 0 m 1
 1051 0 l 1
 1051 1060 l 1
 864 1060 l 1
 864 0 l 1
864 0 m 1
 1051 0 l 1
 1051 1060 l 1
 864 1060 l 1
 864 0 l 1
864 0 m 1
 1051 0 l 1
 1051 1060 l 1
 864 1060 l 1
 864 0 l 1
864 0 m 1
 1051 0 l 1
 1051 1060 l 1
 864 1060 l 1
 864 0 l 1
853 1233 m 1
 1058 1233 l 1
 1058 1434 l 1
 853 1434 l 1
 853 1233 l 1
853 1233 m 1
 1058 1233 l 1
 1058 1434 l 1
 853 1434 l 1
 853 1233 l 1
853 1233 m 1
 1058 1233 l 1
 1058 1434 l 1
 853 1434 l 1
 853 1233 l 1
853 1233 m 1
 1058 1233 l 1
 1058 1434 l 1
 853 1434 l 1
 853 1233 l 1
853 1233 m 1
 1058 1233 l 1
 1058 1434 l 1
 853 1434 l 1
 853 1233 l 1
853 1233 m 1
 1058 1233 l 1
 1058 1434 l 1
 853 1434 l 1
 853 1233 l 1
853 1233 m 1
 1058 1233 l 1
 1058 1434 l 1
 853 1434 l 1
 853 1233 l 1
EndSplineSet
EndChar

StartChar: five
Encoding: 53 53 198
Width: 1250
VWidth: 0
Flags: W
PickledData: "(dp1
S'com.typemytype.robofont.layerData'
p2
(dp3
S'b'
(dp4
S'name'
p5
S'five'
p6
sS'lib'
p7
(dp8
sS'unicodes'
p9
(tsS'width'
p10
I1250
sS'contours'
p11
(tsS'components'
p12
(tsS'anchors'
p13
(tsss."
LayerCount: 2
Fore
SplineSet
626 -24 m 0
 918 -24 1120 156 1120 466 c 0
 1120 482 1119 499 1118 515 c 0
 1103 762 921 911 667 911 c 0
 566 911 513 878 400 819 c 1
 442 1281 l 1
 1018 1281 l 1
 1018 1446 l 1
 281 1446 l 1
 230 712 l 1
 376 652 l 1
 479 727 540 762 639 762 c 0
 807 762 917 680 927 504 c 0
 928 491 928 478 928 466 c 0
 928 284 837 127 625 127 c 0
 441 127 316 210 220 290 c 1
 166 136 l 1
 252 66 402 -24 626 -24 c 0
EndSplineSet
EndChar

StartChar: fl
Encoding: 64258 64258 199
Width: 1377
VWidth: 0
Flags: W
PickledData: "(dp1
S'com.typemytype.robofont.layerData'
p2
(dp3
S'b'
(dp4
S'name'
p5
S'fl'
p6
sS'lib'
p7
(dp8
sS'unicodes'
p9
(tsS'width'
p10
I1377
sS'contours'
p11
(tsS'components'
p12
(tsS'anchors'
p13
(tsss."
LayerCount: 2
Fore
SplineSet
263 0 m 1
 451 0 l 1
 451 943 l 1
 666 943 l 1
 666 1060 l 1
 451 1060 l 1
 451 1148 l 2
 451 1224 488 1313 622 1313 c 2
 898 1313 l 1
 898 362 l 2
 898 83 1016 0 1248 0 c 2
 1320 0 l 1
 1320 145 l 1
 1291 145 l 2
 1104 145 1086 217 1086 360 c 2
 1086 1446 l 1
 587 1446 l 2
 369 1446 263 1258 263 1060 c 1
 101 1060 l 1
 101 943 l 1
 263 943 l 1
 263 0 l 1
EndSplineSet
EndChar

StartChar: florin
Encoding: 402 402 200
Width: 890
VWidth: 0
Flags: W
PickledData: "(dp1
S'com.typemytype.robofont.layerData'
p2
(dp3
S'b'
(dp4
S'name'
p5
S'florin'
p6
sS'lib'
p7
(dp8
sS'unicodes'
p9
(tsS'width'
p10
I890
sS'contours'
p11
(tsS'components'
p12
(tsS'anchors'
p13
(tsss."
LayerCount: 2
Fore
SplineSet
253 -191 m 0
 494 -191 521 -81 521 91 c 2
 521 727 l 1
 650 727 l 1
 650 858 l 1
 521 858 l 1
 521 1177 l 2
 521 1247 521 1336 668 1336 c 0
 681 1336 695 1335 710 1334 c 1
 710 1458 l 1
 654 1464 594 1466 560 1466 c 0
 353 1466 333 1321 333 1155 c 2
 333 858 l 1
 216 858 l 1
 216 727 l 1
 333 727 l 1
 333 63 l 2
 333 -1 333 -62 201 -62 c 0
 184 -62 164 -61 141 -59 c 1
 141 -183 l 1
 190 -189 220 -191 253 -191 c 0
EndSplineSet
EndChar

StartChar: four
Encoding: 52 52 201
Width: 1250
VWidth: 0
Flags: W
PickledData: "(dp1
S'com.typemytype.robofont.layerData'
p2
(dp3
S'b'
(dp4
S'name'
p5
S'four'
p6
sS'lib'
p7
(dp8
sS'unicodes'
p9
(tsS'width'
p10
I1250
sS'contours'
p11
(tsS'components'
p12
(tsS'anchors'
p13
(tsss."
LayerCount: 2
Fore
SplineSet
783 0 m 1
 950 0 l 1
 950 351 l 1
 1162 351 l 1
 1162 506 l 1
 950 506 l 1
 950 837 l 1
 783 837 l 1
 783 506 l 1
 367 506 l 1
 881 1444 l 1
 672 1444 l 1
 143 508 l 1
 143 351 l 1
 783 351 l 1
 783 0 l 1
EndSplineSet
EndChar

StartChar: fraction
Encoding: 8260 8260 202
Width: 979
VWidth: 0
Flags: W
PickledData: "(dp1
S'com.typemytype.robofont.layerData'
p2
(dp3
S'b'
(dp4
S'name'
p5
S'fraction'
p6
sS'lib'
p7
(dp8
sS'unicodes'
p9
(tsS'width'
p10
I979
sS'contours'
p11
(tsS'components'
p12
(tsS'anchors'
p13
(tsss."
LayerCount: 2
Fore
SplineSet
125 0 m 1
 320 0 l 1
 858 1446 l 1
 665 1446 l 1
 125 0 l 1
EndSplineSet
EndChar

StartChar: g
Encoding: 103 103 203
Width: 1186
VWidth: 0
Flags: W
PickledData: "(dp1
S'com.typemytype.robofont.layerData'
p2
(dp3
S'b'
(dp4
S'name'
p5
S'g'
sS'lib'
p6
(dp7
sS'unicodes'
p8
(tsS'width'
p9
I1186
sS'contours'
p10
(tsS'components'
p11
(tsS'anchors'
p12
(tsss."
LayerCount: 2
Fore
SplineSet
608 -350 m 0
 888 -350 1010 -188 1010 30 c 2
 1010 1060 l 1
 822 1060 l 1
 822 975 l 1
 792 1025 658 1076 550 1076 c 0
 274 1076 148 941 148 728 c 2
 148 377 l 2
 148 157 305 40 576 40 c 0
 649 40 762 69 822 125 c 1
 822 -23 l 2
 822 -100 794 -210 602 -210 c 0
 469 -210 341 -169 302 -143 c 1
 250 -282 l 1
 348 -335 465 -350 608 -350 c 0
575 182 m 0
 437 182 336 221 336 348 c 2
 336 748 l 2
 336 878 430 935 578 935 c 0
 745 935 822 869 822 810 c 2
 822 264 l 1
 792 240 715 182 575 182 c 0
EndSplineSet
EndChar

StartChar: gbreve
Encoding: 287 287 204
Width: 1186
VWidth: 0
Flags: W
PickledData: "(dp1
S'com.typemytype.robofont.layerData'
p2
(dp3
S'b'
(dp4
S'name'
p5
S'gbreve'
p6
sS'lib'
p7
(dp8
sS'unicodes'
p9
(tsS'width'
p10
I1186
sS'contours'
p11
(tsS'components'
p12
(tsS'anchors'
p13
(tsss."
LayerCount: 2
Fore
SplineSet
610 -350 m 0
 890 -350 1017 -188 1017 30 c 2
 1017 1060 l 1
 829 1060 l 1
 829 975 l 1
 799 1025 665 1076 557 1076 c 0
 281 1076 150 941 150 728 c 2
 150 362 l 2
 150 142 312 25 583 25 c 0
 656 25 769 54 829 110 c 1
 829 -23 l 2
 829 -100 796 -210 604 -210 c 0
 471 -210 343 -169 304 -143 c 1
 252 -282 l 1
 350 -335 467 -350 610 -350 c 0
582 167 m 0
 444 167 338 206 338 333 c 2
 338 748 l 2
 338 878 437 935 585 935 c 0
 752 935 829 869 829 810 c 2
 829 249 l 1
 799 225 722 167 582 167 c 0
583 1202 m 0
 722 1202 810 1299 810 1414 c 1
 704 1414 l 1
 704 1345 656 1298 583 1298 c 0
 514 1298 462 1348 462 1414 c 1
 357 1414 l 1
 357 1299 444 1202 583 1202 c 0
EndSplineSet
EndChar

StartChar: gcircumflex
Encoding: 285 285 205
Width: 1186
VWidth: 0
Flags: W
PickledData: "(dp1
S'com.typemytype.robofont.layerData'
p2
(dp3
S'b'
(dp4
S'name'
p5
S'gcircumflex'
p6
sS'lib'
p7
(dp8
sS'unicodes'
p9
(tsS'width'
p10
I1186
sS'contours'
p11
(tsS'components'
p12
(tsS'anchors'
p13
(tsss."
LayerCount: 2
Fore
SplineSet
610 -350 m 0
 890 -350 1017 -188 1017 30 c 2
 1017 1060 l 1
 829 1060 l 1
 829 975 l 1
 799 1025 665 1076 557 1076 c 0
 281 1076 150 941 150 728 c 2
 150 362 l 2
 150 142 312 25 583 25 c 0
 656 25 769 54 829 110 c 1
 829 -23 l 2
 829 -100 796 -210 604 -210 c 0
 471 -210 343 -169 304 -143 c 1
 252 -282 l 1
 350 -335 467 -350 610 -350 c 0
297 1202 m 1
 458 1202 l 1
 590 1376 l 1
 714 1202 l 1
 870 1202 l 1
 664 1468 l 1
 514 1468 l 1
 297 1202 l 1
582 167 m 0
 444 167 338 206 338 333 c 2
 338 748 l 2
 338 878 437 935 585 935 c 0
 752 935 829 869 829 810 c 2
 829 249 l 1
 799 225 722 167 582 167 c 0
EndSplineSet
EndChar

StartChar: gdotaccent
Encoding: 289 289 207
Width: 1186
VWidth: 0
Flags: W
PickledData: "(dp1
S'com.typemytype.robofont.layerData'
p2
(dp3
S'b'
(dp4
S'name'
p5
S'gdotaccent'
p6
sS'lib'
p7
(dp8
sS'unicodes'
p9
(tsS'width'
p10
I1186
sS'contours'
p11
(tsS'components'
p12
(tsS'anchors'
p13
(tsss."
LayerCount: 2
Fore
SplineSet
610 -350 m 0
 890 -350 1017 -188 1017 30 c 2
 1017 1060 l 1
 829 1060 l 1
 829 975 l 1
 799 1025 665 1076 557 1076 c 0
 281 1076 150 941 150 728 c 2
 150 362 l 2
 150 142 312 25 583 25 c 0
 656 25 769 54 829 110 c 1
 829 -23 l 2
 829 -100 796 -210 604 -210 c 0
 471 -210 343 -169 304 -143 c 1
 252 -282 l 1
 350 -335 467 -350 610 -350 c 0
582 167 m 0
 444 167 338 206 338 333 c 2
 338 748 l 2
 338 878 437 935 585 935 c 0
 752 935 829 869 829 810 c 2
 829 249 l 1
 799 225 722 167 582 167 c 0
456.5 1202 m 1
 710.5 1202 l 1
 710.5 1443 l 1
 456.5 1443 l 1
 456.5 1202 l 1
EndSplineSet
EndChar

StartChar: germandbls
Encoding: 223 223 208
Width: 1281
VWidth: 0
Flags: W
PickledData: "(dp1
S'com.typemytype.robofont.layerData'
p2
(dp3
S'b'
(dp4
S'name'
p5
S'germandbls'
p6
sS'lib'
p7
(dp8
sS'unicodes'
p9
(tsS'width'
p10
I1281
sS'contours'
p11
(tsS'components'
p12
(tsS'anchors'
p13
(tsss."
LayerCount: 2
Fore
SplineSet
600 770 m 1
 838 770 991 743 991 485 c 0
 991 182 786 168 518 148 c 1
 536 0 l 1
 942 0 1166 119 1166 488 c 0
 1166 786 1019 829 902 878 c 1
 1010 908 1057 979 1057 1135 c 0
 1057 1347 933 1483 652 1483 c 0
 396 1483 190 1401 190 1103 c 2
 190 0 l 1
 378 0 l 1
 378 1131 l 2
 378 1305 497 1332 643 1332 c 0
 781 1332 869 1296 869 1119 c 0
 869 989 818 912 600 912 c 1
 600 770 l 1
EndSplineSet
EndChar

StartChar: grave
Encoding: 96 96 209
Width: 616
VWidth: 0
Flags: W
PickledData: "(dp1
S'com.typemytype.robofont.layerData'
p2
(dp3
S'b'
(dp4
S'name'
p5
S'grave'
p6
sS'lib'
p7
(dp8
sS'unicodes'
p9
(tsS'width'
p10
I616
sS'contours'
p11
(tsS'components'
p12
(tsS'anchors'
p13
(tsss."
LayerCount: 2
Fore
SplineSet
372 1165 m 1
 478 1165 l 1
 340 1506 l 1
 115 1506 l 1
 372 1165 l 1
EndSplineSet
EndChar

StartChar: greater
Encoding: 62 62 210
Width: 1250
VWidth: 0
Flags: W
PickledData: "(dp1
S'com.typemytype.robofont.layerData'
p2
(dp3
S'b'
(dp4
S'name'
p5
S'greater'
p6
sS'lib'
p7
(dp8
sS'unicodes'
p9
(tsS'width'
p10
I1250
sS'contours'
p11
(tsS'components'
p12
(tsS'anchors'
p13
(tsss."
LayerCount: 2
Fore
SplineSet
198 0 m 1
 1084 472 l 1
 1084 673 l 1
 198 1144 l 1
 198 927 l 1
 919 571 l 1
 198 219 l 1
 198 0 l 1
EndSplineSet
EndChar

StartChar: guillemotleft
Encoding: 171 171 212
Width: 1024
VWidth: 0
Flags: W
PickledData: "(dp1
S'com.typemytype.robofont.layerData'
p2
(dp3
S'b'
(dp4
S'name'
p5
S'less'
p6
sS'lib'
p7
(dp8
sS'unicodes'
p9
(tsS'width'
p10
I1024
sS'contours'
p11
(tsS'components'
p12
(tsS'anchors'
p13
(tsss."
LayerCount: 2
Fore
SplineSet
899 150 m 1
 694 530 l 1
 899 910 l 1
 754 980 l 1
 481 530 l 1
 761 80 l 1
 899 150 l 1
487 150 m 1
 280 530 l 1
 487 910 l 1
 340 980 l 1
 67 530 l 1
 347 80 l 1
 487 150 l 1
EndSplineSet
EndChar

StartChar: guillemotright
Encoding: 187 187 213
Width: 1024
VWidth: 0
Flags: W
PickledData: "(dp1
S'com.typemytype.robofont.layerData'
p2
(dp3
S'b'
(dp4
S'name'
p5
S'less'
p6
sS'lib'
p7
(dp8
sS'unicodes'
p9
(tsS'width'
p10
I1024
sS'contours'
p11
(tsS'components'
p12
(tsS'anchors'
p13
(tsss."
LayerCount: 2
Fore
SplineSet
154 910 m 1
 359 530 l 1
 154 150 l 1
 299 80 l 1
 572 530 l 1
 292 980 l 1
 154 910 l 1
566 910 m 1
 773 530 l 1
 566 150 l 1
 713 80 l 1
 986 530 l 1
 706 980 l 1
 566 910 l 1
EndSplineSet
EndChar

StartChar: h
Encoding: 104 104 216
Width: 1224
VWidth: 0
Flags: W
PickledData: "(dp1
S'com.typemytype.robofont.layerData'
p2
(dp3
S'b'
(dp4
S'name'
p5
S'h'
sS'lib'
p6
(dp7
sS'unicodes'
p8
(tsS'width'
p9
I1224
sS'contours'
p10
(tsS'components'
p11
(tsS'anchors'
p12
(tsss."
LayerCount: 2
Fore
SplineSet
186 -1 m 1
 374 -1 l 1
 374 758 l 2
 374 860 456 941 640 941 c 0
 771 941 860 891 860 786 c 2
 860 -1 l 1
 1048 -1 l 1
 1048 773 l 2
 1048 941 949 1083 688 1083 c 0
 534 1083 436 1032 374 960 c 1
 374 1505 l 1
 186 1505 l 1
 186 -1 l 1
EndSplineSet
EndChar

StartChar: hcircumflex
Encoding: 293 293 218
Width: 1214
VWidth: 0
Flags: W
PickledData: "(dp1
S'com.typemytype.robofont.layerData'
p2
(dp3
S'b'
(dp4
S'name'
p5
S'hcircumflex'
p6
sS'lib'
p7
(dp8
sS'unicodes'
p9
(tsS'width'
p10
I1214
sS'contours'
p11
(tsS'components'
p12
(tsS'anchors'
p13
(tsss."
LayerCount: 2
Fore
SplineSet
177 0 m 1
 365 0 l 1
 365 759 l 2
 365 861 450 942 634 942 c 0
 765 942 864 892 864 787 c 2
 864 0 l 1
 1052 0 l 1
 1052 774 l 2
 1052 942 943 1084 682 1084 c 0
 528 1084 427 1033 365 961 c 1
 365 1446 l 1
 177 1446 l 1
 177 0 l 1
328 1568 m 1
 489 1568 l 1
 621 1742 l 1
 745 1568 l 1
 901 1568 l 1
 695 1834 l 1
 545 1834 l 1
 328 1568 l 1
EndSplineSet
EndChar

StartChar: hungarumlaut
Encoding: 733 733 219
Width: 1024
VWidth: 0
Flags: W
PickledData: "(dp1
S'com.typemytype.robofont.layerData'
p2
(dp3
S'b'
(dp4
S'name'
p5
S'hungarumlaut'
p6
sS'lib'
p7
(dp8
sS'unicodes'
p9
(tsS'width'
p10
I1024
sS'contours'
p11
(tsS'components'
p12
(tsS'anchors'
p13
(tsss."
LayerCount: 2
Fore
SplineSet
154 1031 m 1
 252 1031 l 1
 471 1506 l 1
 260 1506 l 1
 154 1031 l 1
451 1031 m 1
 574 1031 l 1
 870 1506 l 1
 651 1506 l 1
 451 1031 l 1
EndSplineSet
EndChar

StartChar: hyphen
Encoding: 45 45 220
Width: 1024
VWidth: 0
Flags: W
PickledData: "(dp1
S'com.typemytype.robofont.layerData'
p2
(dp3
S'b'
(dp4
S'name'
p5
S'hyphen'
p6
sS'lib'
p7
(dp8
sS'unicodes'
p9
(tsS'width'
p10
I1024
sS'contours'
p11
(tsS'components'
p12
(tsS'anchors'
p13
(tsss."
LayerCount: 2
Fore
SplineSet
162 494 m 1
 862 494 l 1
 862 642 l 1
 162 642 l 1
 162 494 l 1
EndSplineSet
EndChar

StartChar: i
Encoding: 105 105 221
Width: 596
VWidth: 0
Flags: W
PickledData: "(dp1
S'com.typemytype.robofont.layerData'
p2
(dp3
S'b'
(dp4
S'name'
p5
S'i'
sS'lib'
p6
(dp7
sS'unicodes'
p8
(tsS'width'
p9
I596
sS'contours'
p10
(tsS'components'
p11
(tsS'anchors'
p12
(tsss."
LayerCount: 2
Fore
SplineSet
206 0 m 1
 394 0 l 1
 394 1060 l 1
 206 1060 l 1
 206 0 l 1
206 1251 m 1
 394 1251 l 1
 394 1446 l 1
 206 1446 l 1
 206 1251 l 1
EndSplineSet
EndChar

StartChar: iacute
Encoding: 237 237 222
Width: 512
VWidth: 0
Flags: W
PickledData: "(dp1
S'com.typemytype.robofont.layerData'
p2
(dp3
S'b'
(dp4
S'name'
p5
S'iacute'
p6
sS'lib'
p7
(dp8
sS'unicodes'
p9
(tsS'width'
p10
I512
sS'contours'
p11
(tsS'components'
p12
(tsS'anchors'
p13
(tsss."
LayerCount: 2
Fore
SplineSet
332 1165 m 1
 438 1165 l 1
 300 1506 l 1
 76 1506 l 1
 332 1165 l 1
EndSplineSet
EndChar

StartChar: icircumflex
Encoding: 238 238 224
Width: 512
VWidth: 0
Flags: W
PickledData: "(dp1
S'com.typemytype.robofont.layerData'
p2
(dp3
S'b'
(dp4
S'name'
p5
S'icircumflex'
p6
sS'lib'
p7
(dp8
sS'unicodes'
p9
(tsS'width'
p10
I512
sS'contours'
p11
(tsS'components'
p12
(tsS'anchors'
p13
(tsss."
LayerCount: 2
Fore
SplineSet
-30 1240 m 1
 130 1240 l 1
 262 1414 l 1
 386 1240 l 1
 542 1240 l 1
 336 1506 l 1
 186 1506 l 1
 -30 1240 l 1
EndSplineSet
EndChar

StartChar: idieresis
Encoding: 239 239 225
Width: 512
VWidth: 0
Flags: W
PickledData: "(dp1
S'com.typemytype.robofont.layerData'
p2
(dp3
S'b'
(dp4
S'name'
p5
S'idieresis'
p6
sS'lib'
p7
(dp8
sS'unicodes'
p9
(tsS'width'
p10
I512
sS'contours'
p11
(tsS'components'
p12
(tsS'anchors'
p13
(tsss."
LayerCount: 2
Fore
SplineSet
-98 1325 m 1
 108 1325 l 1
 108 1506 l 1
 -98 1506 l 1
 -98 1325 l 1
404 1325 m 1
 610 1325 l 1
 610 1506 l 1
 404 1506 l 1
 404 1325 l 1
EndSplineSet
EndChar

StartChar: igrave
Encoding: 236 236 226
Width: 512
VWidth: 0
Flags: W
PickledData: "(dp1
S'com.typemytype.robofont.layerData'
p2
(dp3
S'b'
(dp4
S'name'
p5
S'igrave'
p6
sS'lib'
p7
(dp8
sS'unicodes'
p9
(tsS'width'
p10
I512
sS'contours'
p11
(tsS'components'
p12
(tsS'anchors'
p13
(tsss."
LayerCount: 2
Fore
SplineSet
332 1165 m 1
 438 1165 l 1
 300 1506 l 1
 76 1506 l 1
 332 1165 l 1
EndSplineSet
EndChar

StartChar: j
Encoding: 106 106 233
Width: 602
VWidth: 0
Flags: W
PickledData: "(dp1
S'com.typemytype.robofont.layerData'
p2
(dp3
S'b'
(dp4
S'name'
p5
S'j'
sS'lib'
p6
(dp7
sS'unicodes'
p8
(tsS'width'
p9
I602
sS'contours'
p10
(tsS'components'
p11
(tsS'anchors'
p12
(tsss."
LayerCount: 2
Fore
SplineSet
32 -251 m 1
 138 -251 l 2
 314 -251 420 -153 420 9 c 2
 420 1060 l 1
 232 1060 l 1
 232 26 l 2
 232 -14 235 -117 102 -117 c 2
 32 -117 l 1
 32 -251 l 1
232 1251 m 1
 420 1251 l 1
 420 1446 l 1
 232 1446 l 1
 232 1251 l 1
EndSplineSet
EndChar

StartChar: k
Encoding: 107 107 235
Width: 1148
VWidth: 0
Flags: W
PickledData: "(dp1
S'com.typemytype.robofont.layerData'
p2
(dp3
S'b'
(dp4
S'name'
p5
S'k'
sS'lib'
p6
(dp7
sS'unicodes'
p8
(tsS'width'
p9
I1148
sS'contours'
p10
(tsS'components'
p11
(tsS'anchors'
p12
(tsss."
LayerCount: 2
Fore
SplineSet
186 0 m 1
 374 0 l 1
 374 354 l 1
 521 498 l 1
 913 0 l 1
 1130 0 l 1
 665 583 l 1
 1087 1060 l 1
 879 1060 l 1
 710 877 544 692 374 510 c 1
 374 1506 l 1
 186 1506 l 1
 186 0 l 1
EndSplineSet
EndChar

StartChar: l
Encoding: 108 108 238
Width: 708
VWidth: 0
Flags: W
PickledData: "(dp1
S'com.typemytype.robofont.layerData'
p2
(dp3
S'b'
(dp4
S'name'
p5
S'l'
sS'lib'
p6
(dp7
sS'unicodes'
p8
(tsS'width'
p9
I708
sS'contours'
p10
(tsS'components'
p11
(tsS'anchors'
p12
(tsss."
LayerCount: 2
Fore
SplineSet
534 -9 m 2
 588 -9 l 1
 610 135 l 1
 577 135 l 2
 420 135 382 183 382 356 c 2
 382 1505 l 1
 194 1505 l 1
 194 358 l 2
 194 49 302 -9 534 -9 c 2
EndSplineSet
EndChar

StartChar: less
Encoding: 60 60 243
Width: 1250
VWidth: 0
Flags: W
PickledData: "(dp1
S'com.typemytype.robofont.layerData'
p2
(dp3
S'b'
(dp4
S'name'
p5
S'less'
p6
sS'lib'
p7
(dp8
sS'unicodes'
p9
(tsS'width'
p10
I1250
sS'contours'
p11
(tsS'components'
p12
(tsS'anchors'
p13
(tsss."
LayerCount: 2
Fore
SplineSet
1042 0 m 1
 1042 217 l 1
 321 573 l 1
 1042 925 l 1
 1042 1144 l 1
 156 672 l 1
 156 471 l 1
 1042 0 l 1
EndSplineSet
EndChar

StartChar: logicalnot
Encoding: 172 172 245
Width: 864
VWidth: 0
Flags: W
PickledData: "(dp1
S'com.typemytype.robofont.layerData'
p2
(dp3
S'b'
(dp4
S'name'
p5
S'logicalnot'
p6
sS'lib'
p7
(dp8
sS'unicodes'
p9
(tsS'width'
p10
I864
sS'contours'
p11
(tsS'components'
p12
(tsS'anchors'
p13
(tsss."
LayerCount: 2
Fore
SplineSet
589 333 m 1
 721 333 l 1
 721 692 l 1
 98 692 l 1
 98 556 l 1
 589 556 l 1
 589 333 l 1
EndSplineSet
EndChar

StartChar: m
Encoding: 109 109 248
Width: 1860
VWidth: 0
Flags: W
PickledData: "(dp1
S'com.typemytype.robofont.layerData'
p2
(dp3
S'b'
(dp4
S'name'
p5
S'm'
sS'lib'
p6
(dp7
sS'unicodes'
p8
(tsS'width'
p9
I1860
sS'contours'
p10
(tsS'components'
p11
(tsS'anchors'
p12
(tsss."
LayerCount: 2
Fore
SplineSet
186 0 m 1
 374 0 l 1
 374 755 l 2
 374 857 446 938 630 938 c 0
 761 938 844 888 844 783 c 2
 844 0 l 1
 1032 0 l 1
 1032 755 l 2
 1032 857 1104 938 1288 938 c 0
 1419 938 1496 888 1496 783 c 2
 1496 0 l 1
 1684 0 l 1
 1684 770 l 2
 1684 938 1597 1080 1336 1080 c 0
 1182 1080 1081 1032 1014 965 c 1
 989 941 l 1
 939 1024 842 1080 678 1080 c 0
 524 1080 436 1029 374 957 c 1
 374 1060 l 1
 186 1060 l 1
 186 0 l 1
EndSplineSet
EndChar

StartChar: macron
Encoding: 175 175 249
Width: 513
VWidth: 0
Flags: W
PickledData: "(dp1
S'com.typemytype.robofont.layerData'
p2
(dp3
S'b'
(dp4
S'name'
p5
S'macron'
p6
sS'lib'
p7
(dp8
sS'unicodes'
p9
(tsS'width'
p10
I513
sS'contours'
p11
(tsS'components'
p12
(tsS'anchors'
p13
(tsss."
LayerCount: 2
Fore
SplineSet
56 1354 m 1
 457 1354 l 1
 457 1506 l 1
 56 1506 l 1
 56 1354 l 1
EndSplineSet
EndChar

StartChar: minus
Encoding: 8722 8722 250
Width: 911
VWidth: 0
Flags: W
PickledData: "(dp1
S'com.typemytype.robofont.layerData'
p2
(dp3
S'b'
(dp4
S'name'
p5
S'minus'
p6
sS'lib'
p7
(dp8
sS'unicodes'
p9
(tsS'width'
p10
I911
sS'contours'
p11
(tsS'components'
p12
(tsS'anchors'
p13
(tsss."
LayerCount: 2
Fore
SplineSet
142 439 m 1
 769 439 l 1
 769 609 l 1
 142 609 l 1
 142 439 l 1
EndSplineSet
EndChar

StartChar: multiply
Encoding: 215 215 251
Width: 973
VWidth: 0
Flags: W
PickledData: "(dp1
S'com.typemytype.robofont.layerData'
p2
(dp3
S'b'
(dp4
S'name'
p5
S'multiply'
p6
sS'lib'
p7
(dp8
sS'unicodes'
p9
(tsS'width'
p10
I973
sS'contours'
p11
(tsS'components'
p12
(tsS'anchors'
p13
(tsss."
LayerCount: 2
Fore
SplineSet
239 216 m 1
 487 458 l 1
 735 216 l 1
 844 344 l 1
 608 576 l 1
 844 806 l 1
 735 937 l 1
 487 694 l 1
 239 937 l 1
 129 806 l 1
 366 576 l 1
 129 344 l 1
 239 216 l 1
EndSplineSet
EndChar

StartChar: n
Encoding: 110 110 252
Width: 1224
VWidth: 0
Flags: W
PickledData: "(dp1
S'com.typemytype.robofont.layerData'
p2
(dp3
S'b'
(dp4
S'name'
p5
S'n'
sS'lib'
p6
(dp7
sS'unicodes'
p8
(tsS'width'
p9
I1224
sS'contours'
p10
(tsS'components'
p11
(tsS'anchors'
p12
(tsss."
LayerCount: 2
Fore
SplineSet
186 0 m 1
 374 0 l 1
 374 755 l 2
 374 857 454 938 638 938 c 0
 769 938 860 888 860 783 c 2
 860 0 l 1
 1048 0 l 1
 1048 770 l 2
 1048 938 947 1080 686 1080 c 0
 532 1080 436 1029 374 957 c 1
 374 1060 l 1
 186 1060 l 1
 186 0 l 1
EndSplineSet
EndChar

StartChar: nine
Encoding: 57 57 257
Width: 1250
VWidth: 0
Flags: W
PickledData: "(dp1
S'com.typemytype.robofont.layerData'
p2
(dp3
S'b'
(dp4
S'name'
p5
S'nine'
p6
sS'lib'
p7
(dp8
sS'unicodes'
p9
(tsS'width'
p10
I1250
sS'contours'
p11
(tsS'components'
p12
(tsS'anchors'
p13
(tsss."
LayerCount: 2
Fore
SplineSet
453 0 m 1
 665 0 l 1
 997 565 l 2
 1096 734 1146 894 1146 1036 c 0
 1146 1356 949 1483 658 1483 c 0
 366 1483 136 1358 136 1040 c 0
 136 710 352 584 643 584 c 0
 706 584 786 602 831 621 c 1
 453 0 l 1
651 731 m 0
 462 731 337 794 337 1040 c 0
 337 1275 463 1345 653 1345 c 0
 845 1345 957 1271 957 1037 c 0
 957 795 843 731 651 731 c 0
EndSplineSet
EndChar

StartChar: numbersign
Encoding: 35 35 260
Width: 1250
VWidth: 0
Flags: W
PickledData: "(dp1
S'com.typemytype.robofont.layerData'
p2
(dp3
S'b'
(dp4
S'name'
p5
S'numbersign'
p6
sS'lib'
p7
(dp8
sS'unicodes'
p9
(tsS'width'
p10
I1250
sS'contours'
p11
(tsS'components'
p12
(tsS'anchors'
p13
(tsss."
LayerCount: 2
Fore
SplineSet
163 0 m 1
 341 0 l 1
 425 475 l 1
 723 475 l 1
 636 0 l 1
 814 0 l 1
 898 475 l 1
 1157 475 l 1
 1157 594 l 1
 919 594 l 1
 975 910 l 1
 1181 910 l 1
 1181 1029 l 1
 996 1029 l 1
 1070 1446 l 1
 900 1446 l 1
 824 1029 l 1
 523 1029 l 1
 597 1446 l 1
 427 1446 l 1
 351 1029 l 1
 93 1029 l 1
 93 910 l 1
 329 910 l 1
 272 594 l 1
 69 594 l 1
 69 475 l 1
 250 475 l 1
 163 0 l 1
446 594 m 1
 502 910 l 1
 802 910 l 1
 745 594 l 1
 446 594 l 1
EndSplineSet
EndChar

StartChar: o
Encoding: 111 111 261
Width: 1162
VWidth: 0
Flags: W
PickledData: "(dp1
S'com.typemytype.robofont.layerData'
p2
(dp3
S'b'
(dp4
S'name'
p5
S'o'
sS'lib'
p6
(dp7
sS'unicodes'
p8
(tsS'width'
p9
I1162
sS'contours'
p10
(tsS'components'
p11
(tsS'anchors'
p12
(tsss."
LayerCount: 2
Fore
SplineSet
581 121 m 0
 434 121 336 170 336 301 c 2
 336 763 l 2
 336 894 442 938 581 938 c 0
 726 938 826 888 826 763 c 2
 826 301 l 2
 826 171 720 121 581 121 c 0
581 -20 m 0
 910 -20 1014 122 1014 317 c 2
 1014 747 l 2
 1014 947 844 1080 581 1080 c 0
 318 1080 148 947 148 747 c 2
 148 317 l 2
 148 121 265 -20 581 -20 c 0
EndSplineSet
EndChar

StartChar: oacute
Encoding: 243 243 262
Width: 1167
VWidth: 0
Flags: W
PickledData: "(dp1
S'com.typemytype.robofont.layerData'
p2
(dp3
S'b'
(dp4
S'name'
p5
S'oacute'
p6
sS'lib'
p7
(dp8
sS'unicodes'
p9
(tsS'width'
p10
I1167
sS'contours'
p11
(tsS'components'
p12
(tsS'anchors'
p13
(tsss."
LayerCount: 2
Fore
SplineSet
583 121 m 0
 436 121 338 170 338 301 c 2
 338 763 l 2
 338 894 444 938 583 938 c 0
 728 938 829 888 829 763 c 2
 829 301 l 2
 829 171 722 121 583 121 c 0
583 -20 m 0
 912 -20 1017 122 1017 317 c 2
 1017 747 l 2
 1017 947 846 1080 583 1080 c 0
 320 1080 150 947 150 747 c 2
 150 317 l 2
 150 121 267 -20 583 -20 c 0
659 1202 m 1
 765 1202 l 1
 627 1543 l 1
 402 1543 l 1
 659 1202 l 1
EndSplineSet
EndChar

StartChar: ocircumflex
Encoding: 244 244 264
Width: 1167
VWidth: 0
Flags: W
PickledData: "(dp1
S'com.typemytype.robofont.layerData'
p2
(dp3
S'b'
(dp4
S'name'
p5
S'ocircumflex'
p6
sS'lib'
p7
(dp8
sS'unicodes'
p9
(tsS'width'
p10
I1167
sS'contours'
p11
(tsS'components'
p12
(tsS'anchors'
p13
(tsss."
LayerCount: 2
Fore
SplineSet
297 1202 m 1
 458 1202 l 1
 590 1376 l 1
 714 1202 l 1
 870 1202 l 1
 664 1468 l 1
 514 1468 l 1
 297 1202 l 1
583 121 m 0
 436 121 338 170 338 301 c 2
 338 763 l 2
 338 894 444 938 583 938 c 0
 728 938 829 888 829 763 c 2
 829 301 l 2
 829 171 722 121 583 121 c 0
583 -20 m 0
 912 -20 1017 122 1017 317 c 2
 1017 747 l 2
 1017 947 846 1080 583 1080 c 0
 320 1080 150 947 150 747 c 2
 150 317 l 2
 150 121 267 -20 583 -20 c 0
EndSplineSet
EndChar

StartChar: odieresis
Encoding: 246 246 265
Width: 1167
VWidth: 0
Flags: W
PickledData: "(dp1
S'com.typemytype.robofont.layerData'
p2
(dp3
S'b'
(dp4
S'name'
p5
S'odieresis'
p6
sS'lib'
p7
(dp8
sS'unicodes'
p9
(tsS'width'
p10
I1167
sS'contours'
p11
(tsS'components'
p12
(tsS'anchors'
p13
(tsss."
LayerCount: 2
Fore
SplineSet
583 121 m 0
 436 121 338 170 338 301 c 2
 338 763 l 2
 338 894 444 938 583 938 c 0
 728 938 829 888 829 763 c 2
 829 301 l 2
 829 171 722 121 583 121 c 0
583 -20 m 0
 912 -20 1017 122 1017 317 c 2
 1017 747 l 2
 1017 947 846 1080 583 1080 c 0
 320 1080 150 947 150 747 c 2
 150 317 l 2
 150 121 267 -20 583 -20 c 0
229 1202 m 1
 435 1202 l 1
 435 1383 l 1
 229 1383 l 1
 229 1202 l 1
732 1202 m 1
 938 1202 l 1
 938 1383 l 1
 732 1383 l 1
 732 1202 l 1
EndSplineSet
EndChar

StartChar: oe
Encoding: 339 339 266
Width: 1734
VWidth: 0
Flags: W
PickledData: "(dp1
S'com.typemytype.robofont.layerData'
p2
(dp3
S'b'
(dp4
S'name'
p5
S'oe'
p6
sS'lib'
p7
(dp8
sS'unicodes'
p9
(tsS'width'
p10
I1734
sS'contours'
p11
(tsS'components'
p12
(tsS'anchors'
p13
(tsss."
LayerCount: 2
Fore
SplineSet
1198 -20 m 0
 1488 -20 1582 73 1603 331 c 1
 1433 331 l 1
 1420 148 1364 121 1198 121 c 0
 1051 121 979 186 979 328 c 2
 979 506 l 1
 1604 506 l 1
 1604 758 l 2
 1604 959 1474 1080 1198 1080 c 0
 1053 1080 949 1043 883 950 c 1
 813 1043 707 1080 569 1080 c 0
 306 1080 150 947 150 747 c 2
 150 317 l 2
 150 121 253 -20 569 -20 c 0
 730 -20 822 34 883 122 c 1
 947 35 1054 -20 1198 -20 c 0
569 121 m 0
 422 121 338 170 338 301 c 2
 338 763 l 2
 338 894 430 938 569 938 c 0
 714 938 791 888 791 763 c 2
 791 301 l 2
 791 171 708 121 569 121 c 0
979 633 m 1
 979 760 l 2
 979 891 1048 938 1198 938 c 0
 1343 938 1422 906 1422 778 c 2
 1422 633 l 1
 979 633 l 1
EndSplineSet
EndChar

StartChar: ogonek
Encoding: 731 731 267
Width: 512
VWidth: 0
Flags: W
PickledData: "(dp1
S'com.typemytype.robofont.layerData'
p2
(dp3
S'b'
(dp4
S'name'
p5
S'cedilla'
p6
sS'lib'
p7
(dp8
sS'unicodes'
p9
(tsS'width'
p10
I512
sS'contours'
p11
(tsS'components'
p12
(tsS'anchors'
p13
(tsss."
LayerCount: 2
Fore
SplineSet
213 -486 m 0
 378 -486 460 -397 460 -303 c 0
 460 -214 386 -120 239 -94 c 1
 233 0 l 1
 171 0 l 1
 171 -158 l 1
 271 -161 331 -229 331 -290 c 0
 331 -342 289 -389 191 -389 c 0
 170 -389 146 -387 120 -382 c 1
 120 -478 l 1
 154 -484 185 -486 213 -486 c 0
EndSplineSet
EndChar

StartChar: ograve
Encoding: 242 242 268
Width: 1167
VWidth: 0
Flags: W
PickledData: "(dp1
S'com.typemytype.robofont.layerData'
p2
(dp3
S'b'
(dp4
S'name'
p5
S'ograve'
p6
sS'lib'
p7
(dp8
sS'unicodes'
p9
(tsS'width'
p10
I1167
sS'contours'
p11
(tsS'components'
p12
(tsS'anchors'
p13
(tsss."
LayerCount: 2
Fore
SplineSet
583 121 m 0
 436 121 338 170 338 301 c 2
 338 763 l 2
 338 894 444 938 583 938 c 0
 728 938 829 888 829 763 c 2
 829 301 l 2
 829 171 722 121 583 121 c 0
583 -20 m 0
 912 -20 1017 122 1017 317 c 2
 1017 747 l 2
 1017 947 846 1080 583 1080 c 0
 320 1080 150 947 150 747 c 2
 150 317 l 2
 150 121 267 -20 583 -20 c 0
659 1202 m 1
 765 1202 l 1
 627 1543 l 1
 402 1543 l 1
 659 1202 l 1
EndSplineSet
EndChar

StartChar: one
Encoding: 49 49 271
Width: 1250
VWidth: 0
Flags: W
PickledData: "(dp1
S'com.typemytype.robofont.layerData'
p2
(dp3
S'b'
(dp4
S'name'
p5
S'one'
p6
sS'lib'
p7
(dp8
sS'unicodes'
p9
(tsS'width'
p10
I1250
sS'contours'
p11
(tsS'components'
p12
(tsS'anchors'
p13
(tsss."
LayerCount: 2
Fore
SplineSet
218 0 m 1
 1174 0 l 1
 1174 155 l 1
 820 155 l 1
 820 1446 l 1
 656 1446 l 1
 227 1396 l 1
 245 1237 l 1
 619 1277 l 1
 619 155 l 1
 218 155 l 1
 218 0 l 1
EndSplineSet
EndChar

StartChar: onesuperior
Encoding: 185 185 274
Width: 1050
VWidth: 0
Flags: W
PickledData: "(dp1
S'com.typemytype.robofont.layerData'
p2
(dp3
S'b'
(dp4
S'name'
p5
S'onesuperior'
p6
sS'lib'
p7
(dp8
sS'unicodes'
p9
(tsS'width'
p10
I1050
sS'contours'
p11
(tsS'components'
p12
(tsS'anchors'
p13
(tsss."
LayerCount: 2
Fore
SplineSet
207 654 m 1
 843 654 l 1
 843 755 l 1
 612 755 l 1
 612 1505 l 1
 505 1505 l 1
 213 1472 l 1
 225 1368 l 1
 481 1394 l 1
 481 755 l 1
 207 755 l 1
 207 654 l 1
EndSplineSet
EndChar

StartChar: oslash
Encoding: 248 248 277
Width: 1167
VWidth: 0
Flags: W
PickledData: "(dp1
S'com.typemytype.robofont.layerData'
p2
(dp3
S'b'
(dp4
S'name'
p5
S'oslash'
p6
sS'lib'
p7
(dp8
sS'unicodes'
p9
(tsS'width'
p10
I1167
sS'contours'
p11
(tsS'components'
p12
(tsS'anchors'
p13
(tsss."
LayerCount: 2
Fore
SplineSet
583 121 m 0
 436 121 338 170 338 301 c 2
 338 763 l 2
 338 894 444 938 583 938 c 0
 728 938 829 888 829 763 c 2
 829 301 l 2
 829 171 722 121 583 121 c 0
583 121 m 0
 436 121 338 170 338 301 c 2
 338 763 l 2
 338 894 444 938 583 938 c 0
 728 938 829 888 829 763 c 2
 829 301 l 2
 829 171 722 121 583 121 c 0
583 121 m 0
 436 121 338 170 338 301 c 2
 338 763 l 2
 338 894 444 938 583 938 c 0
 728 938 829 888 829 763 c 2
 829 301 l 2
 829 171 722 121 583 121 c 0
583 121 m 0
 436 121 338 170 338 301 c 2
 338 763 l 2
 338 894 444 938 583 938 c 0
 728 938 829 888 829 763 c 2
 829 301 l 2
 829 171 722 121 583 121 c 0
583 121 m 0
 436 121 338 170 338 301 c 2
 338 763 l 2
 338 894 444 938 583 938 c 0
 728 938 829 888 829 763 c 2
 829 301 l 2
 829 171 722 121 583 121 c 0
583 121 m 0
 436 121 338 170 338 301 c 2
 338 763 l 2
 338 894 444 938 583 938 c 0
 728 938 829 888 829 763 c 2
 829 301 l 2
 829 171 722 121 583 121 c 0
583 121 m 0
 436 121 338 170 338 301 c 2
 338 763 l 2
 338 894 444 938 583 938 c 0
 728 938 829 888 829 763 c 2
 829 301 l 2
 829 171 722 121 583 121 c 0
583 -20 m 0
 912 -20 1017 122 1017 317 c 2
 1017 747 l 2
 1017 947 846 1080 583 1080 c 0
 320 1080 150 947 150 747 c 2
 150 317 l 2
 150 121 267 -20 583 -20 c 0
583 -20 m 0
 912 -20 1017 122 1017 317 c 2
 1017 747 l 2
 1017 947 846 1080 583 1080 c 0
 320 1080 150 947 150 747 c 2
 150 317 l 2
 150 121 267 -20 583 -20 c 0
583 -20 m 0
 912 -20 1017 122 1017 317 c 2
 1017 747 l 2
 1017 947 846 1080 583 1080 c 0
 320 1080 150 947 150 747 c 2
 150 317 l 2
 150 121 267 -20 583 -20 c 0
583 -20 m 0
 912 -20 1017 122 1017 317 c 2
 1017 747 l 2
 1017 947 846 1080 583 1080 c 0
 320 1080 150 947 150 747 c 2
 150 317 l 2
 150 121 267 -20 583 -20 c 0
583 -20 m 0
 912 -20 1017 122 1017 317 c 2
 1017 747 l 2
 1017 947 846 1080 583 1080 c 0
 320 1080 150 947 150 747 c 2
 150 317 l 2
 150 121 267 -20 583 -20 c 0
583 -20 m 0
 912 -20 1017 122 1017 317 c 2
 1017 747 l 2
 1017 947 846 1080 583 1080 c 0
 320 1080 150 947 150 747 c 2
 150 317 l 2
 150 121 267 -20 583 -20 c 0
583 -20 m 0
 912 -20 1017 122 1017 317 c 2
 1017 747 l 2
 1017 947 846 1080 583 1080 c 0
 320 1080 150 947 150 747 c 2
 150 317 l 2
 150 121 267 -20 583 -20 c 0
363 -226 m 1
 901 1220 l 1
 811 1251 l 1
 271 -195 l 1
 363 -226 l 1
EndSplineSet
EndChar

StartChar: p
Encoding: 112 112 279
Width: 1200
VWidth: 0
Flags: W
PickledData: "(dp1
S'com.typemytype.robofont.layerData'
p2
(dp3
S'b'
(dp4
S'name'
p5
S'p'
sS'lib'
p6
(dp7
sS'unicodes'
p8
(tsS'width'
p9
I1200
sS'contours'
p10
(tsS'components'
p11
(tsS'anchors'
p12
(tsss."
LayerCount: 2
Fore
SplineSet
186 -408 m 1
 374 -408 l 1
 374 34 l 1
 425 8 505 -24 624 -24 c 0
 900 -24 1052 131 1052 344 c 2
 1052 729 l 2
 1052 933 919 1076 648 1076 c 0
 527 1076 412 1030 356 980 c 1
 334 1060 l 1
 186 1060 l 1
 186 -408 l 1
612 117 m 0
 503 117 422 152 374 179 c 1
 374 824 l 1
 391 850 486 934 619 934 c 0
 757 934 864 869 864 742 c 2
 864 324 l 2
 864 194 760 117 612 117 c 0
EndSplineSet
EndChar

StartChar: paragraph
Encoding: 182 182 280
Width: 1250
VWidth: 0
Flags: W
PickledData: "(dp1
S'com.typemytype.robofont.layerData'
p2
(dp3
S'b'
(dp4
S'name'
p5
S'paragraph'
p6
sS'lib'
p7
(dp8
sS'unicodes'
p9
(tsS'width'
p10
I1250
sS'contours'
p11
(tsS'components'
p12
(tsS'anchors'
p13
(tsss."
LayerCount: 2
Fore
SplineSet
485 0 m 1
 621 0 l 1
 621 1338 l 1
 825 1338 l 1
 825 0 l 1
 961 0 l 1
 961 1446 l 1
 521 1446 l 2
 327 1446 168 1372 168 1156 c 0
 168 976 313 874 485 870 c 1
 485 0 l 1
EndSplineSet
EndChar

StartChar: parenleft
Encoding: 40 40 281
Width: 768
VWidth: 0
Flags: W
PickledData: "(dp1
S'com.typemytype.robofont.layerData'
p2
(dp3
S'b'
(dp4
S'name'
p5
S'parenleft'
p6
sS'lib'
p7
(dp8
sS'unicodes'
p9
(tsS'width'
p10
I768
sS'contours'
p11
(tsS'components'
p12
(tsS'anchors'
p13
(tsss."
LayerCount: 2
Fore
SplineSet
644 -150 m 1
 644 0 l 1
 366 0 364 153 364 409 c 2
 364 996 l 2
 364 1253 366 1416 644 1416 c 1
 644 1567 l 1
 174 1567 172 1265 172 959 c 2
 172 440 l 2
 172 139 174 -150 644 -150 c 1
EndSplineSet
EndChar

StartChar: parenright
Encoding: 41 41 282
Width: 768
VWidth: 0
Flags: W
PickledData: "(dp1
S'com.typemytype.robofont.layerData'
p2
(dp3
S'b'
(dp4
S'name'
p5
S'parenright'
p6
sS'lib'
p7
(dp8
sS'unicodes'
p9
(tsS'width'
p10
I768
sS'contours'
p11
(tsS'components'
p12
(tsS'anchors'
p13
(tsss."
LayerCount: 2
Fore
SplineSet
124 1567 m 1
 124 1417 l 1
 402 1417 404 1264 404 1008 c 2
 404 421 l 2
 404 164 402 1 124 1 c 1
 124 -150 l 1
 594 -150 596 152 596 458 c 2
 596 977 l 2
 596 1278 594 1567 124 1567 c 1
EndSplineSet
EndChar

StartChar: percent
Encoding: 37 37 283
Width: 2048
VWidth: 0
Flags: W
PickledData: "(dp1
S'com.typemytype.robofont.layerData'
p2
(dp3
S'b'
(dp4
S'name'
p5
S'percent'
p6
sS'lib'
p7
(dp8
sS'unicodes'
p9
(tsS'width'
p10
I2048
sS'contours'
p11
(tsS'components'
p12
(tsS'anchors'
p13
(tsss."
LayerCount: 2
Fore
SplineSet
470 794 m 0
 332 794 315 899 315 1040 c 2
 315 1135 l 2
 315 1271 327 1365 470 1365 c 0
 614 1365 627 1271 627 1133 c 2
 627 1040 l 2
 627 899 608 794 470 794 c 0
470 678 m 0
 700 678 772 828 772 1057 c 2
 772 1111 l 1
 770 1344 700 1481 470 1481 c 0
 239 1481 172 1343 172 1110 c 2
 172 1057 l 2
 172 829 240 678 470 678 c 0
1574 97 m 0
 1436 97 1419 202 1419 343 c 2
 1419 438 l 2
 1419 574 1431 668 1574 668 c 0
 1718 668 1731 574 1731 436 c 2
 1731 343 l 2
 1731 202 1712 97 1574 97 c 0
1574 -19 m 0
 1804 -19 1876 131 1876 360 c 2
 1876 414 l 1
 1874 647 1804 784 1574 784 c 0
 1343 784 1276 646 1276 413 c 2
 1276 360 l 2
 1276 132 1344 -19 1574 -19 c 0
668 0 m 1
 822 0 l 1
 1360 1446 l 1
 1211 1446 l 1
 668 0 l 1
EndSplineSet
EndChar

StartChar: period
Encoding: 46 46 284
Width: 768
VWidth: 0
Flags: W
PickledData: "(dp1
S'com.typemytype.robofont.layerData'
p2
(dp3
S'b'
(dp4
S'name'
p5
S'period'
p6
sS'lib'
p7
(dp8
sS'unicodes'
p9
(tsS'width'
p10
I768
sS'contours'
p11
(tsS'components'
p12
(tsS'anchors'
p13
(tsss."
LayerCount: 2
Fore
SplineSet
282 0 m 1
 486 0 l 1
 486 206 l 1
 282 206 l 1
 282 0 l 1
EndSplineSet
EndChar

StartChar: periodcentered
Encoding: 183 183 285
Width: 412
VWidth: 0
Flags: W
PickledData: "(dp1
S'com.typemytype.robofont.layerData'
p2
(dp3
S'b'
(dp4
S'name'
p5
S'periodcentered'
p6
sS'lib'
p7
(dp8
sS'unicodes'
p9
(tsS'width'
p10
I412
sS'contours'
p11
(tsS'components'
p12
(tsS'anchors'
p13
(tsss."
LayerCount: 2
Fore
SplineSet
108 1277 m 1
 313 1277 l 1
 313 1483 l 1
 108 1483 l 1
 108 1277 l 1
EndSplineSet
EndChar

StartChar: perthousand
Encoding: 8240 8240 286
Width: 2886
VWidth: 0
Flags: W
PickledData: "(dp1
S'com.typemytype.robofont.layerData'
p2
(dp3
S'b'
(dp4
S'name'
p5
S'perthousand'
p6
sS'lib'
p7
(dp8
sS'unicodes'
p9
(tsS'width'
p10
I2886
sS'contours'
p11
(tsS'components'
p12
(tsS'anchors'
p13
(tsss."
LayerCount: 2
Fore
SplineSet
507 774 m 0
 369 774 352 879 352 1020 c 2
 352 1115 l 2
 352 1251 364 1345 507 1345 c 0
 651 1345 664 1251 664 1113 c 2
 664 1020 l 2
 664 879 645 774 507 774 c 0
507 774 m 0
 369 774 352 879 352 1020 c 2
 352 1115 l 2
 352 1251 364 1345 507 1345 c 0
 651 1345 664 1251 664 1113 c 2
 664 1020 l 2
 664 879 645 774 507 774 c 0
507 774 m 0
 369 774 352 879 352 1020 c 2
 352 1115 l 2
 352 1251 364 1345 507 1345 c 0
 651 1345 664 1251 664 1113 c 2
 664 1020 l 2
 664 879 645 774 507 774 c 0
507 774 m 0
 369 774 352 879 352 1020 c 2
 352 1115 l 2
 352 1251 364 1345 507 1345 c 0
 651 1345 664 1251 664 1113 c 2
 664 1020 l 2
 664 879 645 774 507 774 c 0
507 774 m 0
 369 774 352 879 352 1020 c 2
 352 1115 l 2
 352 1251 364 1345 507 1345 c 0
 651 1345 664 1251 664 1113 c 2
 664 1020 l 2
 664 879 645 774 507 774 c 0
507 774 m 0
 369 774 352 879 352 1020 c 2
 352 1115 l 2
 352 1251 364 1345 507 1345 c 0
 651 1345 664 1251 664 1113 c 2
 664 1020 l 2
 664 879 645 774 507 774 c 0
507 774 m 0
 369 774 352 879 352 1020 c 2
 352 1115 l 2
 352 1251 364 1345 507 1345 c 0
 651 1345 664 1251 664 1113 c 2
 664 1020 l 2
 664 879 645 774 507 774 c 0
507 658 m 0
 737 658 809 808 809 1037 c 2
 809 1091 l 1
 807 1324 737 1461 507 1461 c 0
 276 1461 209 1323 209 1090 c 2
 209 1037 l 2
 209 809 277 658 507 658 c 0
507 658 m 0
 737 658 809 808 809 1037 c 2
 809 1091 l 1
 807 1324 737 1461 507 1461 c 0
 276 1461 209 1323 209 1090 c 2
 209 1037 l 2
 209 809 277 658 507 658 c 0
507 658 m 0
 737 658 809 808 809 1037 c 2
 809 1091 l 1
 807 1324 737 1461 507 1461 c 0
 276 1461 209 1323 209 1090 c 2
 209 1037 l 2
 209 809 277 658 507 658 c 0
507 658 m 0
 737 658 809 808 809 1037 c 2
 809 1091 l 1
 807 1324 737 1461 507 1461 c 0
 276 1461 209 1323 209 1090 c 2
 209 1037 l 2
 209 809 277 658 507 658 c 0
507 658 m 0
 737 658 809 808 809 1037 c 2
 809 1091 l 1
 807 1324 737 1461 507 1461 c 0
 276 1461 209 1323 209 1090 c 2
 209 1037 l 2
 209 809 277 658 507 658 c 0
507 658 m 0
 737 658 809 808 809 1037 c 2
 809 1091 l 1
 807 1324 737 1461 507 1461 c 0
 276 1461 209 1323 209 1090 c 2
 209 1037 l 2
 209 809 277 658 507 658 c 0
507 658 m 0
 737 658 809 808 809 1037 c 2
 809 1091 l 1
 807 1324 737 1461 507 1461 c 0
 276 1461 209 1323 209 1090 c 2
 209 1037 l 2
 209 809 277 658 507 658 c 0
1611 97 m 0
 1473 97 1456 202 1456 343 c 2
 1456 438 l 2
 1456 574 1468 668 1611 668 c 0
 1755 668 1768 574 1768 436 c 2
 1768 343 l 2
 1768 202 1749 97 1611 97 c 0
1611 97 m 0
 1473 97 1456 202 1456 343 c 2
 1456 438 l 2
 1456 574 1468 668 1611 668 c 0
 1755 668 1768 574 1768 436 c 2
 1768 343 l 2
 1768 202 1749 97 1611 97 c 0
1611 97 m 0
 1473 97 1456 202 1456 343 c 2
 1456 438 l 2
 1456 574 1468 668 1611 668 c 0
 1755 668 1768 574 1768 436 c 2
 1768 343 l 2
 1768 202 1749 97 1611 97 c 0
1611 97 m 0
 1473 97 1456 202 1456 343 c 2
 1456 438 l 2
 1456 574 1468 668 1611 668 c 0
 1755 668 1768 574 1768 436 c 2
 1768 343 l 2
 1768 202 1749 97 1611 97 c 0
1611 97 m 0
 1473 97 1456 202 1456 343 c 2
 1456 438 l 2
 1456 574 1468 668 1611 668 c 0
 1755 668 1768 574 1768 436 c 2
 1768 343 l 2
 1768 202 1749 97 1611 97 c 0
1611 97 m 0
 1473 97 1456 202 1456 343 c 2
 1456 438 l 2
 1456 574 1468 668 1611 668 c 0
 1755 668 1768 574 1768 436 c 2
 1768 343 l 2
 1768 202 1749 97 1611 97 c 0
1611 97 m 0
 1473 97 1456 202 1456 343 c 2
 1456 438 l 2
 1456 574 1468 668 1611 668 c 0
 1755 668 1768 574 1768 436 c 2
 1768 343 l 2
 1768 202 1749 97 1611 97 c 0
1611 -19 m 0
 1841 -19 1913 131 1913 360 c 2
 1913 414 l 1
 1911 647 1841 784 1611 784 c 0
 1380 784 1313 646 1313 413 c 2
 1313 360 l 2
 1313 132 1381 -19 1611 -19 c 0
1611 -19 m 0
 1841 -19 1913 131 1913 360 c 2
 1913 414 l 1
 1911 647 1841 784 1611 784 c 0
 1380 784 1313 646 1313 413 c 2
 1313 360 l 2
 1313 132 1381 -19 1611 -19 c 0
1611 -19 m 0
 1841 -19 1913 131 1913 360 c 2
 1913 414 l 1
 1911 647 1841 784 1611 784 c 0
 1380 784 1313 646 1313 413 c 2
 1313 360 l 2
 1313 132 1381 -19 1611 -19 c 0
1611 -19 m 0
 1841 -19 1913 131 1913 360 c 2
 1913 414 l 1
 1911 647 1841 784 1611 784 c 0
 1380 784 1313 646 1313 413 c 2
 1313 360 l 2
 1313 132 1381 -19 1611 -19 c 0
1611 -19 m 0
 1841 -19 1913 131 1913 360 c 2
 1913 414 l 1
 1911 647 1841 784 1611 784 c 0
 1380 784 1313 646 1313 413 c 2
 1313 360 l 2
 1313 132 1381 -19 1611 -19 c 0
1611 -19 m 0
 1841 -19 1913 131 1913 360 c 2
 1913 414 l 1
 1911 647 1841 784 1611 784 c 0
 1380 784 1313 646 1313 413 c 2
 1313 360 l 2
 1313 132 1381 -19 1611 -19 c 0
1611 -19 m 0
 1841 -19 1913 131 1913 360 c 2
 1913 414 l 1
 1911 647 1841 784 1611 784 c 0
 1380 784 1313 646 1313 413 c 2
 1313 360 l 2
 1313 132 1381 -19 1611 -19 c 0
2390 97 m 0
 2252 97 2235 202 2235 343 c 2
 2235 438 l 2
 2235 574 2247 668 2390 668 c 0
 2534 668 2547 574 2547 436 c 2
 2547 343 l 2
 2547 202 2528 97 2390 97 c 0
2390 -19 m 0
 2620 -19 2692 131 2692 360 c 2
 2692 414 l 1
 2690 647 2620 784 2390 784 c 0
 2159 784 2092 646 2092 413 c 2
 2092 360 l 2
 2092 132 2160 -19 2390 -19 c 0
705 0 m 1
 859 0 l 1
 1397 1446 l 1
 1248 1446 l 1
 705 0 l 1
705 0 m 1
 859 0 l 1
 1397 1446 l 1
 1248 1446 l 1
 705 0 l 1
705 0 m 1
 859 0 l 1
 1397 1446 l 1
 1248 1446 l 1
 705 0 l 1
705 0 m 1
 859 0 l 1
 1397 1446 l 1
 1248 1446 l 1
 705 0 l 1
705 0 m 1
 859 0 l 1
 1397 1446 l 1
 1248 1446 l 1
 705 0 l 1
705 0 m 1
 859 0 l 1
 1397 1446 l 1
 1248 1446 l 1
 705 0 l 1
705 0 m 1
 859 0 l 1
 1397 1446 l 1
 1248 1446 l 1
 705 0 l 1
EndSplineSet
EndChar

StartChar: plus
Encoding: 43 43 287
Width: 1024
VWidth: 0
Flags: W
PickledData: "(dp1
S'com.typemytype.robofont.layerData'
p2
(dp3
S'b'
(dp4
S'name'
p5
S'plus'
p6
sS'lib'
p7
(dp8
sS'unicodes'
p9
(tsS'width'
p10
I1024
sS'contours'
p11
(tsS'components'
p12
(tsS'anchors'
p13
(tsss."
LayerCount: 2
Fore
SplineSet
437 156 m 1
 588 156 l 1
 588 494 l 1
 862 494 l 1
 862 642 l 1
 588 642 l 1
 588 968 l 1
 437 968 l 1
 437 642 l 1
 162 642 l 1
 162 494 l 1
 437 494 l 1
 437 156 l 1
EndSplineSet
EndChar

StartChar: plusminus
Encoding: 177 177 288
Width: 1041
VWidth: 0
Flags: W
PickledData: "(dp1
S'com.typemytype.robofont.layerData'
p2
(dp3
S'b'
(dp4
S'name'
p5
S'plusminus'
p6
sS'lib'
p7
(dp8
sS'unicodes'
p9
(tsS'width'
p10
I1041
sS'contours'
p11
(tsS'components'
p12
(tsS'anchors'
p13
(tsss."
LayerCount: 2
Fore
SplineSet
460 334 m 1
 581 334 l 1
 581 611 l 1
 834 611 l 1
 834 726 l 1
 581 726 l 1
 581 992 l 1
 460 992 l 1
 460 726 l 1
 207 726 l 1
 207 611 l 1
 460 611 l 1
 460 334 l 1
207 0 m 1
 834 0 l 1
 834 120 l 1
 207 120 l 1
 207 0 l 1
EndSplineSet
EndChar

StartChar: q
Encoding: 113 113 290
Width: 1200
VWidth: 0
Flags: W
PickledData: "(dp1
S'com.typemytype.robofont.layerData'
p2
(dp3
S'b'
(dp4
S'name'
p5
S'q'
sS'lib'
p6
(dp7
sS'unicodes'
p8
(tsS'width'
p9
I1200
sS'contours'
p10
(tsS'components'
p11
(tsS'anchors'
p12
(tsss."
LayerCount: 2
Fore
SplineSet
826 -408 m 1
 1014 -408 l 1
 1014 1060 l 1
 826 1060 l 1
 826 975 l 1
 796 1025 668 1076 560 1076 c 0
 284 1076 148 941 148 728 c 2
 148 314 l 2
 148 110 302 -24 573 -24 c 0
 646 -24 761 -3 826 47 c 1
 826 -408 l 1
585 118 m 0
 447 118 336 157 336 284 c 2
 336 748 l 2
 336 878 440 935 588 935 c 0
 755 935 826 869 826 810 c 2
 826 201 l 1
 816 180 725 118 585 118 c 0
EndSplineSet
EndChar

StartChar: question
Encoding: 63 63 291
Width: 1250
VWidth: 0
Flags: W
PickledData: "(dp1
S'com.typemytype.robofont.layerData'
p2
(dp3
S'b'
(dp4
S'name'
p5
S'two'
p6
sS'lib'
p7
(dp8
sS'unicodes'
p9
(tsS'width'
p10
I1250
sS'contours'
p11
(tsS'components'
p12
(tsS'anchors'
p13
(tsss."
LayerCount: 2
Fore
SplineSet
218 0 m 1
 1090 0 l 1
 1090 143 l 1
 417 143 l 1
 848 597 l 2
 994 751 1098 850 1098 1075 c 0
 1098 1305 953 1484 642 1484 c 0
 350 1484 151 1358 151 1040 c 1
 352 1040 l 1
 352 1275 446 1345 657 1345 c 0
 837 1345 904 1225 915 1074 c 0
 926 917 849 860 706 705 c 2
 199 158 l 1
 218 0 l 1
EndSplineSet
EndChar

StartChar: quotedbl
Encoding: 34 34 293
Width: 768
VWidth: 0
Flags: W
PickledData: "(dp1
S'com.typemytype.robofont.layerData'
p2
(dp3
S'b'
(dp4
S'name'
p5
S'quotedbl'
p6
sS'lib'
p7
(dp8
sS'unicodes'
p9
(tsS'width'
p10
I768
sS'contours'
p11
(tsS'components'
p12
(tsS'anchors'
p13
(tsss."
LayerCount: 2
Fore
SplineSet
168 930 m 1
 280 930 l 1
 329 1506 l 1
 124 1506 l 1
 168 930 l 1
501 930 m 1
 613 930 l 1
 662 1506 l 1
 457 1506 l 1
 501 930 l 1
EndSplineSet
EndChar

StartChar: quotesingle
Encoding: 39 39 300
Width: 512
VWidth: 0
Flags: W
PickledData: "(dp1
S'com.typemytype.robofont.layerData'
p2
(dp3
S'b'
(dp4
S'name'
p5
S'quotesingle'
p6
sS'lib'
p7
(dp8
sS'unicodes'
p9
(tsS'width'
p10
I512
sS'contours'
p11
(tsS'components'
p12
(tsS'anchors'
p13
(tsss."
LayerCount: 2
Fore
SplineSet
214 930 m 1
 326 930 l 1
 375 1506 l 1
 170 1506 l 1
 214 930 l 1
EndSplineSet
EndChar

StartChar: r
Encoding: 114 114 301
Width: 786
VWidth: 0
Flags: W
PickledData: "(dp1
S'com.typemytype.robofont.layerData'
p2
(dp3
S'b'
(dp4
S'name'
p5
S'r'
sS'lib'
p6
(dp7
sS'unicodes'
p8
(tsS'width'
p9
I786
sS'contours'
p10
(tsS'components'
p11
(tsS'anchors'
p12
(tsss."
LayerCount: 2
Fore
SplineSet
186 0 m 1
 374 0 l 1
 374 812 l 1
 404 893 617 904 736 914 c 1
 742 1075 l 1
 652 1088 425 1027 374 950 c 1
 374 1060 l 1
 186 1060 l 1
 186 0 l 1
EndSplineSet
EndChar

StartChar: registered
Encoding: 174 174 305
Width: 1499
VWidth: 0
Flags: W
PickledData: "(dp1
S'com.typemytype.robofont.layerData'
p2
(dp3
S'b'
(dp4
S'name'
p5
S'registered'
p6
sS'lib'
p7
(dp8
sS'unicodes'
p9
(tsS'width'
p10
F1499
sS'contours'
p11
(tsS'components'
p12
(tsS'anchors'
p13
(tsss."
LayerCount: 2
Fore
SplineSet
453 319 m 1
 584 319 l 1
 584 652 l 1
 843 652 l 1
 1023 319 l 1
 1151 319 l 1
 967 666 l 1
 1059 691 1119 760 1119 894 c 2
 1119 908 l 1
 1115 1082 1013 1153 856 1153 c 2
 453 1153 l 1
 453 319 l 1
584 742 m 1
 584 1062 l 1
 860 1062 l 2
 978 1062 987 960 987 901 c 2
 987 877 l 1
 986 814 965 742 851 742 c 2
 584 742 l 1
751 82 m 0
 387 82 123 357 123 722 c 0
 123 1086 387 1361 751 1361 c 0
 1117 1361 1379 1086 1379 722 c 0
 1379 357 1117 82 751 82 c 0
749 -14 m 0
 1165 -14 1485 303 1485 722 c 0
 1485 1139 1165 1456 749 1456 c 0
 336 1456 14 1139 14 722 c 0
 14 303 336 -14 749 -14 c 0
EndSplineSet
EndChar

StartChar: ring
Encoding: 730 730 306
Width: 512
VWidth: 0
Flags: W
PickledData: "(dp1
S'com.typemytype.robofont.layerData'
p2
(dp3
S'b'
(dp4
S'name'
p5
S'ring'
p6
sS'lib'
p7
(dp8
sS'unicodes'
p9
(tsS'width'
p10
I512
sS'contours'
p11
(tsS'components'
p12
(tsS'anchors'
p13
(tsss."
LayerCount: 2
Fore
SplineSet
256 1215 m 0
 199 1215 147 1241 147 1329 c 0
 147 1416 200 1441 256 1441 c 0
 314 1441 365 1414 365 1327 c 0
 365 1240 313 1215 256 1215 c 0
256 1150 m 0
 356 1150 450 1205 450 1328 c 0
 450 1451 356 1506 256 1506 c 0
 156 1506 62 1451 62 1328 c 0
 62 1205 156 1150 256 1150 c 0
EndSplineSet
EndChar

StartChar: s
Encoding: 115 115 307
Width: 996
VWidth: 0
Flags: W
PickledData: "(dp1
S'com.typemytype.robofont.layerData'
p2
(dp3
S'b'
(dp4
S'name'
p5
S's'
sS'lib'
p6
(dp7
sS'unicodes'
p8
(tsS'width'
p9
I996
sS'contours'
p10
((dp11
S'points'
p12
((dp13
S'segmentType'
p14
S'curve'
p15
sS'x'
F513
sS'smooth'
p16
I01
sS'y'
F-20
s(dp17
S'y'
F-20
sS'x'
F514
sg16
I00
s(dp18
S'y'
F-20
sS'x'
F515
sg16
I00
s(dp19
g14
S'curve'
p20
sS'x'
F516
sg16
I01
sS'y'
F-20
s(dp21
S'y'
F-20
sS'x'
F746
sg16
I00
s(dp22
S'y'
F88
sS'x'
F887
sg16
I00
s(dp23
g14
S'curve'
p24
sS'x'
F892
sg16
I01
sS'y'
F276
s(dp25
S'y'
F280
sS'x'
F892
sg16
I00
s(dp26
S'y'
F284
sS'x'
F892
sg16
I00
s(dp27
g14
S'curve'
p28
sS'x'
F892
sg16
I01
sS'y'
F289
s(dp29
S'y'
F454
sS'x'
F892
sg16
I00
s(dp30
S'y'
F516
sS'x'
F812
sg16
I00
s(dp31
g14
S'curve'
p32
sS'x'
F657
sg16
I01
sS'y'
F584
s(dp33
g14
S'line'
p34
sS'x'
F423
sg16
I01
sS'y'
F688
s(dp35
S'y'
F725
sS'x'
F339
sg16
I00
s(dp36
S'y'
F754
sS'x'
F310
sg16
I00
s(dp37
g14
S'curve'
p38
sS'x'
F318
sg16
I01
sS'y'
F819
s(dp39
S'y'
F899
sS'x'
F326
sg16
I00
s(dp40
S'y'
F937
sS'x'
F392
sg16
I00
s(dp41
g14
S'curve'
p42
sS'x'
F517
sg16
I01
sS'y'
F937
s(dp43
S'y'
F937
sS'x'
F628
sg16
I00
s(dp44
S'y'
F909
sS'x'
F732
sg16
I00
s(dp45
g14
S'curve'
p46
sS'x'
F809
sg16
I00
sS'y'
F872
s(dp47
g14
S'line'
p48
sS'x'
F875
sg16
I00
sS'y'
F1001
s(dp49
S'y'
F1040
sS'x'
F798
sg16
I00
s(dp50
S'y'
F1081
sS'x'
F686
sg16
I00
s(dp51
g14
S'curve'
p52
sS'x'
F503
sg16
I01
sS'y'
F1081
s(dp53
S'y'
F1081
sS'x'
F262
sg16
I00
s(dp54
S'y'
F969
sS'x'
F138
sg16
I00
s(dp55
g14
S'curve'
p56
sS'x'
F134
sg16
I01
sS'y'
F823
s(dp57
S'y'
F660
sS'x'
F130
sg16
I00
s(dp58
S'y'
F595
sS'x'
F220
sg16
I00
s(dp59
g14
S'curve'
p60
sS'x'
F359
sg16
I01
sS'y'
F534
s(dp61
g14
S'line'
p62
sS'x'
F586
sg16
I01
sS'y'
F435
s(dp63
S'y'
F393
sS'x'
F682
sg16
I00
s(dp64
S'y'
F362
sS'x'
F719
sg16
I00
s(dp65
g14
S'curve'
p66
sS'x'
F719
sg16
I01
sS'y'
F291
s(dp67
S'y'
F287
sS'x'
F719
sg16
I00
s(dp68
S'y'
F282
sS'x'
F719
sg16
I00
s(dp69
g14
S'curve'
p70
sS'x'
F719
sg16
I01
sS'y'
F277
s(dp71
S'y'
F179
sS'x'
F712
sg16
I00
s(dp72
S'y'
F125
sS'x'
F644
sg16
I00
s(dp73
g14
S'curve'
p74
sS'x'
F511
sg16
I01
sS'y'
F125
s(dp75
S'y'
F125
sS'x'
F509
sg16
I00
s(dp76
S'y'
F125
sS'x'
F506
sg16
I00
s(dp77
g14
S'curve'
p78
sS'x'
F504
sg16
I01
sS'y'
F125
s(dp79
S'y'
F127
sS'x'
F363
sg16
I00
s(dp80
S'y'
F170
sS'x'
F241
sg16
I00
s(dp81
g14
S'curve'
p82
sS'x'
F176
sg16
I00
sS'y'
F221
s(dp83
g14
S'line'
p84
sS'x'
F109
sg16
I00
sS'y'
F91
s(dp85
S'y'
F45
sS'x'
F159
sg16
I00
s(dp86
S'y'
F-19
sS'x'
F309
sg16
I00
stp87
stp88
sS'components'
p89
(tsS'anchors'
p90
(tsss."
LayerCount: 2
Fore
SplineSet
513 -20 m 1
 787 -20 892 122 892 289 c 0
 892 454 812 516 657 584 c 2
 422 688 l 2
 347 721 316 748 316 800 c 0
 316 881 370 937 517 937 c 0
 628 937 732 909 809 872 c 1
 875 1001 l 1
 798 1040 686 1081 503 1081 c 0
 219 1081 133 937 133 819 c 0
 133 663 209 599 358 534 c 2
 586 435 l 2
 682 393 719 362 719 291 c 0
 719 202 667 125 511 125 c 0
 362.985816316 125 241 170 176 221 c 1
 109 91 l 1
 159 45 309 -19 513 -20 c 1
EndSplineSet
EndChar

StartChar: semicolon
Encoding: 59 59 313
Width: 896
VWidth: 0
Flags: W
PickledData: "(dp1
S'com.typemytype.robofont.layerData'
p2
(dp3
S'b'
(dp4
S'name'
p5
S'semicolon'
p6
sS'lib'
p7
(dp8
sS'unicodes'
p9
(tsS'width'
p10
I896
sS'contours'
p11
(tsS'components'
p12
(tsS'anchors'
p13
(tsss."
LayerCount: 2
Fore
SplineSet
416 -128 m 1
 474 -74 564 69 564 260 c 2
 564 421 l 1
 332 421 l 1
 332 210 l 1
 449 210 l 1
 449 78 382 -29 335 -84 c 1
 416 -128 l 1
337 878 m 1
 541 878 l 1
 541 1084 l 1
 337 1084 l 1
 337 878 l 1
EndSplineSet
EndChar

StartChar: seven
Encoding: 55 55 314
Width: 1250
VWidth: 0
Flags: W
PickledData: "(dp1
S'com.typemytype.robofont.layerData'
p2
(dp3
S'b'
(dp4
S'name'
p5
S'seven'
p6
sS'lib'
p7
(dp8
sS'unicodes'
p9
(tsS'width'
p10
I1250
sS'contours'
p11
(tsS'components'
p12
(tsS'anchors'
p13
(tsss."
LayerCount: 2
Fore
SplineSet
369 0 m 1
 580 0 l 1
 1070 1289 l 1
 1070 1446 l 1
 189 1446 l 1
 189 1291 l 1
 869 1291 l 1
 369 0 l 1
EndSplineSet
EndChar

StartChar: slash
Encoding: 47 47 316
Width: 1024
VWidth: 0
Flags: W
PickledData: "(dp1
S'com.typemytype.robofont.layerData'
p2
(dp3
S'b'
(dp4
S'name'
p5
S'slash'
p6
sS'lib'
p7
(dp8
sS'unicodes'
p9
(tsS'width'
p10
I1024
sS'contours'
p11
(tsS'components'
p12
(tsS'anchors'
p13
(tsss."
LayerCount: 2
Fore
SplineSet
146 0 m 1
 341 0 l 1
 878 1446 l 1
 685 1446 l 1
 146 0 l 1
EndSplineSet
EndChar

StartChar: sterling
Encoding: 163 163 318
Width: 1273
VWidth: 0
Flags: W
PickledData: "(dp1
S'com.typemytype.robofont.layerData'
p2
(dp3
S'b'
(dp4
S'name'
p5
S'sterling'
p6
sS'lib'
p7
(dp8
sS'unicodes'
p9
(tsS'width'
p10
F1273
sS'contours'
p11
(tsS'components'
p12
(tsS'anchors'
p13
(tsss."
LayerCount: 2
Fore
SplineSet
255 0 m 1
 1060 0 l 1
 1060 162 l 1
 456 162 l 1
 546 1034 l 2
 565 1220 599 1318 790 1318 c 0
 936 1318 1000 1263 1047 1241 c 1
 1102 1396 l 1
 1037 1430 959 1484 791 1484 c 0
 466 1484 376 1307 351 1035 c 2
 255 0 l 1
160 668 m 1
 1036 668 l 1
 1036 809 l 1
 160 809 l 1
 160 668 l 1
EndSplineSet
EndChar

StartChar: t
Encoding: 116 116 319
Width: 824
VWidth: 0
Flags: W
PickledData: "(dp1
S'com.typemytype.robofont.layerData'
p2
(dp3
S'b'
(dp4
S'name'
p5
S't'
sS'lib'
p6
(dp7
sS'unicodes'
p8
(tsS'width'
p9
I824
sS'contours'
p10
((dp11
S'points'
p12
((dp13
S'segmentType'
p14
S'curve'
p15
sS'x'
F626
sS'smooth'
p16
I01
sS'y'
F-8
s(dp17
g14
S'line'
p18
sS'x'
F698
sg16
I00
sS'y'
F-8
s(dp19
g14
S'line'
p20
sS'x'
F718
sg16
I00
sS'y'
F134
s(dp21
g14
S'line'
p22
sS'x'
F653
sg16
I01
sS'y'
F134
s(dp23
S'y'
F134
sS'x'
F522
sg16
I00
s(dp24
S'y'
F175
sS'x'
F445
sg16
I00
s(dp25
g14
S'curve'
p26
sS'x'
F445
sg16
I01
sS'y'
F315
s(dp27
g14
S'line'
p28
sS'x'
F445
sg16
I00
sS'y'
F944
s(dp29
g14
S'line'
p30
sS'x'
F705
sg16
I00
sS'y'
F944
s(dp31
g14
S'line'
p32
sS'x'
F705
sg16
I00
sS'y'
F1060
s(dp33
g14
S'line'
p34
sS'x'
F445
sg16
I00
sS'y'
F1060
s(dp35
g14
S'line'
p36
sS'x'
F445
sg16
I00
sS'y'
F1388
s(dp37
g14
S'line'
p38
sS'x'
F287
sg16
I00
sS'y'
F1388
s(dp39
g14
S'line'
p40
sS'x'
F264
sg16
I00
sS'y'
F1060
s(dp41
g14
S'line'
p42
sS'x'
F80
sg16
I00
sS'y'
F1060
s(dp43
g14
S'line'
p44
sS'x'
F80
sg16
I00
sS'y'
F944
s(dp45
g14
S'line'
p46
sS'x'
F257
sg16
I00
sS'y'
F944
s(dp47
g14
S'line'
p48
sS'x'
F257
sg16
I01
sS'y'
F303
s(dp49
S'y'
F70
sS'x'
F257
sg16
I00
s(dp50
S'y'
F-8
sS'x'
F387
sg16
I00
stp51
stp52
sS'components'
p53
(tsS'anchors'
p54
(tsss."
LayerCount: 2
Fore
SplineSet
670 -8 m 2
 698 -8 l 1
 718 134 l 1
 697 134 l 2
 518 134 445 175 445 315 c 2
 445 944 l 1
 705 944 l 1
 705 1060 l 1
 445 1060 l 1
 445 1388 l 1
 287 1388 l 1
 264 1060 l 1
 80 1060 l 1
 80 944 l 1
 257 944 l 1
 257 303 l 2
 257 70 380 -8 670 -8 c 2
EndSplineSet
EndChar

StartChar: thorn
Encoding: 254 254 322
Width: 1194
VWidth: 0
Flags: W
PickledData: "(dp1
S'com.typemytype.robofont.layerData'
p2
(dp3
S'b'
(dp4
S'name'
p5
S'thorn'
p6
sS'lib'
p7
(dp8
sS'unicodes'
p9
(tsS'width'
p10
I1194
sS'contours'
p11
(tsS'components'
p12
(tsS'anchors'
p13
(tsss."
LayerCount: 2
Fore
SplineSet
603 117 m 0
 494 117 413 152 365 179 c 1
 365 824 l 1
 382 850 477 934 610 934 c 0
 748 934 856 869 856 742 c 2
 856 324 l 2
 856 194 751 117 603 117 c 0
365 34 m 1
 416 8 496 -24 615 -24 c 0
 891 -24 1044 131 1044 344 c 2
 1044 729 l 2
 1044 933 910 1076 639 1076 c 0
 530 1076 425 1039 365 994 c 1
 365 1506 l 1
 179 1506 l 1
 179 1060 l 1
 177 1060 l 1
 177 -408 l 1
 365 -408 l 1
 365 34 l 1
EndSplineSet
EndChar

StartChar: three
Encoding: 51 51 323
Width: 1250
VWidth: 0
Flags: W
PickledData: "(dp1
S'com.typemytype.robofont.layerData'
p2
(dp3
S'b'
(dp4
S'name'
p5
S'three'
p6
sS'lib'
p7
(dp8
sS'unicodes'
p9
(tsS'width'
p10
I1250
sS'contours'
p11
(tsS'components'
p12
(tsS'anchors'
p13
(tsss."
LayerCount: 2
Fore
SplineSet
688 -24 m 0
 972 -24 1135 146 1135 402 c 0
 1135 646 1008 716 874 760 c 1
 1012 795 1106 901 1106 1091 c 0
 1106 1337 919 1483 670 1483 c 0
 413 1483 192 1404 185 1016 c 1
 377 1016 l 1
 375 1284 500 1332 678 1332 c 0
 850 1332 918 1224 918 1088 c 0
 918 944 899 828 590 828 c 1
 590 687 l 1
 890 687 944 574 944 391 c 0
 944 222 872 127 699 127 c 0
 500 127 370 158 362 461 c 1
 166 461 l 1
 191 93 390 -24 688 -24 c 0
EndSplineSet
EndChar

StartChar: threesuperior
Encoding: 179 179 326
Width: 1173
VWidth: 0
Flags: W
PickledData: "(dp1
S'com.typemytype.robofont.layerData'
p2
(dp3
S'b'
(dp4
S'name'
p5
S'threesuperior'
p6
sS'lib'
p7
(dp8
sS'unicodes'
p9
(tsS'width'
p10
I1173
sS'contours'
p11
(tsS'components'
p12
(tsS'anchors'
p13
(tsss."
LayerCount: 2
Fore
SplineSet
589.692382812 418.03125 m 0
 790.185546875 418.03125 947.616210938 509.943359375 947.616210938 719.220703125 c 0
 947.616210938 891.733398438 865.017578125 948.293945312 735.12109375 972.333007812 c 1
 867.841796875 997.078125 927.142578125 1072.02246094 927.142578125 1206.35546875 c 0
 927.142578125 1394.421875 766.888671875 1483.50585938 591.104492188 1483.50585938 c 0
 388.4921875 1483.50585938 218.35546875 1427.65234375 213.413085938 1153.32910156 c 1
 348.958007812 1153.32910156 l 1
 347.546875 1342.80957031 442.8515625 1378.16113281 589.692382812 1378.16113281 c 0
 739.356445312 1378.16113281 794.421875 1300.38867188 794.421875 1204.234375 c 0
 794.421875 1102.42382812 788.068359375 1020.41015625 499.329101562 1020.41015625 c 1
 499.329101562 920.720703125 l 1
 753.475585938 920.720703125 812.776367188 862.038085938 812.776367188 711.443359375 c 0
 812.776367188 584.887695312 719.58984375 524.791015625 597.458007812 524.791015625 c 0
 456.970703125 524.791015625 344.016601562 546.708984375 338.369140625 760.934570312 c 1
 200 760.934570312 l 1
 210.58984375 486.612304688 358.135742188 418.03125 589.692382812 418.03125 c 0
EndSplineSet
EndChar

StartChar: tilde
Encoding: 732 732 327
Width: 511
VWidth: 0
Flags: W
PickledData: "(dp1
S'com.typemytype.robofont.layerData'
p2
(dp3
S'b'
(dp4
S'name'
p5
S'cedilla'
p6
sS'lib'
p7
(dp8
sS'unicodes'
p9
(tsS'width'
p10
I511
sS'contours'
p11
(tsS'components'
p12
(tsS'anchors'
p13
(tsss."
LayerCount: 2
Fore
SplineSet
552 1277 m 1
 552 1442 486 1506 366 1506 c 0
 229 1506 197 1399 126 1399 c 0
 85 1399 56 1430 56 1492 c 1
 -41 1492 l 1
 -41 1327 25 1263 145 1263 c 0
 282 1263 314 1370 385 1370 c 0
 426 1370 455 1339 455 1277 c 1
 552 1277 l 1
EndSplineSet
EndChar

StartChar: trademark
Encoding: 8482 8482 328
Width: 1843
VWidth: 0
Flags: W
PickledData: "(dp1
S'com.typemytype.robofont.layerData'
p2
(dp3
S'b'
(dp4
S'name'
p5
S'trademark'
p6
sS'lib'
p7
(dp8
sS'unicodes'
p9
(tsS'width'
p10
I1843
sS'contours'
p11
(tsS'components'
p12
(tsS'anchors'
p13
(tsss."
LayerCount: 2
Fore
SplineSet
845 766 m 1
 970 766 l 1
 970 1329 l 1
 1149 931 l 1
 1310 931 l 1
 1482 1329 l 1
 1482 766 l 1
 1609 766 l 1
 1609 1446 l 1
 1413 1446 l 1
 1227 1033 l 1
 1043 1446 l 1
 845 1446 l 1
 845 766 l 1
345 766 m 1
 480 766 l 1
 480 1332 l 1
 692 1332 l 1
 692 1446 l 1
 133 1446 l 1
 133 1332 l 1
 345 1332 l 1
 345 766 l 1
EndSplineSet
EndChar

StartChar: two
Encoding: 50 50 329
Width: 1250
VWidth: 0
Flags: W
PickledData: "(dp1
S'com.typemytype.robofont.layerData'
p2
(dp3
S'b'
(dp4
S'name'
p5
S'two'
p6
sS'lib'
p7
(dp8
sS'unicodes'
p9
(tsS'width'
p10
I1250
sS'contours'
p11
(tsS'components'
p12
(tsS'anchors'
p13
(tsss."
LayerCount: 2
Fore
SplineSet
231 0 m 1
 1087 0 l 1
 1087 143 l 1
 430 143 l 1
 845 597 l 1
 991 751 1095 850 1095 1075 c 0
 1095 1305 950 1484 639 1484 c 0
 347 1484 164 1358 164 1040 c 1
 365 1040 l 1
 365 1275 443 1345 654 1345 c 0
 834 1345 901 1225 912 1074 c 0
 923 917 846 860 703 705 c 1
 212 158 l 1
 231 0 l 1
EndSplineSet
EndChar

StartChar: twosuperior
Encoding: 178 178 330
Width: 1052
VWidth: 0
Flags: W
PickledData: "(dp1
S'com.typemytype.robofont.layerData'
p2
(dp3
S'b'
(dp4
S'name'
p5
S'twosuperior'
p6
sS'lib'
p7
(dp8
sS'unicodes'
p9
(tsS'width'
p10
I1052
sS'contours'
p11
(tsS'components'
p12
(tsS'anchors'
p13
(tsss."
LayerCount: 2
Fore
SplineSet
230.3125 449 m 1
 815.141601562 449 l 1
 815.141601562 548.741210938 l 1
 350.045898438 548.741210938 l 1
 669.536132812 865.403320312 l 1
 765.202148438 963.75 819.955078125 1041.86914062 819.955078125 1198.8046875 c 0
 819.955078125 1359.22851562 702.627929688 1484.08007812 515.506835938 1484.08007812 c 0
 339.817382812 1484.08007812 190 1396.1953125 190 1174.39257812 c 1
 310.936523438 1174.39257812 l 1
 310.936523438 1338.30371094 397.578125 1387.12792969 524.532226562 1387.12792969 c 0
 632.833984375 1387.12792969 691.196289062 1318.07617188 697.814453125 1212.75488281 c 0
 704.432617188 1103.24804688 670.739257812 1047.44921875 578.081054688 947.70703125 c 2
 218.880859375 559.204101562 l 1
 230.3125 449 l 1
EndSplineSet
EndChar

StartChar: u
Encoding: 117 117 331
Width: 1224
VWidth: 0
Flags: W
PickledData: "(dp1
S'com.typemytype.robofont.layerData'
p2
(dp3
S'b'
(dp4
S'name'
p5
S'u'
sS'lib'
p6
(dp7
sS'unicodes'
p8
(tsS'width'
p9
I1224
sS'contours'
p10
(tsS'components'
p11
(tsS'anchors'
p12
(tsss."
LayerCount: 2
Fore
SplineSet
541 -20 m 0
 695 -20 796 38 850 133 c 1
 870 0 l 1
 1038 0 l 1
 1038 1060 l 1
 850 1060 l 1
 850 297 l 2
 850 208 762 122 578 122 c 0
 447 122 364 180 364 285 c 2
 364 1060 l 1
 176 1060 l 1
 176 290 l 2
 176 122 280 -20 541 -20 c 0
EndSplineSet
EndChar

StartChar: uacute
Encoding: 250 250 332
Width: 1189
VWidth: 0
Flags: W
PickledData: "(dp1
S'com.typemytype.robofont.layerData'
p2
(dp3
S'b'
(dp4
S'name'
p5
S'uacute'
p6
sS'lib'
p7
(dp8
sS'unicodes'
p9
(tsS'width'
p10
I1189
sS'contours'
p11
(tsS'components'
p12
(tsS'anchors'
p13
(tsss."
LayerCount: 2
Fore
SplineSet
516 -20 m 0
 670 -20 762 31 824 103 c 1
 824 0 l 1
 1012 0 l 1
 1012 1060 l 1
 824 1060 l 1
 824 297 l 2
 824 208 748 122 564 122 c 0
 433 122 350 180 350 285 c 2
 350 1060 l 1
 162 1060 l 1
 162 290 l 2
 162 122 255 -20 516 -20 c 0
662.5 1202 m 1
 768.5 1202 l 1
 630.5 1543 l 1
 405.5 1543 l 1
 662.5 1202 l 1
EndSplineSet
EndChar

StartChar: ucircumflex
Encoding: 251 251 334
Width: 1189
VWidth: 0
Flags: W
PickledData: "(dp1
S'com.typemytype.robofont.layerData'
p2
(dp3
S'b'
(dp4
S'name'
p5
S'ucircumflex'
p6
sS'lib'
p7
(dp8
sS'unicodes'
p9
(tsS'width'
p10
I1189
sS'contours'
p11
(tsS'components'
p12
(tsS'anchors'
p13
(tsss."
LayerCount: 2
Fore
SplineSet
516 -20 m 0
 670 -20 762 31 824 103 c 1
 824 0 l 1
 1012 0 l 1
 1012 1060 l 1
 824 1060 l 1
 824 297 l 2
 824 208 748 122 564 122 c 0
 433 122 350 180 350 285 c 2
 350 1060 l 1
 162 1060 l 1
 162 290 l 2
 162 122 255 -20 516 -20 c 0
300.5 1202 m 1
 461.5 1202 l 1
 593.5 1376 l 1
 717.5 1202 l 1
 873.5 1202 l 1
 667.5 1468 l 1
 517.5 1468 l 1
 300.5 1202 l 1
EndSplineSet
EndChar

StartChar: udieresis
Encoding: 252 252 335
Width: 1189
VWidth: 0
Flags: W
PickledData: "(dp1
S'com.typemytype.robofont.layerData'
p2
(dp3
S'b'
(dp4
S'name'
p5
S'udieresis'
p6
sS'lib'
p7
(dp8
sS'unicodes'
p9
(tsS'width'
p10
I1189
sS'contours'
p11
(tsS'components'
p12
(tsS'anchors'
p13
(tsss."
LayerCount: 2
Fore
SplineSet
516 -20 m 0
 670 -20 762 31 824 103 c 1
 824 0 l 1
 1012 0 l 1
 1012 1060 l 1
 824 1060 l 1
 824 297 l 2
 824 208 748 122 564 122 c 0
 433 122 350 180 350 285 c 2
 350 1060 l 1
 162 1060 l 1
 162 290 l 2
 162 122 255 -20 516 -20 c 0
232.5 1202 m 1
 438.5 1202 l 1
 438.5 1383 l 1
 232.5 1383 l 1
 232.5 1202 l 1
735.5 1202 m 1
 941.5 1202 l 1
 941.5 1383 l 1
 735.5 1383 l 1
 735.5 1202 l 1
EndSplineSet
EndChar

StartChar: ugrave
Encoding: 249 249 336
Width: 1189
VWidth: 0
Flags: W
PickledData: "(dp1
S'com.typemytype.robofont.layerData'
p2
(dp3
S'b'
(dp4
S'name'
p5
S'ugrave'
p6
sS'lib'
p7
(dp8
sS'unicodes'
p9
(tsS'width'
p10
I1189
sS'contours'
p11
(tsS'components'
p12
(tsS'anchors'
p13
(tsss."
LayerCount: 2
Fore
SplineSet
516 -20 m 0
 670 -20 762 31 824 103 c 1
 824 0 l 1
 1012 0 l 1
 1012 1060 l 1
 824 1060 l 1
 824 297 l 2
 824 208 748 122 564 122 c 0
 433 122 350 180 350 285 c 2
 350 1060 l 1
 162 1060 l 1
 162 290 l 2
 162 122 255 -20 516 -20 c 0
662.5 1202 m 1
 768.5 1202 l 1
 630.5 1543 l 1
 405.5 1543 l 1
 662.5 1202 l 1
EndSplineSet
EndChar

StartChar: underscore
Encoding: 95 95 339
Width: 929
VWidth: 0
Flags: W
PickledData: "(dp1
S'com.typemytype.robofont.layerData'
p2
(dp3
S'b'
(dp4
S'name'
p5
S'underscore'
p6
sS'lib'
p7
(dp8
sS'unicodes'
p9
(tsS'width'
p10
I929
sS'contours'
p11
(tsS'components'
p12
(tsS'anchors'
p13
(tsss."
LayerCount: 2
Fore
SplineSet
14 -82 m 1
 915 -82 l 1
 915 89 l 1
 14 89 l 1
 14 -82 l 1
EndSplineSet
EndChar

StartChar: v
Encoding: 118 118 410
Width: 1132
VWidth: 0
Flags: W
PickledData: "(dp1
S'com.typemytype.robofont.layerData'
p2
(dp3
S'b'
(dp4
S'name'
p5
S'v'
sS'lib'
p6
(dp7
sS'unicodes'
p8
(tsS'width'
p9
I1132
sS'contours'
p10
(tsS'components'
p11
(tsS'anchors'
p12
(tsss."
LayerCount: 2
Fore
SplineSet
479 0 m 1
 687 0 l 1
 1046 1060 l 1
 862 1060 l 1
 586 194 l 1
 275 1060 l 1
 86 1060 l 1
 479 0 l 1
EndSplineSet
EndChar

StartChar: w
Encoding: 119 119 411
Width: 1606
VWidth: 0
Flags: W
PickledData: "(dp1
S'com.typemytype.robofont.layerData'
p2
(dp3
S'b'
(dp4
S'name'
p5
S'w'
sS'lib'
p6
(dp7
sS'unicodes'
p8
(tsS'width'
p9
I1606
sS'contours'
p10
(tsS'components'
p11
(tsS'anchors'
p12
(tsss."
LayerCount: 2
Fore
SplineSet
344 0 m 1
 537 0 l 1
 801 894 l 1
 1061 0 l 1
 1248 0 l 1
 1558 1060 l 1
 1385 1060 l 1
 1153 209 l 1
 921 1060 l 1
 696 1060 l 1
 445 209 l 1
 222 1060 l 1
 48 1060 l 1
 344 0 l 1
EndSplineSet
EndChar

StartChar: x
Encoding: 120 120 416
Width: 1040
VWidth: 0
Flags: W
PickledData: "(dp1
S'com.typemytype.robofont.layerData'
p2
(dp3
S'b'
(dp4
S'name'
p5
S'x'
sS'lib'
p6
(dp7
sS'unicodes'
p8
(tsS'width'
p9
I1040
sS'contours'
p10
(tsS'components'
p11
(tsS'anchors'
p12
(tsss."
LayerCount: 2
Fore
SplineSet
52 0 m 1
 239 0 l 1
 522 403 l 1
 805 0 l 1
 988 0 l 1
 614 535 l 1
 983 1060 l 1
 802 1060 l 1
 523 666 l 1
 247 1060 l 1
 58 1060 l 1
 429 533 l 1
 52 0 l 1
EndSplineSet
EndChar

StartChar: y
Encoding: 121 121 417
Width: 1116
VWidth: 0
Flags: W
PickledData: "(dp1
S'com.typemytype.robofont.layerData'
p2
(dp3
S'b'
(dp4
S'name'
p5
S'y'
sS'lib'
p6
(dp7
sS'unicodes'
p8
(tsS'width'
p9
I1116
sS'contours'
p10
(tsS'components'
p11
(tsS'anchors'
p12
(tsss."
LayerCount: 2
Fore
SplineSet
218 -322 m 1
 323 -322 l 2
 544 -322 619 -227 712 45 c 2
 1060 1060 l 1
 870 1060 l 1
 599 216 l 1
 275 1060 l 1
 76 1060 l 1
 513 4 l 1
 473 -145 397 -175 316 -175 c 2
 218 -175 l 1
 218 -322 l 1
EndSplineSet
EndChar

StartChar: yacute
Encoding: 253 253 418
Width: 1148
VWidth: 0
Flags: W
PickledData: "(dp1
S'com.typemytype.robofont.layerData'
p2
(dp3
S'b'
(dp4
S'name'
p5
S'yacute'
p6
sS'lib'
p7
(dp8
sS'unicodes'
p9
(tsS'width'
p10
I1148
sS'contours'
p11
(tsS'components'
p12
(tsS'anchors'
p13
(tsss."
LayerCount: 2
Fore
SplineSet
229 -322 m 1
 334 -322 l 2
 555 -322 630 -227 723 45 c 1
 1105 1060 l 1
 915 1060 l 1
 610 216 l 1
 270 1060 l 1
 71 1060 l 1
 524 4 l 1
 484 -145 408 -175 327 -175 c 2
 229 -175 l 1
 229 -322 l 1
663.5 1202 m 1
 769.5 1202 l 1
 631.5 1543 l 1
 406.5 1543 l 1
 663.5 1202 l 1
EndSplineSet
EndChar

StartChar: ydieresis
Encoding: 255 255 420
Width: 1148
VWidth: 0
Flags: W
PickledData: "(dp1
S'com.typemytype.robofont.layerData'
p2
(dp3
S'b'
(dp4
S'name'
p5
S'ydieresis'
p6
sS'lib'
p7
(dp8
sS'unicodes'
p9
(tsS'width'
p10
I1148
sS'contours'
p11
(tsS'components'
p12
(tsS'anchors'
p13
(tsss."
LayerCount: 2
Fore
SplineSet
229 -322 m 1
 334 -322 l 2
 555 -322 630 -227 723 45 c 1
 1105 1060 l 1
 915 1060 l 1
 610 216 l 1
 270 1060 l 1
 71 1060 l 1
 524 4 l 1
 484 -145 408 -175 327 -175 c 2
 229 -175 l 1
 229 -322 l 1
233.5 1202 m 1
 439.5 1202 l 1
 439.5 1383 l 1
 233.5 1383 l 1
 233.5 1202 l 1
736.5 1202 m 1
 942.5 1202 l 1
 942.5 1383 l 1
 736.5 1383 l 1
 736.5 1202 l 1
EndSplineSet
EndChar

StartChar: yen
Encoding: 165 165 421
Width: 1318
VWidth: 0
Flags: W
PickledData: "(dp1
S'com.typemytype.robofont.layerData'
p2
(dp3
S'b'
(dp4
S'name'
p5
S'yen'
p6
sS'lib'
p7
(dp8
sS'unicodes'
p9
(tsS'width'
p10
I1318
sS'contours'
p11
(tsS'components'
p12
(tsS'anchors'
p13
(tsss."
LayerCount: 2
Fore
SplineSet
260 252 m 1
 1063 252 l 1
 1063 400 l 1
 260 400 l 1
 260 252 l 1
260 560 m 1
 1063 560 l 1
 1063 708 l 1
 260 708 l 1
 260 560 l 1
EndSplineSet
Refer: 116 89 N 1 0 0 1 0 0 2
EndChar

StartChar: z
Encoding: 122 122 423
Width: 962
VWidth: 0
Flags: W
PickledData: "(dp1
S'com.typemytype.robofont.layerData'
p2
(dp3
S'b'
(dp4
S'name'
p5
S'z'
sS'lib'
p6
(dp7
sS'unicodes'
p8
(tsS'width'
p9
I962
sS'contours'
p10
(tsS'components'
p11
(tsS'anchors'
p12
(tsss."
LayerCount: 2
Fore
SplineSet
152 0 m 1
 850 0 l 1
 850 124 l 1
 347 124 l 1
 841 945 l 1
 841 1060 l 1
 170 1060 l 1
 170 936 l 1
 643 936 l 1
 152 118 l 1
 152 0 l 1
EndSplineSet
EndChar

StartChar: zero
Encoding: 48 48 427
Width: 1250
VWidth: 0
Flags: W
PickledData: "(dp1
S'com.typemytype.robofont.layerData'
p2
(dp3
S'b'
(dp4
S'name'
p5
S'zero'
p6
sS'lib'
p7
(dp8
sS'unicodes'
p9
(tsS'width'
p10
I1250
sS'contours'
p11
(tsS'components'
p12
(tsS'anchors'
p13
(tsss."
LayerCount: 2
Fore
SplineSet
634 126 m 0
 348 126 334 349 334 605 c 2
 334 842 l 2
 334 1099 350 1332 634 1332 c 0
 920 1332 917 1099 917 842 c 2
 917 605 l 2
 917 349 922 126 634 126 c 0
634 -24 m 0
 1099 -24 1118 353 1118 650 c 2
 1118 792 l 2
 1118 1098 1101 1483 634 1483 c 0
 149 1483 132 1111 132 805 c 2
 132 636 l 2
 132 335 151 -24 634 -24 c 0
EndSplineSet
EndChar
